<svg width="1816" height="1049" viewBox="0 0 1816 1049" fill="none" xmlns="http://www.w3.org/2000/svg">
<g filter="url(#filter0_d)">
<rect x="10" y="8" width="1265.86" height="868.252" fill="#F1F1F1"/>
<g filter="url(#filter1_d)">
<rect x="30.2863" y="28.2864" width="41.925" height="41.925" fill="white"/>
</g>
<g filter="url(#filter2_d)">
<rect x="30.2863" y="81.0308" width="41.925" height="41.925" fill="white"/>
</g>
<g filter="url(#filter3_d)">
<rect x="1213.65" y="28.2864" width="41.925" height="41.925" fill="white"/>
</g>
<g filter="url(#filter4_d)">
<rect x="476.584" y="28.2864" width="344.867" height="33.8105" rx="3" stroke="black" stroke-opacity="0.1"/>
</g>
<g filter="url(#filter5_d)">
<rect x="1213.65" y="81.0308" width="41.925" height="41.925" fill="white"/>
</g>
<g filter="url(#filter6_d)">
<rect x="1213.65" y="133.775" width="41.925" height="41.925" fill="white"/>
</g>
<g filter="url(#filter7_d)">
<rect x="1213.65" y="186.519" width="41.925" height="41.925" fill="white"/>
</g>
<g filter="url(#filter8_d)">
<rect x="1213.65" y="239.263" width="41.925" height="41.925" fill="white"/>
</g>
<line x1="1240.05" y1="47.8679" x2="1230.53" y2="47.8679" stroke="#2F344A" stroke-width="4" stroke-linecap="round" stroke-linejoin="round"/>
<line x1="746.92" y1="44.6628" x2="545.705" y2="44.6628" stroke="#2F344A" stroke-width="3" stroke-linecap="round" stroke-linejoin="round"/>
<line x1="1240.05" y1="100.612" x2="1230.53" y2="100.612" stroke="#2F344A" stroke-width="4" stroke-linecap="round" stroke-linejoin="round"/>
<line x1="55.3347" y1="47.8679" x2="45.8105" y2="47.8679" stroke="#2F344A" stroke-width="4" stroke-linecap="round" stroke-linejoin="round"/>
<line x1="55.3347" y1="100.612" x2="45.8105" y2="100.612" stroke="#2F344A" stroke-width="4" stroke-linecap="round" stroke-linejoin="round"/>
<line x1="1240.05" y1="153.356" x2="1230.53" y2="153.356" stroke="#2F344A" stroke-width="4" stroke-linecap="round" stroke-linejoin="round"/>
<line x1="1240.05" y1="206.101" x2="1230.53" y2="206.101" stroke="#2F344A" stroke-width="4" stroke-linecap="round" stroke-linejoin="round"/>
<line x1="1240.05" y1="258.845" x2="1230.53" y2="258.845" stroke="#2F344A" stroke-width="4" stroke-linecap="round" stroke-linejoin="round"/>
<circle cx="844.442" cy="45.8679" r="10.8193" fill="#2F344A"/>
<line x1="847.499" y1="45.5151" x2="841.385" y2="45.5151" stroke="white" stroke-width="2" stroke-linecap="round" stroke-linejoin="round"/>
<rect x="517.157" y="37.7532" width="16.229" height="14.8766" rx="2" fill="#2F344A"/>
<mask id="mask0" mask-type="alpha" maskUnits="userSpaceOnUse" x="488" y="36" width="17" height="18">
<path d="M504.985 53.7312H488.756V36.4009H504.985V53.7312Z" fill="white"/>
</mask>
<g mask="url(#mask0)">
<path d="M504.174 49.3777L497.276 52.7265V46.1962C497.276 45.9451 497.114 45.7776 496.871 45.7776C496.627 45.7776 496.465 45.9451 496.465 46.1962V52.7265L489.568 49.3777V41.2567L496.708 44.4381C496.789 44.5218 496.952 44.5218 497.033 44.4381L504.174 41.173V49.3777ZM504.742 40.1683L497.033 36.4009H496.708L491.028 39.2474C490.866 39.3311 490.704 39.5823 490.866 39.8334C490.947 40.0009 491.19 40.0846 491.353 40.0009L496.871 37.2381L503.606 40.5869L496.871 43.6846L489.324 40.3358C489.162 40.2521 489.081 40.2521 488.918 40.3358C488.837 40.4195 488.756 40.5032 488.756 40.6707V49.6288C488.756 49.7963 488.837 49.9637 489 49.9637L496.708 53.7312H496.871L504.579 49.9637C504.742 49.88 504.823 49.7125 504.823 49.6288V40.5869C504.985 40.4195 504.904 40.2521 504.742 40.1683Z" fill="#2F344A"/>
</g>
<mask id="mask1" mask-type="alpha" maskUnits="userSpaceOnUse" x="481" y="270" width="322" height="343">
<path d="M802.517 612.642H481.994V270.369H802.517V612.642Z" fill="white"/>
</mask>
<g mask="url(#mask1)">
<path d="M786.491 526.66L650.268 592.8V463.827C650.268 458.867 647.063 455.56 642.255 455.56C637.448 455.56 634.242 458.867 634.242 463.827V592.8L498.02 526.66V366.271L639.05 429.104C640.653 430.758 643.858 430.758 645.461 429.104L786.491 364.618V526.66ZM797.709 344.776L645.461 270.369H639.05L526.867 326.588C523.662 328.241 520.457 333.202 523.662 338.162C525.265 341.469 530.072 343.123 533.278 341.469L642.255 286.904L775.272 353.043L642.255 414.223L493.212 348.083C490.007 346.43 488.404 346.43 485.199 348.083C483.597 349.737 481.994 351.39 481.994 354.697V531.621C481.994 534.928 483.597 538.235 486.802 538.235L639.05 612.642H642.255L794.504 538.235C797.709 536.581 799.312 533.274 799.312 531.621V353.043C802.517 349.737 800.914 346.43 797.709 344.776Z" fill="#95989A"/>
</g>
<path d="M43.5185 827.754V829.317L48.543 826.111V853.541H38.4466V851.277H37.1284V854.86H49.8612V823.708L43.5185 827.754Z" fill="#F9C72C"/>
<path d="M33.1482 827.177V834.371L34.4664 833.527V828.083V827.897L42.2003 822.96V828.083V828.594L43.5185 827.754V820.557L33.1482 827.177Z" fill="#F9C72C"/>
<path d="M30.9974 835.74V851.277H43.5185V827.754L30.9974 835.74ZM42.2003 849.959H32.3156V836.463L42.2003 830.157V849.959Z" fill="#30374B"/>
<line x1="527.829" y1="44.6628" x2="522.714" y2="44.6628" stroke="white" stroke-width="3" stroke-linecap="round" stroke-linejoin="round"/>
<ellipse cx="1225.68" cy="849.643" rx="29.9947" ry="6.32367" fill="#C4C4C4"/>
<rect x="1199.31" y="785.493" width="52.5639" height="52.5639" fill="white" stroke="#949494" stroke-width="3" stroke-linecap="round" stroke-linejoin="round"/>
<g filter="url(#filter9_d)">
<path d="M1785.75 168.788H191.031C179.851 168.788 170.787 174.24 170.787 180.965V1024.82C170.787 1031.55 179.851 1037 191.031 1037H1785.75C1796.93 1037 1806 1031.55 1806 1024.82V180.965C1806 174.24 1796.93 168.788 1785.75 168.788Z" fill="#F1F1F1"/>
<g filter="url(#filter10_d)">
<path d="M1806 245.973V228.811H170.787V263.135V189.031C170.787 177.851 179.851 168.788 191.031 168.788H1785.75C1796.93 168.788 1806 177.851 1806 189.031V245.973Z" fill="black"/>
</g>
<path d="M1806 245.973V228.811H170.787V263.135V189.031C170.787 177.851 179.851 168.788 191.031 168.788H1785.75C1796.93 168.788 1806 177.851 1806 189.031V245.973Z" fill="white"/>
<path fill-rule="evenodd" clip-rule="evenodd" d="M232.757 201.283V205.285H235.222C235.92 205.285 236.467 205.113 236.861 204.763C237.251 204.419 237.448 203.937 237.448 203.324C237.448 201.992 236.77 201.313 235.409 201.283H232.757ZM232.757 199.646H234.938C235.627 199.646 236.168 199.489 236.558 199.175C236.947 198.861 237.14 198.421 237.14 197.843C237.14 197.21 236.958 196.754 236.603 196.47C236.239 196.192 235.677 196.05 234.918 196.05H232.757V199.646ZM230.536 207.063V194.256H234.918C236.366 194.256 237.469 194.545 238.223 195.128C238.977 195.705 239.356 196.571 239.356 197.721C239.356 198.309 239.194 198.836 238.88 199.302C238.562 199.773 238.101 200.138 237.494 200.396C238.182 200.584 238.719 200.938 239.093 201.455C239.473 201.972 239.66 202.595 239.66 203.324C239.66 204.525 239.275 205.447 238.506 206.095C237.737 206.739 236.634 207.063 235.197 207.063H230.536Z" fill="#30374B"/>
<path fill-rule="evenodd" clip-rule="evenodd" d="M242.014 207.062H244.225V194.256H242.014V207.062Z" fill="#30374B"/>
<path fill-rule="evenodd" clip-rule="evenodd" d="M249.841 194.256L253.53 204.068L257.214 194.256H260.083V207.062H257.872V202.837L258.094 197.194L254.314 207.062H252.72L248.955 197.204L249.173 202.837V207.062H246.962V194.256H249.841Z" fill="#30374B"/>
<path fill-rule="evenodd" clip-rule="evenodd" d="M264.933 196.051V205.286H266.385C267.554 205.286 268.445 204.916 269.067 204.187C269.69 203.457 270.008 202.409 270.024 201.046V200.332C270.024 198.944 269.72 197.88 269.118 197.15C268.516 196.416 267.635 196.051 266.492 196.051H264.933ZM262.717 207.059V194.258H266.492C267.62 194.258 268.622 194.506 269.497 195.013C270.373 195.519 271.051 196.234 271.532 197.161C272.012 198.083 272.25 199.146 272.25 200.342V200.985C272.25 202.196 272.007 203.265 271.532 204.182C271.046 205.104 270.358 205.813 269.467 206.315C268.571 206.811 267.549 207.059 266.395 207.059H262.717Z" fill="#30374B"/>
<path fill-rule="evenodd" clip-rule="evenodd" d="M277.594 205.523C278.014 205.523 278.414 205.417 278.783 205.214C279.157 205.006 279.436 204.733 279.623 204.388V202.595H278.474C277.685 202.595 277.083 202.732 276.688 203.005C276.288 203.284 276.091 203.674 276.091 204.176C276.091 204.586 276.228 204.915 276.501 205.158C276.774 205.401 277.138 205.523 277.594 205.523ZM279.942 207.063C279.846 206.881 279.765 206.582 279.694 206.172C279.011 206.886 278.181 207.235 277.199 207.235C276.243 207.235 275.463 206.967 274.861 206.42C274.259 205.873 273.955 205.199 273.955 204.398C273.955 203.385 274.33 202.605 275.084 202.063C275.838 201.516 276.916 201.247 278.317 201.247H279.623V200.624C279.623 200.133 279.486 199.738 279.208 199.439C278.935 199.145 278.52 198.998 277.953 198.998C277.472 198.998 277.068 199.12 276.759 199.363C276.445 199.606 276.293 199.915 276.293 200.29H274.158C274.158 199.768 274.33 199.282 274.679 198.826C275.023 198.37 275.494 198.015 276.086 197.757C276.678 197.499 277.346 197.372 278.08 197.372C279.188 197.372 280.073 197.651 280.736 198.213C281.399 198.77 281.738 199.555 281.758 200.569V204.865C281.758 205.721 281.88 206.399 282.123 206.911V207.063H279.942Z" fill="#30374B"/>
<path fill-rule="evenodd" clip-rule="evenodd" d="M286.666 195.233V197.548H288.346V199.128H286.666V204.437C286.666 204.802 286.742 205.066 286.884 205.228C287.026 205.39 287.284 205.471 287.648 205.471C287.896 205.471 288.149 205.44 288.402 205.38V207.036C287.911 207.168 287.441 207.239 286.99 207.239C285.351 207.239 284.531 206.332 284.531 204.518V199.128H282.972V197.548H284.531V195.233H286.666Z" fill="#30374B"/>
<path fill-rule="evenodd" clip-rule="evenodd" d="M293.308 205.523C293.733 205.523 294.128 205.417 294.497 205.214C294.872 205.006 295.15 204.733 295.337 204.388V202.595H294.189C293.399 202.595 292.802 202.732 292.402 203.005C292.008 203.284 291.805 203.674 291.805 204.176C291.805 204.586 291.942 204.915 292.215 205.158C292.489 205.401 292.853 205.523 293.308 205.523ZM295.656 207.063C295.56 206.881 295.479 206.582 295.408 206.172C294.73 206.886 293.895 207.235 292.914 207.235C291.957 207.235 291.178 206.967 290.576 206.42C289.974 205.873 289.67 205.199 289.67 204.398C289.67 203.385 290.044 202.605 290.803 202.063C291.552 201.516 292.63 201.247 294.032 201.247H295.337V200.624C295.337 200.133 295.201 199.738 294.923 199.439C294.654 199.145 294.234 198.998 293.668 198.998C293.187 198.998 292.782 199.12 292.473 199.363C292.165 199.606 292.008 199.915 292.008 200.29H289.872C289.872 199.768 290.044 199.282 290.394 198.826C290.738 198.37 291.208 198.015 291.8 197.757C292.397 197.499 293.06 197.372 293.794 197.372C294.902 197.372 295.793 197.651 296.456 198.213C297.119 198.77 297.453 199.555 297.473 200.569V204.865C297.473 205.721 297.594 206.399 297.837 206.911V207.063H295.656Z" fill="#30374B"/>
<path fill-rule="evenodd" clip-rule="evenodd" d="M301.042 204.81C301.437 204.81 301.745 204.922 301.963 205.149C302.18 205.372 302.287 205.656 302.287 205.995C302.287 206.33 302.18 206.608 301.963 206.826C301.745 207.049 301.437 207.156 301.042 207.156C300.662 207.156 300.354 207.049 300.131 206.831C299.908 206.614 299.802 206.335 299.802 205.995C299.802 205.656 299.908 205.372 300.126 205.149C300.344 204.922 300.647 204.81 301.042 204.81Z" fill="#30374B"/>
<path fill-rule="evenodd" clip-rule="evenodd" d="M304.873 207.062H307.009V197.549H304.873V207.062ZM304.736 195.077C304.736 194.747 304.843 194.474 305.05 194.256C305.258 194.038 305.556 193.932 305.941 193.932C306.33 193.932 306.624 194.038 306.836 194.256C307.044 194.474 307.155 194.747 307.155 195.077C307.155 195.396 307.044 195.664 306.836 195.877C306.624 196.095 306.33 196.201 305.941 196.201C305.556 196.201 305.258 196.095 305.05 195.877C304.843 195.664 304.736 195.396 304.736 195.077Z" fill="#30374B"/>
<path fill-rule="evenodd" clip-rule="evenodd" d="M311.064 202.401C311.064 203.379 311.266 204.144 311.671 204.701C312.071 205.253 312.638 205.532 313.356 205.532C314.08 205.532 314.637 205.248 315.036 204.686C315.436 204.124 315.638 203.298 315.638 202.214C315.638 201.251 315.431 200.491 315.021 199.929C314.606 199.367 314.05 199.083 313.336 199.083C312.643 199.083 312.086 199.362 311.676 199.914C311.266 200.471 311.064 201.297 311.064 202.401ZM308.928 202.214C308.928 201.282 309.111 200.446 309.485 199.696C309.855 198.946 310.366 198.374 311.039 197.974C311.707 197.568 312.471 197.371 313.336 197.371C314.621 197.371 315.659 197.781 316.458 198.607C317.263 199.438 317.693 200.532 317.754 201.9L317.764 202.401C317.764 203.338 317.587 204.179 317.227 204.914C316.863 205.654 316.352 206.226 315.679 206.631C315.006 207.037 314.237 207.239 313.356 207.239C312.01 207.239 310.942 206.788 310.133 205.897C309.328 205 308.928 203.81 308.928 202.32V202.214Z" fill="#30374B"/>
<path fill-rule="evenodd" clip-rule="evenodd" d="M216.168 188.517V190.067L221.132 186.891V214.059H211.148V211.82H209.843V215.366H222.438V184.51L216.168 188.517Z" fill="#F8C62C"/>
<path fill-rule="evenodd" clip-rule="evenodd" d="M205.904 187.945V195.073L207.21 194.237V188.847V188.66L214.866 183.771V188.847V189.349L216.167 188.518V181.39L205.904 187.945Z" fill="#F8C62C"/>
<path fill-rule="evenodd" clip-rule="evenodd" d="M214.864 210.514H205.082V197.145L214.864 190.899V210.514ZM203.781 196.431V211.821H216.169V188.518L203.781 196.431Z" fill="#30374B"/>
<path fill-rule="evenodd" clip-rule="evenodd" d="M1773.77 291.207H1666.94C1664.51 291.207 1662.53 289.222 1662.53 286.8V251.496C1662.53 249.069 1664.51 247.089 1666.94 247.089H1773.77C1776.19 247.089 1778.17 249.069 1778.17 251.496V286.8C1778.17 289.222 1776.19 291.207 1773.77 291.207Z" fill="#30374B"/>
<path fill-rule="evenodd" clip-rule="evenodd" d="M1756.72 273.556H1682.96C1680.53 273.556 1678.55 271.57 1678.55 269.148C1678.55 266.722 1680.53 264.741 1682.96 264.741H1756.72C1759.14 264.741 1761.12 266.722 1761.12 269.148C1761.12 271.57 1759.14 273.556 1756.72 273.556Z" fill="white"/>
<g filter="url(#filter11_d)">
<path d="M1611.22 290.715H1654.34V247.579H1611.22V290.715Z" fill="black"/>
</g>
<path d="M1611.22 290.715H1654.34V247.579H1611.22V290.715Z" fill="white"/>
<path fill-rule="evenodd" clip-rule="evenodd" d="M1639.2 273.556H1626.36C1623.94 273.556 1621.96 271.57 1621.96 269.148C1621.96 266.722 1623.94 264.741 1626.36 264.741H1639.2C1641.62 264.741 1643.6 266.722 1643.6 269.148C1643.6 271.57 1641.62 273.556 1639.2 273.556Z" fill="#C1C1C1"/>
<g filter="url(#filter12_d)">
<path d="M1557.73 290.715H1600.84V247.579H1557.73V290.715Z" fill="black"/>
</g>
<path d="M1557.73 290.715H1600.84V247.579H1557.73V290.715Z" fill="white"/>
<path fill-rule="evenodd" clip-rule="evenodd" d="M1585.71 273.556H1572.87C1570.45 273.556 1568.47 271.57 1568.47 269.148C1568.47 266.722 1570.45 264.741 1572.87 264.741H1585.71C1588.13 264.741 1590.11 266.722 1590.11 269.148C1590.11 271.57 1588.13 273.556 1585.71 273.556Z" fill="#C1C1C1"/>
<path fill-rule="evenodd" clip-rule="evenodd" d="M992.782 199.921H950.129C947.71 199.921 945.726 197.935 945.726 195.514C945.726 193.087 947.71 191.106 950.129 191.106H992.782C995.206 191.106 997.185 193.087 997.185 195.514C997.185 197.935 995.206 199.921 992.782 199.921Z" fill="#30374B"/>
<path fill-rule="evenodd" clip-rule="evenodd" d="M1671.33 198.379C1671.33 210.75 1661.32 220.781 1648.96 220.781C1636.6 220.781 1626.58 210.75 1626.58 198.379C1626.58 186.008 1636.6 175.978 1648.96 175.978C1661.32 175.978 1671.33 186.008 1671.33 198.379Z" fill="#30374B"/>
<path fill-rule="evenodd" clip-rule="evenodd" d="M1759.15 196.279H1684.47C1682.51 196.279 1680.91 194.673 1680.91 192.708C1680.91 190.747 1682.51 189.141 1684.47 189.141H1759.15C1761.12 189.141 1762.72 190.747 1762.72 192.708C1762.72 194.673 1761.12 196.279 1759.15 196.279Z" fill="#C1C1C1"/>
<path fill-rule="evenodd" clip-rule="evenodd" d="M1671.33 198.379C1671.33 210.75 1661.32 220.781 1648.96 220.781C1636.6 220.781 1626.58 210.75 1626.58 198.379C1626.58 186.008 1636.6 175.978 1648.96 175.978C1661.32 175.978 1671.33 186.008 1671.33 198.379Z" fill="#30374B"/>
<path fill-rule="evenodd" clip-rule="evenodd" d="M1759.15 196.279H1684.47C1682.51 196.279 1680.91 194.673 1680.91 192.708C1680.91 190.747 1682.51 189.141 1684.47 189.141H1759.15C1761.12 189.141 1762.72 190.747 1762.72 192.708C1762.72 194.673 1761.12 196.279 1759.15 196.279Z" fill="#C1C1C1"/>
<path fill-rule="evenodd" clip-rule="evenodd" d="M1736.95 202.641H1683.39C1682.02 202.641 1680.91 203.76 1680.91 205.128C1680.91 206.501 1682.02 207.616 1683.39 207.616H1736.95C1738.33 207.616 1739.44 206.501 1739.44 205.128C1739.44 203.76 1738.33 202.641 1736.95 202.641Z" fill="#C1C1C1"/>
<path fill-rule="evenodd" clip-rule="evenodd" d="M1772.77 195.356L1775.79 198.38L1772.77 201.4C1772.38 201.785 1772.38 202.418 1772.77 202.798C1773.15 203.183 1773.78 203.183 1774.16 202.798L1777.88 199.08C1778.27 198.695 1778.27 198.066 1777.88 197.676L1774.16 193.958C1773.78 193.573 1773.15 193.573 1772.77 193.958C1772.38 194.343 1772.38 194.971 1772.77 195.356Z" fill="#30374B"/>
<g filter="url(#filter13_d)">
<path d="M201.278 290.715H404.627V247.579H201.278V290.715Z" fill="black"/>
</g>
<path d="M201.278 290.715H404.627V247.579H201.278V290.715Z" fill="white"/>
<path fill-rule="evenodd" clip-rule="evenodd" d="M344.431 273.556H265.044C262.625 273.556 260.642 271.57 260.642 269.148C260.642 266.722 262.625 264.741 265.044 264.741H344.431C346.855 264.741 348.833 266.722 348.833 269.148C348.833 271.57 346.855 273.556 344.431 273.556Z" fill="#30374B"/>
<path fill-rule="evenodd" clip-rule="evenodd" d="M233.088 273.556H219.269C216.845 273.556 214.861 271.57 214.861 269.148C214.861 266.722 216.845 264.741 219.269 264.741H233.088C235.512 264.741 237.491 266.722 237.491 269.148C237.491 271.57 235.512 273.556 233.088 273.556Z" fill="#30374B"/>
<path fill-rule="evenodd" clip-rule="evenodd" d="M379.744 266.126L382.765 269.15L379.744 272.169C379.36 272.554 379.36 273.188 379.744 273.567C380.129 273.952 380.756 273.952 381.141 273.567L384.86 269.849C385.245 269.464 385.245 268.831 384.86 268.446L381.141 264.727C380.756 264.342 380.129 264.342 379.744 264.727C379.36 265.112 379.36 265.741 379.744 266.126Z" fill="#30374B"/>
<g filter="url(#filter14_d)">
<path d="M421.853 290.715H625.197V247.579H421.853V290.715Z" fill="black"/>
</g>
<path d="M421.853 290.715H625.197V247.579H421.853V290.715Z" fill="white"/>
<path fill-rule="evenodd" clip-rule="evenodd" d="M565.004 273.556H485.618C483.199 273.556 481.215 271.57 481.215 269.148C481.215 266.722 483.199 264.741 485.618 264.741H565.004C567.428 264.741 569.407 266.722 569.407 269.148C569.407 271.57 567.428 273.556 565.004 273.556Z" fill="#30374B"/>
<path fill-rule="evenodd" clip-rule="evenodd" d="M453.662 273.556H439.843C437.419 273.556 435.435 271.57 435.435 269.148C435.435 266.722 437.419 264.741 439.843 264.741H453.662C456.086 264.741 458.065 266.722 458.065 269.148C458.065 271.57 456.086 273.556 453.662 273.556Z" fill="#30374B"/>
<path fill-rule="evenodd" clip-rule="evenodd" d="M600.318 266.126L603.334 269.15L600.318 272.169C599.933 272.554 599.933 273.188 600.318 273.567C600.697 273.952 601.33 273.952 601.715 273.567L605.434 269.849C605.818 269.464 605.818 268.831 605.434 268.446L601.715 264.727C601.33 264.342 600.697 264.342 600.318 264.727C599.933 265.112 599.933 265.741 600.318 266.126Z" fill="#30374B"/>
<g filter="url(#filter15_d)">
<path d="M1298.67 862.32H1778.17V314.829H1298.67V862.32Z" fill="black"/>
</g>
<path d="M1298.67 862.32H1778.17V314.829H1298.67V862.32Z" fill="white"/>
<g filter="url(#filter16_d)">
<path d="M1298.67 398.188H1778.17V356.506H1298.67V398.188Z" fill="black"/>
</g>
<path d="M1298.67 398.188H1778.17V356.506H1298.67V398.188Z" fill="white"/>
<path fill-rule="evenodd" clip-rule="evenodd" d="M1298.67 356.506H1778.17V314.824H1298.67V356.506Z" fill="#F8F8F9"/>
<path fill-rule="evenodd" clip-rule="evenodd" d="M1365.4 340.076H1325.62C1323.2 340.076 1321.22 338.09 1321.22 335.668C1321.22 333.242 1323.2 331.261 1325.62 331.261H1365.4C1367.82 331.261 1369.8 333.242 1369.8 335.668C1369.8 338.09 1367.82 340.076 1365.4 340.076Z" fill="#30374B"/>
<path fill-rule="evenodd" clip-rule="evenodd" d="M1759.33 381.755H1740.82C1738.4 381.755 1736.42 379.769 1736.42 377.348C1736.42 374.921 1738.4 372.94 1740.82 372.94H1759.33C1761.75 372.94 1763.73 374.921 1763.73 377.348C1763.73 379.769 1761.75 381.755 1759.33 381.755Z" fill="#30374B"/>
<path fill-rule="evenodd" clip-rule="evenodd" d="M1705.17 381.755H1686.66C1684.24 381.755 1682.27 379.769 1682.27 377.348C1682.27 374.921 1684.24 372.94 1686.66 372.94H1705.17C1707.59 372.94 1709.57 374.921 1709.57 377.348C1709.57 379.769 1707.59 381.755 1705.17 381.755Z" fill="#30374B"/>
<path fill-rule="evenodd" clip-rule="evenodd" d="M1365.97 455.643C1365.97 468.014 1355.95 478.045 1343.59 478.045C1331.24 478.045 1321.22 468.014 1321.22 455.643C1321.22 443.272 1331.24 433.242 1343.59 433.242C1355.95 433.242 1365.97 443.272 1365.97 455.643Z" fill="#30374B"/>
<path fill-rule="evenodd" clip-rule="evenodd" d="M1458.86 452.24H1384.18C1382.22 452.24 1380.61 450.634 1380.61 448.668C1380.61 446.708 1382.22 445.102 1384.18 445.102H1458.86C1460.82 445.102 1462.43 446.708 1462.43 448.668C1462.43 450.634 1460.82 452.24 1458.86 452.24Z" fill="#C1C1C1"/>
<path fill-rule="evenodd" clip-rule="evenodd" d="M1436.67 461.209H1383.1C1381.74 461.209 1380.61 462.329 1380.61 463.696C1380.61 465.069 1381.74 466.184 1383.1 466.184H1436.67C1438.03 466.184 1439.15 465.069 1439.15 463.696C1439.15 462.329 1438.03 461.209 1436.67 461.209Z" fill="#C1C1C1"/>
<path fill-rule="evenodd" clip-rule="evenodd" d="M1510.87 445.101H1480.08C1477.66 445.101 1475.68 443.115 1475.68 440.694V433.434C1475.68 431.008 1477.66 429.027 1480.08 429.027H1510.87C1513.29 429.027 1515.27 431.008 1515.27 433.434V440.694C1515.27 443.115 1513.29 445.101 1510.87 445.101Z" fill="#30374B"/>
<path fill-rule="evenodd" clip-rule="evenodd" d="M1507.83 438.667H1482.77C1481.89 438.667 1481.16 437.943 1481.16 437.061C1481.16 436.18 1481.89 435.456 1482.77 435.456H1507.83C1508.71 435.456 1509.43 436.18 1509.43 437.061C1509.43 437.943 1508.71 438.667 1507.83 438.667Z" fill="white"/>
<path fill-rule="evenodd" clip-rule="evenodd" d="M1760.29 448.097C1760.29 449.606 1759.07 450.832 1757.56 450.832C1756.05 450.832 1754.83 449.606 1754.83 448.097C1754.83 446.587 1756.05 445.361 1757.56 445.361C1759.07 445.361 1760.29 446.587 1760.29 448.097Z" fill="#9E9E9E"/>
<path fill-rule="evenodd" clip-rule="evenodd" d="M1760.29 455.644C1760.29 457.153 1759.07 458.379 1757.56 458.379C1756.05 458.379 1754.83 457.153 1754.83 455.644C1754.83 454.134 1756.05 452.908 1757.56 452.908C1759.07 452.908 1760.29 454.134 1760.29 455.644Z" fill="#9E9E9E"/>
<path fill-rule="evenodd" clip-rule="evenodd" d="M1760.29 463.19C1760.29 464.7 1759.07 465.926 1757.56 465.926C1756.05 465.926 1754.83 464.7 1754.83 463.19C1754.83 461.681 1756.05 460.455 1757.56 460.455C1759.07 460.455 1760.29 461.681 1760.29 463.19Z" fill="#9E9E9E"/>
<path fill-rule="evenodd" clip-rule="evenodd" d="M1298.67 499.785H1778.17V498.123H1298.67V499.785Z" fill="#C1C1C1"/>
<path fill-rule="evenodd" clip-rule="evenodd" d="M1365.97 546.486C1365.97 558.856 1355.95 568.887 1343.59 568.887C1331.24 568.887 1321.22 558.856 1321.22 546.486C1321.22 534.115 1331.24 524.084 1343.59 524.084C1355.95 524.084 1365.97 534.115 1365.97 546.486Z" fill="#30374B"/>
<path fill-rule="evenodd" clip-rule="evenodd" d="M1458.86 543.082H1384.18C1382.22 543.082 1380.61 541.476 1380.61 539.511C1380.61 537.55 1382.22 535.939 1384.18 535.939H1458.86C1460.82 535.939 1462.43 537.55 1462.43 539.511C1462.43 541.476 1460.82 543.082 1458.86 543.082Z" fill="#C1C1C1"/>
<path fill-rule="evenodd" clip-rule="evenodd" d="M1436.67 552.051H1383.1C1381.74 552.051 1380.61 553.171 1380.61 554.539C1380.61 555.906 1381.74 557.026 1383.1 557.026H1436.67C1438.03 557.026 1439.15 555.906 1439.15 554.539C1439.15 553.171 1438.03 552.051 1436.67 552.051Z" fill="#C1C1C1"/>
<path fill-rule="evenodd" clip-rule="evenodd" d="M1510.87 535.941H1480.08C1477.66 535.941 1475.68 533.955 1475.68 531.533V524.274C1475.68 521.847 1477.66 519.867 1480.08 519.867H1510.87C1513.29 519.867 1515.27 521.847 1515.27 524.274V531.533C1515.27 533.955 1513.29 535.941 1510.87 535.941Z" fill="#30374B"/>
<path fill-rule="evenodd" clip-rule="evenodd" d="M1507.83 529.51H1482.77C1481.89 529.51 1481.16 528.785 1481.16 527.904C1481.16 527.022 1481.89 526.298 1482.77 526.298H1507.83C1508.71 526.298 1509.43 527.022 1509.43 527.904C1509.43 528.785 1508.71 529.51 1507.83 529.51Z" fill="white"/>
<path fill-rule="evenodd" clip-rule="evenodd" d="M1760.29 538.939C1760.29 540.449 1759.07 541.675 1757.56 541.675C1756.05 541.675 1754.83 540.449 1754.83 538.939C1754.83 537.429 1756.05 536.203 1757.56 536.203C1759.07 536.203 1760.29 537.429 1760.29 538.939Z" fill="#9E9E9E"/>
<path fill-rule="evenodd" clip-rule="evenodd" d="M1760.29 546.486C1760.29 547.995 1759.07 549.221 1757.56 549.221C1756.05 549.221 1754.83 547.995 1754.83 546.486C1754.83 544.976 1756.05 543.75 1757.56 543.75C1759.07 543.75 1760.29 544.976 1760.29 546.486Z" fill="#9E9E9E"/>
<path fill-rule="evenodd" clip-rule="evenodd" d="M1760.29 554.033C1760.29 555.542 1759.07 556.768 1757.56 556.768C1756.05 556.768 1754.83 555.542 1754.83 554.033C1754.83 552.523 1756.05 551.297 1757.56 551.297C1759.07 551.297 1760.29 552.523 1760.29 554.033Z" fill="#9E9E9E"/>
<path fill-rule="evenodd" clip-rule="evenodd" d="M1298.67 590.626H1778.17V588.964H1298.67V590.626Z" fill="#C1C1C1"/>
<path fill-rule="evenodd" clip-rule="evenodd" d="M1365.97 637.325C1365.97 649.696 1355.95 659.727 1343.59 659.727C1331.24 659.727 1321.22 649.696 1321.22 637.325C1321.22 624.955 1331.24 614.924 1343.59 614.924C1355.95 614.924 1365.97 624.955 1365.97 637.325Z" fill="#30374B"/>
<path fill-rule="evenodd" clip-rule="evenodd" d="M1458.86 633.924H1384.18C1382.22 633.924 1380.61 632.318 1380.61 630.353C1380.61 628.387 1382.22 626.781 1384.18 626.781H1458.86C1460.82 626.781 1462.43 628.387 1462.43 630.353C1462.43 632.318 1460.82 633.924 1458.86 633.924Z" fill="#C1C1C1"/>
<path fill-rule="evenodd" clip-rule="evenodd" d="M1436.67 642.894H1383.1C1381.74 642.894 1380.61 644.013 1380.61 645.381C1380.61 646.749 1381.74 647.868 1383.1 647.868H1436.67C1438.03 647.868 1439.15 646.749 1439.15 645.381C1439.15 644.013 1438.03 642.894 1436.67 642.894Z" fill="#C1C1C1"/>
<path fill-rule="evenodd" clip-rule="evenodd" d="M1510.87 626.783H1480.08C1477.66 626.783 1475.68 624.797 1475.68 622.376V615.116C1475.68 612.69 1477.66 610.709 1480.08 610.709H1510.87C1513.29 610.709 1515.27 612.69 1515.27 615.116V622.376C1515.27 624.797 1513.29 626.783 1510.87 626.783Z" fill="#30374B"/>
<path fill-rule="evenodd" clip-rule="evenodd" d="M1507.83 620.349H1482.77C1481.89 620.349 1481.16 619.625 1481.16 618.744C1481.16 617.862 1481.89 617.138 1482.77 617.138H1507.83C1508.71 617.138 1509.43 617.862 1509.43 618.744C1509.43 619.625 1508.71 620.349 1507.83 620.349Z" fill="white"/>
<path fill-rule="evenodd" clip-rule="evenodd" d="M1760.29 629.778C1760.29 631.288 1759.07 632.514 1757.56 632.514C1756.05 632.514 1754.83 631.288 1754.83 629.778C1754.83 628.269 1756.05 627.043 1757.56 627.043C1759.07 627.043 1760.29 628.269 1760.29 629.778Z" fill="#9E9E9E"/>
<path fill-rule="evenodd" clip-rule="evenodd" d="M1760.29 637.325C1760.29 638.835 1759.07 640.061 1757.56 640.061C1756.05 640.061 1754.83 638.835 1754.83 637.325C1754.83 635.816 1756.05 634.59 1757.56 634.59C1759.07 634.59 1760.29 635.816 1760.29 637.325Z" fill="#9E9E9E"/>
<path fill-rule="evenodd" clip-rule="evenodd" d="M1760.29 644.872C1760.29 646.382 1759.07 647.608 1757.56 647.608C1756.05 647.608 1754.83 646.382 1754.83 644.872C1754.83 643.363 1756.05 642.137 1757.56 642.137C1759.07 642.137 1760.29 643.363 1760.29 644.872Z" fill="#9E9E9E"/>
<path fill-rule="evenodd" clip-rule="evenodd" d="M1298.67 681.468H1778.17V679.806H1298.67V681.468Z" fill="#C1C1C1"/>
<path fill-rule="evenodd" clip-rule="evenodd" d="M1365.97 728.167C1365.97 740.538 1355.95 750.569 1343.59 750.569C1331.24 750.569 1321.22 740.538 1321.22 728.167C1321.22 715.797 1331.24 705.766 1343.59 705.766C1355.95 705.766 1365.97 715.797 1365.97 728.167Z" fill="#30374B"/>
<path fill-rule="evenodd" clip-rule="evenodd" d="M1458.86 724.764H1384.18C1382.22 724.764 1380.61 723.158 1380.61 721.192C1380.61 719.232 1382.22 717.621 1384.18 717.621H1458.86C1460.82 717.621 1462.43 719.232 1462.43 721.192C1462.43 723.158 1460.82 724.764 1458.86 724.764Z" fill="#C1C1C1"/>
<path fill-rule="evenodd" clip-rule="evenodd" d="M1436.67 733.733H1383.1C1381.74 733.733 1380.61 734.852 1380.61 736.22C1380.61 737.588 1381.74 738.708 1383.1 738.708H1436.67C1438.03 738.708 1439.15 737.588 1439.15 736.22C1439.15 734.852 1438.03 733.733 1436.67 733.733Z" fill="#C1C1C1"/>
<path fill-rule="evenodd" clip-rule="evenodd" d="M1510.87 717.623H1480.08C1477.66 717.623 1475.68 715.637 1475.68 713.216V705.956C1475.68 703.53 1477.66 701.549 1480.08 701.549H1510.87C1513.29 701.549 1515.27 703.53 1515.27 705.956V713.216C1515.27 715.637 1513.29 717.623 1510.87 717.623Z" fill="#30374B"/>
<path fill-rule="evenodd" clip-rule="evenodd" d="M1507.83 711.191H1482.77C1481.89 711.191 1481.16 710.467 1481.16 709.585C1481.16 708.704 1481.89 707.979 1482.77 707.979H1507.83C1508.71 707.979 1509.43 708.704 1509.43 709.585C1509.43 710.467 1508.71 711.191 1507.83 711.191Z" fill="white"/>
<path fill-rule="evenodd" clip-rule="evenodd" d="M1760.29 720.621C1760.29 722.13 1759.07 723.356 1757.56 723.356C1756.05 723.356 1754.83 722.13 1754.83 720.621C1754.83 719.111 1756.05 717.885 1757.56 717.885C1759.07 717.885 1760.29 719.111 1760.29 720.621Z" fill="#9E9E9E"/>
<path fill-rule="evenodd" clip-rule="evenodd" d="M1760.29 728.168C1760.29 729.677 1759.07 730.903 1757.56 730.903C1756.05 730.903 1754.83 729.677 1754.83 728.168C1754.83 726.658 1756.05 725.432 1757.56 725.432C1759.07 725.432 1760.29 726.658 1760.29 728.168Z" fill="#9E9E9E"/>
<path fill-rule="evenodd" clip-rule="evenodd" d="M1760.29 735.714C1760.29 737.224 1759.07 738.45 1757.56 738.45C1756.05 738.45 1754.83 737.224 1754.83 735.714C1754.83 734.205 1756.05 732.979 1757.56 732.979C1759.07 732.979 1760.29 734.205 1760.29 735.714Z" fill="#9E9E9E"/>
<path fill-rule="evenodd" clip-rule="evenodd" d="M1298.67 772.309H1778.17V770.648H1298.67V772.309Z" fill="#C1C1C1"/>
<path fill-rule="evenodd" clip-rule="evenodd" d="M1365.97 819.007C1365.97 831.378 1355.95 841.408 1343.59 841.408C1331.24 841.408 1321.22 831.378 1321.22 819.007C1321.22 806.636 1331.24 796.606 1343.59 796.606C1355.95 796.606 1365.97 806.636 1365.97 819.007Z" fill="#30374B"/>
<path fill-rule="evenodd" clip-rule="evenodd" d="M1458.86 815.606H1384.18C1382.22 815.606 1380.61 814 1380.61 812.034C1380.61 810.069 1382.22 808.463 1384.18 808.463H1458.86C1460.82 808.463 1462.43 810.069 1462.43 812.034C1462.43 814 1460.82 815.606 1458.86 815.606Z" fill="#C1C1C1"/>
<path fill-rule="evenodd" clip-rule="evenodd" d="M1436.67 824.575H1383.1C1381.74 824.575 1380.61 825.695 1380.61 827.063C1380.61 828.431 1381.74 829.55 1383.1 829.55H1436.67C1438.03 829.55 1439.15 828.431 1439.15 827.063C1439.15 825.695 1438.03 824.575 1436.67 824.575Z" fill="#C1C1C1"/>
<path fill-rule="evenodd" clip-rule="evenodd" d="M1510.87 808.465H1480.08C1477.66 808.465 1475.68 806.479 1475.68 804.058V796.798C1475.68 794.372 1477.66 792.391 1480.08 792.391H1510.87C1513.29 792.391 1515.27 794.372 1515.27 796.798V804.058C1515.27 806.479 1513.29 808.465 1510.87 808.465Z" fill="#30374B"/>
<path fill-rule="evenodd" clip-rule="evenodd" d="M1507.83 802.034H1482.77C1481.89 802.034 1481.16 801.309 1481.16 800.428C1481.16 799.541 1481.89 798.822 1482.77 798.822H1507.83C1508.71 798.822 1509.43 799.541 1509.43 800.428C1509.43 801.309 1508.71 802.034 1507.83 802.034Z" fill="white"/>
<path fill-rule="evenodd" clip-rule="evenodd" d="M1760.29 811.46C1760.29 812.97 1759.07 814.196 1757.56 814.196C1756.05 814.196 1754.83 812.97 1754.83 811.46C1754.83 809.951 1756.05 808.725 1757.56 808.725C1759.07 808.725 1760.29 809.951 1760.29 811.46Z" fill="#9E9E9E"/>
<path fill-rule="evenodd" clip-rule="evenodd" d="M1760.29 819.007C1760.29 820.517 1759.07 821.743 1757.56 821.743C1756.05 821.743 1754.83 820.517 1754.83 819.007C1754.83 817.497 1756.05 816.271 1757.56 816.271C1759.07 816.271 1760.29 817.497 1760.29 819.007Z" fill="#9E9E9E"/>
<path fill-rule="evenodd" clip-rule="evenodd" d="M1760.29 826.554C1760.29 828.064 1759.07 829.29 1757.56 829.29C1756.05 829.29 1754.83 828.064 1754.83 826.554C1754.83 825.045 1756.05 823.819 1757.56 823.819C1759.07 823.819 1760.29 825.045 1760.29 826.554Z" fill="#9E9E9E"/>
<g filter="url(#filter17_d)">
<path d="M200.615 857.927H1246.07V314.824H200.615V857.927Z" fill="black"/>
</g>
<path d="M200.615 857.927H1246.07V314.824H200.615V857.927Z" fill="white"/>
<path fill-rule="evenodd" clip-rule="evenodd" d="M200.615 356.506H1246.07V314.824H200.615V356.506Z" fill="#F8F8F9"/>
<path fill-rule="evenodd" clip-rule="evenodd" d="M298.65 340.076H219.264C216.845 340.076 214.862 338.09 214.862 335.668C214.862 333.242 216.845 331.261 219.264 331.261H298.65C301.074 331.261 303.053 333.242 303.053 335.668C303.053 338.09 301.074 340.076 298.65 340.076Z" fill="#30374B"/>
<path fill-rule="evenodd" clip-rule="evenodd" d="M213.969 841.408H607.071V372.94H213.969V841.408Z" fill="#EAEAEA"/>
<g filter="url(#filter18_d)">
<path d="M213.969 841.408H607.071V743.712H213.969V841.408Z" fill="black"/>
</g>
<path d="M213.969 841.408H607.071V743.712H213.969V841.408Z" fill="white"/>
<path fill-rule="evenodd" clip-rule="evenodd" d="M254.229 784.041H429.21C431.634 784.041 433.608 786.026 433.608 788.448V796.675C433.608 799.096 431.634 801.082 429.21 801.082H254.229C251.805 801.082 249.827 799.096 249.827 796.675V788.448C249.827 786.026 251.805 784.041 254.229 784.041Z" fill="#C1C1C1"/>
<path fill-rule="evenodd" clip-rule="evenodd" d="M586.852 415.364H551.961C549.208 415.364 546.946 413.104 546.946 410.343V400.977C546.946 398.216 549.208 395.956 551.961 395.956H586.852C589.61 395.956 591.861 398.216 591.861 400.977V410.343C591.861 413.104 589.61 415.364 586.852 415.364Z" fill="#9E9E9E"/>
<path fill-rule="evenodd" clip-rule="evenodd" d="M485.2 539.174L412.499 505.927C411.466 505.455 410.262 505.461 409.23 505.937L355.605 530.871C353.723 531.747 352.928 533.931 353.839 535.75C354.745 537.568 357.007 538.328 358.89 537.452L410.889 513.277L474.538 542.381L410.51 569.716L339.443 539.883C338.274 539.387 336.923 539.498 335.855 540.177C334.787 540.851 334.145 542.001 334.145 543.232V622.315C334.145 623.729 334.995 625.021 336.326 625.623L409.27 658.618C409.285 658.623 409.301 658.628 409.321 658.638C409.402 658.673 409.493 658.709 409.589 658.739L409.69 658.775C409.786 658.805 409.882 658.83 409.984 658.856C410.019 658.861 410.044 658.871 410.075 658.876C410.181 658.901 410.287 658.916 410.399 658.932C410.424 658.932 410.449 658.937 410.475 658.942C410.606 658.957 410.738 658.962 410.874 658.962C411.016 658.962 411.148 658.957 411.284 658.942C411.304 658.937 411.33 658.932 411.36 658.932C411.466 658.916 411.573 658.901 411.679 658.876C411.714 658.871 411.74 658.861 411.77 658.856C411.871 658.83 411.967 658.805 412.063 658.775C412.104 658.764 412.139 658.749 412.17 658.739C412.261 658.704 412.352 658.673 412.438 658.633C412.453 658.628 412.473 658.623 412.489 658.612L485.19 625.618C486.521 625.015 487.366 623.729 487.366 622.315V542.472C487.366 541.064 486.526 539.777 485.2 539.174ZM479.796 620L414.664 649.555V591.905C414.664 589.889 412.969 588.252 410.874 588.252C408.784 588.252 407.089 589.889 407.089 591.905V649.565L341.72 619.995V548.799L409.012 577.057C409.984 577.462 411.087 577.457 412.053 577.047L479.796 548.12V620Z" fill="#9E9E9E"/>
<path fill-rule="evenodd" clip-rule="evenodd" d="M312.428 420.585H234.129C231.71 420.585 229.727 418.6 229.727 416.178V391.761C229.727 389.339 231.71 387.353 234.129 387.353H312.428C314.852 387.353 316.83 389.339 316.83 391.761V416.178C316.83 418.6 314.852 420.585 312.428 420.585Z" fill="#30374B"/>
<path fill-rule="evenodd" clip-rule="evenodd" d="M300.672 407.29H245.109C243.282 407.29 241.79 405.796 241.79 403.972C241.79 402.143 243.282 400.649 245.109 400.649H300.672C302.493 400.649 303.986 402.143 303.986 403.972C303.986 405.796 302.493 407.29 300.672 407.29Z" fill="white"/>
<path fill-rule="evenodd" clip-rule="evenodd" d="M562.177 783.338L571.387 792.558L562.177 801.783C561.009 802.958 561.009 804.878 562.177 806.053C563.351 807.229 565.274 807.229 566.448 806.053L577.794 794.696C578.968 793.521 578.968 791.601 577.794 790.42L566.448 779.062C565.274 777.887 563.351 777.887 562.177 779.062C561.009 780.238 561.009 782.163 562.177 783.338Z" fill="#C1C1C1"/>
<path d="M1226.03 832.241V837.307H1220.97" stroke="#30374B" stroke-width="0.5"/>
<path d="M1210.77 837.307H644.564" stroke="#30374B" stroke-width="0.5" stroke-dasharray="2.02 2.02"/>
<path d="M639.466 837.307H634.406V832.241" stroke="#30374B" stroke-width="0.5"/>
<path d="M634.406 822.146V383.05" stroke="#30374B" stroke-width="0.5" stroke-dasharray="1.99 1.99"/>
<path d="M634.406 378.005V372.939H639.466" stroke="#30374B" stroke-width="0.5"/>
<path d="M649.666 372.939H1215.87" stroke="#30374B" stroke-width="0.5" stroke-dasharray="2.02 2.02"/>
<path d="M1220.97 372.939H1226.03V378.005" stroke="#30374B" stroke-width="0.5"/>
<path d="M1226.03 388.1V827.196" stroke="#30374B" stroke-width="0.5" stroke-dasharray="1.99 1.99"/>
<path fill-rule="evenodd" clip-rule="evenodd" d="M200.615 946.591H1778.17V895.603H200.615V946.591Z" fill="white"/>
<path fill-rule="evenodd" clip-rule="evenodd" d="M269.712 925.502H229.937C227.514 925.502 225.535 923.521 225.535 921.095C225.535 918.673 227.514 916.688 229.937 916.688H269.712C272.135 916.688 274.114 918.673 274.114 921.095C274.114 923.521 272.135 925.502 269.712 925.502Z" fill="#30374B"/>
<path fill-rule="evenodd" clip-rule="evenodd" d="M984.992 925.502H924.587C922.168 925.502 920.184 923.521 920.184 921.095C920.184 918.673 922.168 916.688 924.587 916.688H984.992C987.416 916.688 989.394 918.673 989.394 921.095C989.394 923.521 987.416 925.502 984.992 925.502Z" fill="#30374B"/>
<path fill-rule="evenodd" clip-rule="evenodd" d="M1256.05 925.502H1195.65C1193.23 925.502 1191.24 923.521 1191.24 921.095C1191.24 918.673 1193.23 916.688 1195.65 916.688H1256.05C1258.47 916.688 1260.45 918.673 1260.45 921.095C1260.45 923.521 1258.47 925.502 1256.05 925.502Z" fill="#30374B"/>
<path fill-rule="evenodd" clip-rule="evenodd" d="M1593.17 925.502H1532.77C1530.35 925.502 1528.37 923.521 1528.37 921.095C1528.37 918.673 1530.35 916.688 1532.77 916.688H1593.17C1595.6 916.688 1597.58 918.673 1597.58 921.095C1597.58 923.521 1595.6 925.502 1593.17 925.502Z" fill="#30374B"/>
<path fill-rule="evenodd" clip-rule="evenodd" d="M1162.43 946.591H1164.08V895.603H1162.43V946.591Z" fill="#C1C1C1"/>
<path fill-rule="evenodd" clip-rule="evenodd" d="M880.465 946.591H882.12V895.603H880.465V946.591Z" fill="#C1C1C1"/>
<path fill-rule="evenodd" clip-rule="evenodd" d="M1430.07 946.591H1431.72V895.603H1430.07V946.591Z" fill="#C1C1C1"/>
<path fill-rule="evenodd" clip-rule="evenodd" d="M1688.64 946.591H1690.3V895.603H1688.64V946.591Z" fill="#C1C1C1"/>
<path fill-rule="evenodd" clip-rule="evenodd" d="M200.615 1011.93H1778.17V960.943H200.615V1011.93Z" fill="white"/>
<path fill-rule="evenodd" clip-rule="evenodd" d="M1162.43 1011.93H1164.08V960.943H1162.43V1011.93Z" fill="#C1C1C1"/>
<path fill-rule="evenodd" clip-rule="evenodd" d="M880.465 1011.93H882.12V960.943H880.465V1011.93Z" fill="#C1C1C1"/>
<path fill-rule="evenodd" clip-rule="evenodd" d="M1430.07 1011.93H1431.72V960.943H1430.07V1011.93Z" fill="#C1C1C1"/>
<path fill-rule="evenodd" clip-rule="evenodd" d="M1688.64 1011.93H1690.3V960.943H1688.64V1011.93Z" fill="#C1C1C1"/>
<path fill-rule="evenodd" clip-rule="evenodd" d="M1738.01 978.89C1738.01 980.399 1736.79 981.625 1735.27 981.625C1733.77 981.625 1732.55 980.399 1732.55 978.89C1732.55 977.38 1733.77 976.154 1735.27 976.154C1736.79 976.154 1738.01 977.38 1738.01 978.89Z" fill="#9E9E9E"/>
<path fill-rule="evenodd" clip-rule="evenodd" d="M1738.01 986.436C1738.01 987.946 1736.79 989.172 1735.27 989.172C1733.77 989.172 1732.55 987.946 1732.55 986.436C1732.55 984.926 1733.77 983.7 1735.27 983.7C1736.79 983.7 1738.01 984.926 1738.01 986.436Z" fill="#9E9E9E"/>
<path fill-rule="evenodd" clip-rule="evenodd" d="M1738.01 993.983C1738.01 995.493 1736.79 996.719 1735.27 996.719C1733.77 996.719 1732.55 995.493 1732.55 993.983C1732.55 992.474 1733.77 991.248 1735.27 991.248C1736.79 991.248 1738.01 992.474 1738.01 993.983Z" fill="#9E9E9E"/>
<path fill-rule="evenodd" clip-rule="evenodd" d="M1574.75 986.436C1574.75 992.946 1569.47 998.225 1562.98 998.225C1556.47 998.225 1551.2 992.946 1551.2 986.436C1551.2 979.927 1556.47 974.648 1562.98 974.648C1569.47 974.648 1574.75 979.927 1574.75 986.436Z" fill="#209434"/>
<path fill-rule="evenodd" clip-rule="evenodd" d="M1269.49 992.078H1194.81C1192.85 992.078 1191.24 990.472 1191.24 988.507C1191.24 986.546 1192.85 984.935 1194.81 984.935H1269.49C1271.45 984.935 1273.05 986.546 1273.05 988.507C1273.05 990.472 1271.45 992.078 1269.49 992.078Z" fill="#C1C1C1"/>
<path fill-rule="evenodd" clip-rule="evenodd" d="M953.76 992.078H923.752C921.794 992.078 920.185 990.472 920.185 988.507C920.185 986.546 921.794 984.935 923.752 984.935H953.76C955.723 984.935 957.327 986.546 957.327 988.507C957.327 990.472 955.723 992.078 953.76 992.078Z" fill="#C1C1C1"/>
<path fill-rule="evenodd" clip-rule="evenodd" d="M352.461 990.005H229.1C227.137 990.005 225.533 988.399 225.533 986.434C225.533 984.473 227.137 982.867 229.1 982.867H352.461C354.424 982.867 356.028 984.473 356.028 986.434C356.028 988.399 354.424 990.005 352.461 990.005Z" fill="#C1C1C1"/>
<path fill-rule="evenodd" clip-rule="evenodd" d="M1035.62 681.788H804.753C802.329 681.788 800.35 679.802 800.35 677.38V642.076C800.35 639.65 802.329 637.669 804.753 637.669H1035.62C1038.04 637.669 1040.02 639.65 1040.02 642.076V677.38C1040.02 679.802 1038.04 681.788 1035.62 681.788Z" fill="#30374B"/>
<path fill-rule="evenodd" clip-rule="evenodd" d="M1000.28 664.134H837.951C835.527 664.134 833.549 662.148 833.549 659.727C833.549 657.3 835.527 655.32 837.951 655.32H1000.28C1002.71 655.32 1004.68 657.3 1004.68 659.727C1004.68 662.148 1002.71 664.134 1000.28 664.134Z" fill="white"/>
<path fill-rule="evenodd" clip-rule="evenodd" d="M986.247 581.413H874.181C871.762 581.413 869.779 579.427 869.779 577.005C869.779 574.579 871.762 572.598 874.181 572.598H986.247C988.671 572.598 990.65 574.579 990.65 577.005C990.65 579.427 988.671 581.413 986.247 581.413Z" fill="#30374B"/>
<path d="M1002.02 226.083H942.061V228.811H1002.02V226.083Z" fill="#30374B"/>
</g>
</g>
<defs>
<filter id="filter0_d" x="0" y="0" width="1816" height="1049" filterUnits="userSpaceOnUse" color-interpolation-filters="sRGB">
<feFlood flood-opacity="0" result="BackgroundImageFix"/>
<feColorMatrix in="SourceAlpha" type="matrix" values="0 0 0 0 0 0 0 0 0 0 0 0 0 0 0 0 0 0 127 0"/>
<feOffset dy="2"/>
<feGaussianBlur stdDeviation="5"/>
<feColorMatrix type="matrix" values="0 0 0 0 0 0 0 0 0 0 0 0 0 0 0 0 0 0 0.1 0"/>
<feBlend mode="normal" in2="BackgroundImageFix" result="effect1_dropShadow"/>
<feBlend mode="normal" in="SourceGraphic" in2="effect1_dropShadow" result="shape"/>
</filter>
<filter id="filter1_d" x="20.2863" y="20.2864" width="61.925" height="61.925" filterUnits="userSpaceOnUse" color-interpolation-filters="sRGB">
<feFlood flood-opacity="0" result="BackgroundImageFix"/>
<feColorMatrix in="SourceAlpha" type="matrix" values="0 0 0 0 0 0 0 0 0 0 0 0 0 0 0 0 0 0 127 0"/>
<feOffset dy="2"/>
<feGaussianBlur stdDeviation="5"/>
<feColorMatrix type="matrix" values="0 0 0 0 0 0 0 0 0 0 0 0 0 0 0 0 0 0 0.1 0"/>
<feBlend mode="normal" in2="BackgroundImageFix" result="effect1_dropShadow"/>
<feBlend mode="normal" in="SourceGraphic" in2="effect1_dropShadow" result="shape"/>
</filter>
<filter id="filter2_d" x="20.2863" y="73.0308" width="61.925" height="61.925" filterUnits="userSpaceOnUse" color-interpolation-filters="sRGB">
<feFlood flood-opacity="0" result="BackgroundImageFix"/>
<feColorMatrix in="SourceAlpha" type="matrix" values="0 0 0 0 0 0 0 0 0 0 0 0 0 0 0 0 0 0 127 0"/>
<feOffset dy="2"/>
<feGaussianBlur stdDeviation="5"/>
<feColorMatrix type="matrix" values="0 0 0 0 0 0 0 0 0 0 0 0 0 0 0 0 0 0 0.1 0"/>
<feBlend mode="normal" in2="BackgroundImageFix" result="effect1_dropShadow"/>
<feBlend mode="normal" in="SourceGraphic" in2="effect1_dropShadow" result="shape"/>
</filter>
<filter id="filter3_d" x="1203.65" y="20.2864" width="61.925" height="61.925" filterUnits="userSpaceOnUse" color-interpolation-filters="sRGB">
<feFlood flood-opacity="0" result="BackgroundImageFix"/>
<feColorMatrix in="SourceAlpha" type="matrix" values="0 0 0 0 0 0 0 0 0 0 0 0 0 0 0 0 0 0 127 0"/>
<feOffset dy="2"/>
<feGaussianBlur stdDeviation="5"/>
<feColorMatrix type="matrix" values="0 0 0 0 0 0 0 0 0 0 0 0 0 0 0 0 0 0 0.1 0"/>
<feBlend mode="normal" in2="BackgroundImageFix" result="effect1_dropShadow"/>
<feBlend mode="normal" in="SourceGraphic" in2="effect1_dropShadow" result="shape"/>
</filter>
<filter id="filter4_d" x="466.084" y="19.7864" width="365.867" height="54.8105" filterUnits="userSpaceOnUse" color-interpolation-filters="sRGB">
<feFlood flood-opacity="0" result="BackgroundImageFix"/>
<feColorMatrix in="SourceAlpha" type="matrix" values="0 0 0 0 0 0 0 0 0 0 0 0 0 0 0 0 0 0 127 0"/>
<feOffset dy="2"/>
<feGaussianBlur stdDeviation="5"/>
<feColorMatrix type="matrix" values="0 0 0 0 0 0 0 0 0 0 0 0 0 0 0 0 0 0 0.1 0"/>
<feBlend mode="normal" in2="BackgroundImageFix" result="effect1_dropShadow"/>
<feBlend mode="normal" in="SourceGraphic" in2="effect1_dropShadow" result="shape"/>
</filter>
<filter id="filter5_d" x="1203.65" y="73.0308" width="61.925" height="61.925" filterUnits="userSpaceOnUse" color-interpolation-filters="sRGB">
<feFlood flood-opacity="0" result="BackgroundImageFix"/>
<feColorMatrix in="SourceAlpha" type="matrix" values="0 0 0 0 0 0 0 0 0 0 0 0 0 0 0 0 0 0 127 0"/>
<feOffset dy="2"/>
<feGaussianBlur stdDeviation="5"/>
<feColorMatrix type="matrix" values="0 0 0 0 0 0 0 0 0 0 0 0 0 0 0 0 0 0 0.1 0"/>
<feBlend mode="normal" in2="BackgroundImageFix" result="effect1_dropShadow"/>
<feBlend mode="normal" in="SourceGraphic" in2="effect1_dropShadow" result="shape"/>
</filter>
<filter id="filter6_d" x="1203.65" y="125.775" width="61.925" height="61.925" filterUnits="userSpaceOnUse" color-interpolation-filters="sRGB">
<feFlood flood-opacity="0" result="BackgroundImageFix"/>
<feColorMatrix in="SourceAlpha" type="matrix" values="0 0 0 0 0 0 0 0 0 0 0 0 0 0 0 0 0 0 127 0"/>
<feOffset dy="2"/>
<feGaussianBlur stdDeviation="5"/>
<feColorMatrix type="matrix" values="0 0 0 0 0 0 0 0 0 0 0 0 0 0 0 0 0 0 0.1 0"/>
<feBlend mode="normal" in2="BackgroundImageFix" result="effect1_dropShadow"/>
<feBlend mode="normal" in="SourceGraphic" in2="effect1_dropShadow" result="shape"/>
</filter>
<filter id="filter7_d" x="1203.65" y="178.519" width="61.925" height="61.925" filterUnits="userSpaceOnUse" color-interpolation-filters="sRGB">
<feFlood flood-opacity="0" result="BackgroundImageFix"/>
<feColorMatrix in="SourceAlpha" type="matrix" values="0 0 0 0 0 0 0 0 0 0 0 0 0 0 0 0 0 0 127 0"/>
<feOffset dy="2"/>
<feGaussianBlur stdDeviation="5"/>
<feColorMatrix type="matrix" values="0 0 0 0 0 0 0 0 0 0 0 0 0 0 0 0 0 0 0.1 0"/>
<feBlend mode="normal" in2="BackgroundImageFix" result="effect1_dropShadow"/>
<feBlend mode="normal" in="SourceGraphic" in2="effect1_dropShadow" result="shape"/>
</filter>
<filter id="filter8_d" x="1203.65" y="231.263" width="61.925" height="61.925" filterUnits="userSpaceOnUse" color-interpolation-filters="sRGB">
<feFlood flood-opacity="0" result="BackgroundImageFix"/>
<feColorMatrix in="SourceAlpha" type="matrix" values="0 0 0 0 0 0 0 0 0 0 0 0 0 0 0 0 0 0 127 0"/>
<feOffset dy="2"/>
<feGaussianBlur stdDeviation="5"/>
<feColorMatrix type="matrix" values="0 0 0 0 0 0 0 0 0 0 0 0 0 0 0 0 0 0 0.1 0"/>
<feBlend mode="normal" in2="BackgroundImageFix" result="effect1_dropShadow"/>
<feBlend mode="normal" in="SourceGraphic" in2="effect1_dropShadow" result="shape"/>
</filter>
<filter id="filter9_d" x="160.787" y="160.788" width="1655.21" height="888.213" filterUnits="userSpaceOnUse" color-interpolation-filters="sRGB">
<feFlood flood-opacity="0" result="BackgroundImageFix"/>
<feColorMatrix in="SourceAlpha" type="matrix" values="0 0 0 0 0 0 0 0 0 0 0 0 0 0 0 0 0 0 127 0"/>
<feOffset dy="2"/>
<feGaussianBlur stdDeviation="5"/>
<feColorMatrix type="matrix" values="0 0 0 0 0 0 0 0 0 0 0 0 0 0 0 0 0 0 0.1 0"/>
<feBlend mode="normal" in2="BackgroundImageFix" result="effect1_dropShadow"/>
<feBlend mode="normal" in="SourceGraphic" in2="effect1_dropShadow" result="shape"/>
</filter>
<filter id="filter10_d" x="160.787" y="160.788" width="1655.21" height="114.347" filterUnits="userSpaceOnUse" color-interpolation-filters="sRGB">
<feFlood flood-opacity="0" result="BackgroundImageFix"/>
<feColorMatrix in="SourceAlpha" type="matrix" values="0 0 0 0 0 0 0 0 0 0 0 0 0 0 0 0 0 0 127 0"/>
<feOffset dy="2"/>
<feGaussianBlur stdDeviation="5"/>
<feColorMatrix type="matrix" values="0 0 0 0 0 0 0 0 0 0 0 0 0 0 0 0 0 0 0.1 0"/>
<feBlend mode="normal" in2="BackgroundImageFix" result="effect1_dropShadow"/>
<feBlend mode="normal" in="SourceGraphic" in2="effect1_dropShadow" result="shape"/>
</filter>
<filter id="filter11_d" x="1601.22" y="239.579" width="63.1141" height="63.136" filterUnits="userSpaceOnUse" color-interpolation-filters="sRGB">
<feFlood flood-opacity="0" result="BackgroundImageFix"/>
<feColorMatrix in="SourceAlpha" type="matrix" values="0 0 0 0 0 0 0 0 0 0 0 0 0 0 0 0 0 0 127 0"/>
<feOffset dy="2"/>
<feGaussianBlur stdDeviation="5"/>
<feColorMatrix type="matrix" values="0 0 0 0 0 0 0 0 0 0 0 0 0 0 0 0 0 0 0.1 0"/>
<feBlend mode="normal" in2="BackgroundImageFix" result="effect1_dropShadow"/>
<feBlend mode="normal" in="SourceGraphic" in2="effect1_dropShadow" result="shape"/>
</filter>
<filter id="filter12_d" x="1547.73" y="239.579" width="63.1141" height="63.136" filterUnits="userSpaceOnUse" color-interpolation-filters="sRGB">
<feFlood flood-opacity="0" result="BackgroundImageFix"/>
<feColorMatrix in="SourceAlpha" type="matrix" values="0 0 0 0 0 0 0 0 0 0 0 0 0 0 0 0 0 0 127 0"/>
<feOffset dy="2"/>
<feGaussianBlur stdDeviation="5"/>
<feColorMatrix type="matrix" values="0 0 0 0 0 0 0 0 0 0 0 0 0 0 0 0 0 0 0.1 0"/>
<feBlend mode="normal" in2="BackgroundImageFix" result="effect1_dropShadow"/>
<feBlend mode="normal" in="SourceGraphic" in2="effect1_dropShadow" result="shape"/>
</filter>
<filter id="filter13_d" x="191.278" y="239.579" width="223.349" height="63.136" filterUnits="userSpaceOnUse" color-interpolation-filters="sRGB">
<feFlood flood-opacity="0" result="BackgroundImageFix"/>
<feColorMatrix in="SourceAlpha" type="matrix" values="0 0 0 0 0 0 0 0 0 0 0 0 0 0 0 0 0 0 127 0"/>
<feOffset dy="2"/>
<feGaussianBlur stdDeviation="5"/>
<feColorMatrix type="matrix" values="0 0 0 0 0 0 0 0 0 0 0 0 0 0 0 0 0 0 0.1 0"/>
<feBlend mode="normal" in2="BackgroundImageFix" result="effect1_dropShadow"/>
<feBlend mode="normal" in="SourceGraphic" in2="effect1_dropShadow" result="shape"/>
</filter>
<filter id="filter14_d" x="411.853" y="239.579" width="223.344" height="63.136" filterUnits="userSpaceOnUse" color-interpolation-filters="sRGB">
<feFlood flood-opacity="0" result="BackgroundImageFix"/>
<feColorMatrix in="SourceAlpha" type="matrix" values="0 0 0 0 0 0 0 0 0 0 0 0 0 0 0 0 0 0 127 0"/>
<feOffset dy="2"/>
<feGaussianBlur stdDeviation="5"/>
<feColorMatrix type="matrix" values="0 0 0 0 0 0 0 0 0 0 0 0 0 0 0 0 0 0 0.1 0"/>
<feBlend mode="normal" in2="BackgroundImageFix" result="effect1_dropShadow"/>
<feBlend mode="normal" in="SourceGraphic" in2="effect1_dropShadow" result="shape"/>
</filter>
<filter id="filter15_d" x="1288.67" y="306.829" width="499.501" height="567.491" filterUnits="userSpaceOnUse" color-interpolation-filters="sRGB">
<feFlood flood-opacity="0" result="BackgroundImageFix"/>
<feColorMatrix in="SourceAlpha" type="matrix" values="0 0 0 0 0 0 0 0 0 0 0 0 0 0 0 0 0 0 127 0"/>
<feOffset dy="2"/>
<feGaussianBlur stdDeviation="5"/>
<feColorMatrix type="matrix" values="0 0 0 0 0 0 0 0 0 0 0 0 0 0 0 0 0 0 0.1 0"/>
<feBlend mode="normal" in2="BackgroundImageFix" result="effect1_dropShadow"/>
<feBlend mode="normal" in="SourceGraphic" in2="effect1_dropShadow" result="shape"/>
</filter>
<filter id="filter16_d" x="1288.67" y="348.506" width="499.501" height="61.6821" filterUnits="userSpaceOnUse" color-interpolation-filters="sRGB">
<feFlood flood-opacity="0" result="BackgroundImageFix"/>
<feColorMatrix in="SourceAlpha" type="matrix" values="0 0 0 0 0 0 0 0 0 0 0 0 0 0 0 0 0 0 127 0"/>
<feOffset dy="2"/>
<feGaussianBlur stdDeviation="5"/>
<feColorMatrix type="matrix" values="0 0 0 0 0 0 0 0 0 0 0 0 0 0 0 0 0 0 0.1 0"/>
<feBlend mode="normal" in2="BackgroundImageFix" result="effect1_dropShadow"/>
<feBlend mode="normal" in="SourceGraphic" in2="effect1_dropShadow" result="shape"/>
</filter>
<filter id="filter17_d" x="190.615" y="306.824" width="1065.45" height="563.104" filterUnits="userSpaceOnUse" color-interpolation-filters="sRGB">
<feFlood flood-opacity="0" result="BackgroundImageFix"/>
<feColorMatrix in="SourceAlpha" type="matrix" values="0 0 0 0 0 0 0 0 0 0 0 0 0 0 0 0 0 0 127 0"/>
<feOffset dy="2"/>
<feGaussianBlur stdDeviation="5"/>
<feColorMatrix type="matrix" values="0 0 0 0 0 0 0 0 0 0 0 0 0 0 0 0 0 0 0.1 0"/>
<feBlend mode="normal" in2="BackgroundImageFix" result="effect1_dropShadow"/>
<feBlend mode="normal" in="SourceGraphic" in2="effect1_dropShadow" result="shape"/>
</filter>
<filter id="filter18_d" x="203.969" y="735.712" width="413.101" height="117.696" filterUnits="userSpaceOnUse" color-interpolation-filters="sRGB">
<feFlood flood-opacity="0" result="BackgroundImageFix"/>
<feColorMatrix in="SourceAlpha" type="matrix" values="0 0 0 0 0 0 0 0 0 0 0 0 0 0 0 0 0 0 127 0"/>
<feOffset dy="2"/>
<feGaussianBlur stdDeviation="5"/>
<feColorMatrix type="matrix" values="0 0 0 0 0 0 0 0 0 0 0 0 0 0 0 0 0 0 0.1 0"/>
<feBlend mode="normal" in2="BackgroundImageFix" result="effect1_dropShadow"/>
<feBlend mode="normal" in="SourceGraphic" in2="effect1_dropShadow" result="shape"/>
</filter>
</defs>
</svg>
