<svg width="70" height="70" viewBox="0 0 70 70" fill="none" xmlns="http://www.w3.org/2000/svg">
<circle opacity="0.7" cx="41.5" cy="28.5" r="18.5" fill="url(#paint0_linear)"/>
<path fill-rule="evenodd" clip-rule="evenodd" d="M21.1493 48.8677C16.8783 48.8677 13.4306 45.42 13.4306 41.149C13.4306 36.8779 16.8783 33.4303 21.1493 33.4303C25.4203 33.4303 28.868 36.8779 28.868 41.149C28.868 45.42 25.4203 48.8677 21.1493 48.8677V48.8677ZM31.4408 48.8679H30.0858L29.6055 48.4048C31.2864 46.4494 32.2985 43.9108 32.2985 41.1492C32.2985 34.9914 27.307 30 21.1492 30C14.9914 30 10 34.9914 10 41.1492C10 47.307 14.9914 52.2985 21.1492 52.2985C23.9108 52.2985 26.4494 51.2864 28.4048 49.6055L28.8679 50.0858V51.4408L37.4443 60L40 57.4443L31.4408 48.8679Z" fill="#2F374A"/>
<defs>
<linearGradient id="paint0_linear" x1="56.375" y1="17.3125" x2="27.5" y2="39.625" gradientUnits="userSpaceOnUse">
<stop stop-color="#B6D4FF"/>
<stop offset="1" stop-color="#B6D4FF" stop-opacity="0"/>
</linearGradient>
</defs>
</svg>
