<svg width="117" height="92" viewBox="0 0 117 92" fill="none" xmlns="http://www.w3.org/2000/svg">
<rect x="25.4847" y="1.62729" width="62.0467" height="9.19393" rx="4.59696" fill="#F0F0F0"/>
<rect x="95.6246" y="1.62729" width="11.6899" height="9.19393" rx="4.59696" fill="#F0F0F0"/>
<rect x="32.6786" y="20.0152" width="83.6281" height="9.19393" rx="4.59696" fill="#F0F0F0"/>
<path fill-rule="evenodd" clip-rule="evenodd" d="M53.2606 20.0151H85.834C83.2952 20.0151 81.2371 17.957 81.2371 15.4182C81.2371 12.8793 83.2952 10.8212 85.834 10.8212H53.2606C55.7995 10.8212 57.8576 12.8793 57.8576 15.4182C57.8576 17.957 55.7995 20.0151 53.2606 20.0151Z" fill="#F0F0F0"/>
<rect x="99.2216" y="47.5969" width="98.915" height="9.19392" rx="4.59696" transform="rotate(-180 99.2216 47.5969)" fill="#F0F0F0"/>
<rect x="97.4233" y="65.9848" width="89.9227" height="9.19392" rx="4.59696" transform="rotate(-180 97.4233 65.9848)" fill="#F0F0F0"/>
<rect x="96.5238" y="84.3726" width="53.0544" height="9.19392" rx="4.59696" transform="rotate(-180 96.5238 84.3726)" fill="#F0F0F0"/>
<path fill-rule="evenodd" clip-rule="evenodd" d="M95.5354 65.9848C95.5314 65.9848 95.5274 65.9848 95.5234 65.9848L37.2753 65.9847L37.261 65.9848L49.6632 65.9848C52.202 65.9848 54.2602 68.0429 54.2602 70.5817C54.2602 73.1158 52.2098 75.1709 49.6775 75.1787L82.2249 75.1787C79.6916 75.1722 77.6399 73.1165 77.6399 70.5817C77.6399 68.0429 79.6981 65.9848 82.2369 65.9848L95.5354 65.9848Z" fill="#F0F0F0"/>
<path fill-rule="evenodd" clip-rule="evenodd" d="M42.5701 33.8061C42.5701 36.3438 40.5138 38.4012 37.9765 38.403L87.4304 38.403C87.4641 38.403 87.4977 38.4027 87.5312 38.4019C85.0389 38.3483 83.035 36.3112 83.035 33.8061C83.035 31.3009 85.0389 29.2638 87.5312 29.2102C87.4977 29.2095 87.4641 29.2091 87.4304 29.2091L29.1823 29.2091L29.1771 29.2091L37.9732 29.2091C40.512 29.2091 42.5701 31.2672 42.5701 33.8061Z" fill="#F0F0F0"/>
<path fill-rule="evenodd" clip-rule="evenodd" d="M80.4383 47.5969L0.40725 47.5969L0.403015 47.5969L21.7871 47.5969C24.3259 47.5969 26.384 49.655 26.384 52.1939C26.384 54.7327 24.3259 56.7908 21.7871 56.7908L80.4383 56.7908C77.8995 56.7908 75.8414 54.7327 75.8414 52.1939C75.8414 49.655 77.8995 47.5969 80.4383 47.5969Z" fill="#F0F0F0"/>
<path d="M110.27 62.5038L58.2228 89.3771L12.4243 63.5235L64.4751 36.6502L110.27 62.5038Z" stroke="#406098"/>
<path d="M109.218 62.4842L58.2334 88.8089L13.4762 63.5432L64.4645 37.2184L109.218 62.4842Z" stroke="#406098" stroke-width="2"/>
<path d="M111.322 62.9825L111.322 29.3125" stroke="#406098" stroke-width="2"/>
<path d="M64.4833 36.3726L64.4833 3.4375" stroke="#406098" stroke-width="2"/>
<circle cx="111.322" cy="62.5226" r="1.5" fill="white" stroke="#406098" stroke-width="2"/>
<circle cx="64.4833" cy="36.7172" r="1.5" fill="white" stroke="#406098" stroke-width="2"/>
<path d="M11.3802 63.5V30.2539" stroke="#406098" stroke-width="2"/>
<circle cx="11.3724" cy="63.5031" r="1.5" fill="white" stroke="#406098" stroke-width="2"/>
<circle cx="11.3724" cy="29.5749" r="1.5" fill="white" stroke="#406098" stroke-width="2"/>
<ellipse cx="51.1818" cy="67.3096" rx="4.72412" ry="3.0319" fill="#CEE0FA"/>
<ellipse cx="61.2178" cy="61.2458" rx="4.72412" ry="3.0319" fill="#CEE0FA"/>
<ellipse cx="71.512" cy="55.182" rx="4.72412" ry="3.0319" fill="#CEE0FA"/>
<ellipse cx="81.4773" cy="48.7976" rx="4.72412" ry="3.0319" fill="#CEE0FA"/>
<ellipse cx="60.9592" cy="72.9973" rx="4.72412" ry="3.0319" fill="#CEE0FA"/>
<ellipse cx="70.9949" cy="66.9335" rx="4.72412" ry="3.0319" fill="#CEE0FA"/>
<ellipse cx="81.2895" cy="60.8697" rx="4.72412" ry="3.0319" fill="#CEE0FA"/>
<ellipse cx="91.2546" cy="54.4853" rx="4.72412" ry="3.0319" fill="#CEE0FA"/>
<ellipse cx="41.4047" cy="61.6387" rx="4.72412" ry="3.0319" fill="#CEE0FA"/>
<ellipse cx="51.4402" cy="55.5749" rx="4.72412" ry="3.0319" fill="#CEE0FA"/>
<ellipse cx="61.7349" cy="49.5111" rx="4.72412" ry="3.0319" fill="#CEE0FA"/>
<ellipse cx="71.6999" cy="43.1267" rx="4.72412" ry="3.0319" fill="#CEE0FA"/>
<ellipse cx="31.4392" cy="55.8569" rx="4.72412" ry="3.0319" fill="#CEE0FA"/>
<ellipse cx="41.4752" cy="49.7931" rx="4.72412" ry="3.0319" fill="#CEE0FA"/>
<ellipse cx="51.7694" cy="43.7294" rx="4.72412" ry="3.0319" fill="#CEE0FA"/>
<ellipse cx="61.7349" cy="37.3449" rx="4.72412" ry="3.0319" fill="#CEE0FA"/>
<path d="M58.2084 90.0665V55.9375" stroke="#406098" stroke-width="2"/>
<circle cx="58.2084" cy="88.9141" r="1.5" fill="white" stroke="#406098" stroke-width="2"/>
<path d="M109.218 29.2369L58.2334 55.5617L13.4762 30.2959L64.4645 3.97112L109.218 29.2369Z" stroke="#406098" stroke-width="2"/>
<circle cx="58.2084" cy="55.3609" r="1.5" fill="white" stroke="#406098" stroke-width="2"/>
<circle cx="64.4833" cy="2.78903" r="1.5" fill="white" stroke="#406098" stroke-width="2"/>
<circle cx="111.322" cy="29.0656" r="1.5" fill="white" stroke="#406098" stroke-width="2"/>
<path d="M58.0954 67.422L3.08728 36.207L3.08728 29.7695L40.4455 17.3789L95.5354 42.1133V48.582L58.0954 67.422Z" fill="#2F374A"/>
<path d="M58.0954 60.9533L3.08728 29.7637L34.7268 13.7856L40.0862 14.2543L45.5393 13.7973L95.5354 42.1133L58.0954 60.9533Z" fill="#434E69"/>
<path d="M40.3683 58.7142L30.7186 53.2305L30.7186 46.7891L40.3683 52.2539V58.7142Z" fill="#DAA340"/>
<path d="M40.3723 52.2553L30.7229 46.789L57.6409 33.2344L67.305 38.7082L40.3723 52.2553Z" fill="#FAD687"/>
<path d="M41.6487 58.0859L40.3713 58.7031V52.2578L41.6487 51.6094V58.0859Z" fill="#E3B155"/>
<path d="M41.4901 53.1275L40.3713 52.2553L67.2971 38.7109L67.2971 40.1445L41.4901 53.1275Z" fill="#E3B155"/>
<path d="M34.719 14.9688V13.7891L39.8206 18.3164V19.5312L34.719 14.9688Z" fill="#DAA340"/>
<path d="M45.5393 14.9688V13.7891L39.8206 18.3164V19.5312L45.5393 14.9688Z" fill="#E3B155"/>
<path d="M45.5354 13.7856H34.7229L39.8309 18.3343L45.5354 13.7856Z" fill="#FAD687"/>
</svg>
