<svg width="70" height="71" viewBox="0 0 70 71" fill="none" xmlns="http://www.w3.org/2000/svg">
<path opacity="0.7" d="M60 29.3229C60 39.5402 51.7173 47.8229 41.5 47.8229C31.2827 47.8229 23 39.5402 23 29.3229C23 19.1056 31.2827 10.8229 41.5 10.8229C51.7173 10.8229 60 19.1056 60 29.3229Z" fill="url(#paint0_linear)"/>
<path d="M10 26.75H44V60.8229H10V26.75Z" fill="#F7F7F7"/>
<path fill-rule="evenodd" clip-rule="evenodd" d="M16.9173 33.7324V34.8151H16V32.8151H18V33.7324H16.9173ZM20.5866 32.8151H18.752V34.8151H20.5866V32.8151ZM16 52.8307V54.8307H18V53.9134H16.9173V52.8307H16ZM36.0156 54.8307H38.0156V52.8307H37.0983V53.9134H36.0156V54.8307ZM38.0156 34.8151V32.8151H36.0156V33.7324H37.0983V34.8151H38.0156ZM22.4212 32.8151V34.8151H24.2559V32.8151H22.4212ZM26.0905 32.8151V34.8151H27.9251V32.8151H26.0905ZM29.7598 32.8151V34.8151H31.5944V32.8151H29.7598ZM33.429 32.8151V34.8151H35.2637V32.8151H33.429ZM38.0156 35.567H36.0156V37.4017H38.0156V35.567ZM38.0156 39.2363H36.0156V41.0709H38.0156V39.2363ZM38.0156 42.9056H36.0156V44.7402H38.0156V42.9056ZM38.0156 46.5748H36.0156V48.4095H38.0156V46.5748ZM38.0156 50.2441H36.0156V52.0787H38.0156V50.2441ZM35.2637 54.8307V52.8307H33.429V54.8307H35.2637ZM31.5944 54.8307V52.8307H29.7598V54.8307H31.5944ZM27.9251 54.8307V52.8307H26.0905V54.8307H27.9251ZM24.2559 54.8307V52.8307H22.4212V54.8307H24.2559ZM20.5866 54.8307V52.8307H18.752V54.8307H20.5866ZM16 52.0787H18V50.2441H16V52.0787ZM16 48.4095H18V46.5748H16V48.4095ZM16 44.7402H18V42.9056H16V44.7402ZM16 41.0709H18V39.2363H16V41.0709ZM16 37.4017H18V35.567H16V37.4017Z" fill="#2F374A"/>
<path d="M10 26.75H16V32.75H10V26.75Z" fill="#D8D8D8"/>
<path d="M10 54.8229H16V60.8229H10V54.8229Z" fill="#D8D8D8"/>
<path d="M38 26.75H44V32.75H38V26.75Z" fill="#D8D8D8"/>
<path d="M38 54.8229H44V60.8229H38V54.8229Z" fill="#D8D8D8"/>
<defs>
<linearGradient id="paint0_linear" x1="56.375" y1="18.1354" x2="27.5" y2="40.4479" gradientUnits="userSpaceOnUse">
<stop stop-color="#B6D4FF"/>
<stop offset="1" stop-color="#B6D4FF" stop-opacity="0"/>
</linearGradient>
</defs>
</svg>
