<svg width="70" height="70" viewBox="0 0 70 70" fill="none" xmlns="http://www.w3.org/2000/svg">
<rect width="70" height="70" fill="white"/>
<circle opacity="0.7" cx="47.9688" cy="22.0312" r="18.5" fill="url(#paint0_linear)"/>
<path fill-rule="evenodd" clip-rule="evenodd" d="M31.1031 38.9141C26.7809 38.9141 23.2918 35.425 23.2918 31.1027C23.2918 26.7805 26.7809 23.2914 31.1031 23.2914C35.4254 23.2914 38.9144 26.7805 38.9144 31.1027C38.9144 35.425 35.4254 38.9141 31.1031 38.9141ZM41.5182 38.9143H40.1469L39.6608 38.4457C41.362 36.4668 42.3861 33.8977 42.3861 31.103C42.3861 24.8713 37.3348 19.82 31.1031 19.82C24.8714 19.82 19.8201 24.8713 19.8201 31.103C19.8201 37.3347 24.8714 42.386 31.1031 42.386C33.8978 42.386 36.4669 41.3619 38.4457 39.6608L38.9144 40.1468V41.5181L47.5937 50.18L50.1801 47.5936L41.5182 38.9143Z" fill="#2F374A"/>
<defs>
<linearGradient id="paint0_linear" x1="62.8437" y1="10.8437" x2="33.9688" y2="33.1562" gradientUnits="userSpaceOnUse">
<stop stop-color="#B6D4FF"/>
<stop offset="1" stop-color="#B6D4FF" stop-opacity="0"/>
</linearGradient>
</defs>
</svg>
