<svg width="70" height="70" viewBox="0 0 70 70" fill="none" xmlns="http://www.w3.org/2000/svg">
<rect width="70" height="70" fill="white"/>
<circle opacity="0.7" cx="48" cy="22.0938" r="18.5" fill="url(#paint0_linear)"/>
<rect x="19.8203" y="19.8203" width="30.3594" height="30.3594" rx="5" fill="#2F374A"/>
<path fill-rule="evenodd" clip-rule="evenodd" d="M33.6477 28.9091C33.8295 28.9091 33.9204 28.7273 33.9204 28.6364V25.2727C33.9204 25.0909 33.7386 25 33.6477 25C33.5568 25 33.2841 25.0909 33.2841 25.2727V28.5455C33.2841 28.8182 33.4659 28.9091 33.6477 28.9091ZM43.6477 40.0909L38.4659 35.9091L33.2841 31.6364L33.375 38.2727V45L37.2841 39.9091L43.6477 40.0909ZM38.5568 27.4545L36.1932 29.8182C36.1023 29.9091 35.8295 29.9091 35.7386 29.8182C35.6477 29.7273 35.6477 29.4545 35.7386 29.3636L38.1023 27C38.1932 26.9091 38.4659 26.9091 38.5568 27C38.6477 27.0909 38.6477 27.3636 38.5568 27.4545ZM31.1023 34L28.7387 36.3637C28.6477 36.4546 28.6477 36.7273 28.7387 36.8182C28.8296 36.9091 29.1023 36.9091 29.1932 36.8182L31.5568 34.4546C31.6477 34.3637 31.6477 34.0909 31.5568 34C31.375 33.9091 31.1932 33.9091 31.1023 34ZM36.9204 32.1818C36.8295 32.1818 36.6477 32.0909 36.6477 31.9091C36.6477 31.7273 36.7386 31.5455 36.9204 31.6364H40.1931C40.284 31.6364 40.4658 31.7273 40.4658 31.9091C40.4658 32 40.3749 32.1818 40.1931 32.1818H36.9204ZM30.6477 31.9091C30.6477 31.7273 30.4659 31.6364 30.375 31.6364H27.0114C26.8296 31.5455 26.7386 31.7273 26.7386 31.9091C26.7386 32.0909 26.9205 32.1818 27.0114 32.1818H30.2841C30.4659 32.1818 30.6477 32.0909 30.6477 31.9091ZM28.7387 27C28.8296 26.9091 29.1023 26.9091 29.1932 27L31.5568 29.3636C31.6477 29.4545 31.6477 29.7273 31.5568 29.8182C31.375 29.9091 31.1932 29.9091 31.1023 29.8182L28.7387 27.4545C28.6477 27.3636 28.6477 27.1818 28.7387 27Z" fill="white"/>
<defs>
<linearGradient id="paint0_linear" x1="62.875" y1="10.9063" x2="34" y2="33.2188" gradientUnits="userSpaceOnUse">
<stop stop-color="#B6D4FF"/>
<stop offset="1" stop-color="#B6D4FF" stop-opacity="0"/>
</linearGradient>
</defs>
</svg>
