<svg width="70" height="70" viewBox="0 0 70 70" fill="none" xmlns="http://www.w3.org/2000/svg">
<path opacity="0.7" d="M60 28.5C60 38.7173 51.7173 47 41.5 47C31.2827 47 23 38.7173 23 28.5C23 18.2827 31.2827 10 41.5 10C51.7173 10 60 18.2827 60 28.5Z" fill="url(#paint0_linear)"/>
<path d="M10 31C10 29.8954 10.8954 29 12 29H39C40.1046 29 41 29.8954 41 31V58C41 59.1046 40.1046 60 39 60H12C10.8954 60 10 59.1046 10 58V31Z" fill="#2F374A"/>
<path d="M14.79 36.5399V34.4657L22.6387 37.7353V39.414L14.79 42.6923V40.6093L20.0635 38.7372L20.6348 38.5614L20.0635 38.3769L14.79 36.5399Z" fill="white"/>
<path d="M31.502 45.8124H23.4336V44.1601H31.502V45.8124Z" fill="white"/>
<defs>
<linearGradient id="paint0_linear" x1="56.375" y1="17.3125" x2="27.5" y2="39.625" gradientUnits="userSpaceOnUse">
<stop stop-color="#B6D4FF"/>
<stop offset="1" stop-color="#B6D4FF" stop-opacity="0"/>
</linearGradient>
</defs>
</svg>
