<svg width="70" height="71" viewBox="0 0 70 71" fill="none" xmlns="http://www.w3.org/2000/svg">
<path opacity="0.7" d="M60 29.3229C60 39.5402 51.7173 47.8229 41.5 47.8229C31.2827 47.8229 23 39.5402 23 29.3229C23 19.1056 31.2827 10.8229 41.5 10.8229C51.7173 10.8229 60 19.1056 60 29.3229Z" fill="url(#paint0_linear)"/>
<path d="M10.0078 26.8229H44.0078V60.8229H10.0078V26.8229Z" fill="#F7F7F7"/>
<path fill-rule="evenodd" clip-rule="evenodd" d="M10.9523 27.7673V28.8229H10.0078V26.8229H12.0078V27.7673H10.9523ZM14.73 26.8229H12.8411V28.8229H14.73V26.8229ZM10.0078 58.8229V60.8229H12.0078V59.8784H10.9523V58.8229H10.0078ZM42.0078 60.8229H44.0078V58.8229H43.0634V59.8784H42.0078V60.8229ZM44.0078 28.8229V26.8229H42.0078V27.7673H43.0634V28.8229H44.0078ZM16.6189 26.8229V28.8229H18.5078V26.8229H16.6189ZM20.3967 26.8229V28.8229H22.2856V26.8229H20.3967ZM24.1745 26.8229V28.8229H26.0634V26.8229H24.1745ZM27.9523 26.8229V28.8229H29.8411V26.8229H27.9523ZM31.73 26.8229V28.8229H33.6189V26.8229H31.73ZM35.5078 26.8229V28.8229H37.3967V26.8229H35.5078ZM39.2856 26.8229V28.8229H41.1745V26.8229H39.2856ZM44.0078 29.6562H42.0078V31.5451H44.0078V29.6562ZM44.0078 33.434H42.0078V35.3229H44.0078V33.434ZM44.0078 37.2118H42.0078V39.1007H44.0078V37.2118ZM44.0078 40.9895H42.0078V42.8784H44.0078V40.9895ZM44.0078 44.7673H42.0078V46.6562H44.0078V44.7673ZM44.0078 48.5451H42.0078V50.434H44.0078V48.5451ZM44.0078 52.3229H42.0078V54.2118H44.0078V52.3229ZM44.0078 56.1007H42.0078V57.9895H44.0078V56.1007ZM41.1745 60.8229V58.8229H39.2856V60.8229H41.1745ZM37.3967 60.8229V58.8229H35.5078V60.8229H37.3967ZM33.6189 60.8229V58.8229H31.73V60.8229H33.6189ZM29.8411 60.8229V58.8229H27.9523V60.8229H29.8411ZM26.0634 60.8229V58.8229H24.1745V60.8229H26.0634ZM22.2856 60.8229V58.8229H20.3967V60.8229H22.2856ZM18.5078 60.8229V58.8229H16.6189V60.8229H18.5078ZM14.73 60.8229V58.8229H12.8411V60.8229H14.73ZM10.0078 57.9895H12.0078V56.1007H10.0078V57.9895ZM10.0078 54.2118H12.0078V52.3229H10.0078V54.2118ZM10.0078 50.434H12.0078V48.5451H10.0078V50.434ZM10.0078 46.6562H12.0078V44.7673H10.0078V46.6562ZM10.0078 42.8784H12.0078V40.9895H10.0078V42.8784ZM10.0078 39.1007H12.0078V37.2118H10.0078V39.1007ZM10.0078 35.3229H12.0078V33.434H10.0078V35.3229ZM10.0078 31.5451H12.0078V29.6562H10.0078V31.5451Z" fill="#2F374A"/>
<path d="M12.005 28.8268H18.005V34.8268H12.005V28.8268Z" fill="#D8D8D8"/>
<path d="M11.9972 52.8229H17.9972V58.8229H11.9972V52.8229Z" fill="#D8D8D8"/>
<path d="M35.994 28.8307H41.994V34.8307H35.994V28.8307Z" fill="#D8D8D8"/>
<path d="M36.0078 52.8229H42.0078V58.8229H36.0078V52.8229Z" fill="#D8D8D8"/>
<defs>
<linearGradient id="paint0_linear" x1="56.375" y1="18.1354" x2="27.5" y2="40.4479" gradientUnits="userSpaceOnUse">
<stop stop-color="#B6D4FF"/>
<stop offset="1" stop-color="#B6D4FF" stop-opacity="0"/>
</linearGradient>
</defs>
</svg>
