<svg width="70" height="70" viewBox="0 0 70 70" fill="none" xmlns="http://www.w3.org/2000/svg">
<g clip-path="url(#clip0)">
<path opacity="0.7" d="M60 28.5C60 38.7173 51.7173 47 41.5 47C31.2827 47 23 38.7173 23 28.5C23 18.2827 31.2827 10 41.5 10C51.7173 10 60 18.2827 60 28.5Z" fill="url(#paint0_linear)"/>
<path d="M10 25.9271H44V60H10V25.9271Z" fill="#F7F7F7"/>
<mask id="mask0" mask-type="alpha" maskUnits="userSpaceOnUse" x="-10" y="2" width="73" height="73">
<path fill-rule="evenodd" clip-rule="evenodd" d="M-9.88052 41.2756L29.2755 2.11954L29.9826 2.82664L-9.17341 41.9827L-9.88052 41.2756Z" fill="#2F374A"/>
<path fill-rule="evenodd" clip-rule="evenodd" d="M1.4332 52.5893L40.5892 13.4333L41.2963 14.1404L2.14031 53.2964L1.4332 52.5893Z" fill="#2F374A"/>
<path fill-rule="evenodd" clip-rule="evenodd" d="M12.7469 63.903L51.903 24.7469L52.6101 25.4541L13.454 64.6101L12.7469 63.903Z" fill="#2F374A"/>
<path fill-rule="evenodd" clip-rule="evenodd" d="M-4.22366 46.9324L34.9324 7.7764L35.6395 8.4835L-3.51655 47.6395L-4.22366 46.9324Z" fill="#2F374A"/>
<path fill-rule="evenodd" clip-rule="evenodd" d="M7.09006 58.2461L46.2461 19.0901L46.9532 19.7972L7.79717 58.9532L7.09006 58.2461Z" fill="#2F374A"/>
<path fill-rule="evenodd" clip-rule="evenodd" d="M18.4038 69.5598L57.5598 30.4038L58.2669 31.1109L19.1109 70.267L18.4038 69.5598Z" fill="#2F374A"/>
<path fill-rule="evenodd" clip-rule="evenodd" d="M-7.05215 44.104L32.1039 4.94797L32.811 5.65507L-6.34505 44.8111L-7.05215 44.104Z" fill="#2F374A"/>
<path fill-rule="evenodd" clip-rule="evenodd" d="M4.26157 55.4177L43.4176 16.2617L44.1247 16.9688L4.96868 56.1248L4.26157 55.4177Z" fill="#2F374A"/>
<path fill-rule="evenodd" clip-rule="evenodd" d="M15.5753 66.7314L54.7313 27.5754L55.4384 28.2825L16.2824 67.4385L15.5753 66.7314Z" fill="#2F374A"/>
<path fill-rule="evenodd" clip-rule="evenodd" d="M-1.39529 49.7609L37.7607 10.6048L38.4678 11.3119L-0.688185 50.468L-1.39529 49.7609Z" fill="#2F374A"/>
<path fill-rule="evenodd" clip-rule="evenodd" d="M9.91843 61.0746L49.0745 21.9185L49.7816 22.6256L10.6255 61.7817L9.91843 61.0746Z" fill="#2F374A"/>
<path fill-rule="evenodd" clip-rule="evenodd" d="M21.2321 72.3883L60.3882 33.2322L61.0953 33.9393L21.9393 73.0954L21.2321 72.3883Z" fill="#2F374A"/>
<path fill-rule="evenodd" clip-rule="evenodd" d="M-8.46634 42.6898L30.6897 3.53375L31.3968 4.24086L-7.75923 43.3969L-8.46634 42.6898Z" fill="#2F374A"/>
<path fill-rule="evenodd" clip-rule="evenodd" d="M2.84738 54.0035L42.0034 14.8475L42.7105 15.5546L3.55449 54.7106L2.84738 54.0035Z" fill="#2F374A"/>
<path fill-rule="evenodd" clip-rule="evenodd" d="M14.1611 65.3172L53.3171 26.1612L54.0242 26.8683L14.8682 66.0243L14.1611 65.3172Z" fill="#2F374A"/>
<path fill-rule="evenodd" clip-rule="evenodd" d="M-2.80948 48.3467L36.3466 9.19061L37.0537 9.89772L-2.10237 49.0538L-2.80948 48.3467Z" fill="#2F374A"/>
<path fill-rule="evenodd" clip-rule="evenodd" d="M8.50424 59.6604L47.6603 20.5043L48.3674 21.2114L9.21135 60.3675L8.50424 59.6604Z" fill="#2F374A"/>
<path fill-rule="evenodd" clip-rule="evenodd" d="M19.818 70.974L58.974 31.818L59.6811 32.5251L20.5251 71.6811L19.818 70.974Z" fill="#2F374A"/>
<path fill-rule="evenodd" clip-rule="evenodd" d="M-5.63785 45.5182L33.5182 6.36218L34.2253 7.06929L-4.93074 46.2253L-5.63785 45.5182Z" fill="#2F374A"/>
<path fill-rule="evenodd" clip-rule="evenodd" d="M5.67588 56.8319L44.8319 17.6759L45.539 18.383L6.38298 57.5391L5.67588 56.8319Z" fill="#2F374A"/>
<path fill-rule="evenodd" clip-rule="evenodd" d="M16.9896 68.1457L56.1456 28.9896L56.8527 29.6967L17.6967 68.8528L16.9896 68.1457Z" fill="#2F374A"/>
<path fill-rule="evenodd" clip-rule="evenodd" d="M0.0190148 51.1751L39.175 12.019L39.8822 12.7261L0.726122 51.8822L0.0190148 51.1751Z" fill="#2F374A"/>
<path fill-rule="evenodd" clip-rule="evenodd" d="M11.3327 62.4888L50.4888 23.3328L51.1959 24.0399L12.0398 63.1959L11.3327 62.4888Z" fill="#2F374A"/>
<path fill-rule="evenodd" clip-rule="evenodd" d="M22.6463 73.8025L61.8024 34.6464L62.5095 35.3535L23.3534 74.5096L22.6463 73.8025Z" fill="#2F374A"/>
</mask>
<g mask="url(#mask0)">
<path d="M15.9542 31.9271H38.1143V54H15.9542V31.9271Z" fill="#2F374A"/>
</g>
<path d="M10 25.9271H16V31.9271H10V25.9271Z" fill="#D8D8D8"/>
<path d="M10 54H16V60H10V54Z" fill="#D8D8D8"/>
<path d="M38 25.9271H44V31.9271H38V25.9271Z" fill="#D8D8D8"/>
<path d="M38 54H44V60H38V54Z" fill="#D8D8D8"/>
</g>
<defs>
<linearGradient id="paint0_linear" x1="56.375" y1="17.3125" x2="27.5" y2="39.625" gradientUnits="userSpaceOnUse">
<stop stop-color="#B6D4FF"/>
<stop offset="1" stop-color="#B6D4FF" stop-opacity="0"/>
</linearGradient>
<clipPath id="clip0">
<rect width="70" height="70" fill="white"/>
</clipPath>
</defs>
</svg>
