<svg width="117" height="92" viewBox="0 0 117 92" fill="none" xmlns="http://www.w3.org/2000/svg">
<rect x="25.7915" y="1.53761" width="62.0467" height="9.19393" rx="4.59696" fill="#F0F0F0"/>
<rect x="95.9316" y="1.53761" width="11.6899" height="9.19393" rx="4.59696" fill="#F0F0F0"/>
<rect x="32.9856" y="19.9255" width="83.6281" height="9.19393" rx="4.59696" fill="#F0F0F0"/>
<path fill-rule="evenodd" clip-rule="evenodd" d="M53.5676 19.9255H86.141C83.6022 19.9255 81.5441 17.8673 81.5441 15.3285C81.5441 12.7897 83.6022 10.7315 86.141 10.7315H53.5676C56.1065 10.7315 58.1646 12.7897 58.1646 15.3285C58.1646 17.8673 56.1065 19.9255 53.5676 19.9255Z" fill="#F0F0F0"/>
<rect x="99.5286" y="47.5072" width="98.915" height="9.19392" rx="4.59696" transform="rotate(-180 99.5286 47.5072)" fill="#F0F0F0"/>
<rect x="97.7302" y="65.8951" width="89.9227" height="9.19392" rx="4.59696" transform="rotate(-180 97.7302 65.8951)" fill="#F0F0F0"/>
<rect x="96.8308" y="84.283" width="53.0544" height="9.19392" rx="4.59696" transform="rotate(-180 96.8308 84.283)" fill="#F0F0F0"/>
<path fill-rule="evenodd" clip-rule="evenodd" d="M95.8423 65.8951C95.8383 65.8951 95.8343 65.8951 95.8303 65.8951L37.5822 65.8951L37.5679 65.8951L49.9701 65.8951C52.5089 65.8951 54.567 67.9532 54.567 70.4921C54.567 73.0261 52.5167 75.0813 49.9844 75.089L82.5317 75.089C79.9984 75.0825 77.9468 73.0269 77.9468 70.492C77.9468 67.9532 80.0049 65.8951 82.5438 65.8951L95.8423 65.8951Z" fill="#F0F0F0"/>
<path fill-rule="evenodd" clip-rule="evenodd" d="M42.877 33.7164C42.877 36.2541 40.8207 38.3115 38.2834 38.3133L87.7373 38.3133C87.771 38.3133 87.8046 38.313 87.8381 38.3123C85.3458 38.2586 83.3419 36.2215 83.3419 33.7164C83.3419 31.2112 85.3458 29.1741 87.8381 29.1205C87.8046 29.1198 87.771 29.1194 87.7373 29.1194L29.4892 29.1194L29.484 29.1194L38.2801 29.1194C40.8189 29.1194 42.877 31.1775 42.877 33.7164Z" fill="#F0F0F0"/>
<path fill-rule="evenodd" clip-rule="evenodd" d="M80.7451 47.5072L0.714043 47.5072L0.709809 47.5072L22.0939 47.5072C24.6327 47.5072 26.6908 49.5654 26.6908 52.1042C26.6908 54.643 24.6327 56.7011 22.0939 56.7011L80.7451 56.7011C78.2063 56.7011 76.1482 54.643 76.1482 52.1042C76.1482 49.5654 78.2063 47.5072 80.7451 47.5072Z" fill="#F0F0F0"/>
<path fill-rule="evenodd" clip-rule="evenodd" d="M11.9807 63.4142L14.0633 64.5899L14.6687 64.2773L14.2447 63.4561L14.6987 62.6519L14.1057 62.3171L11.9807 63.4142ZM15.5216 61.5861L16.4391 63.3632L19.98 61.5351L19.0625 59.758L15.5216 61.5861ZM20.8329 58.8439L21.7504 60.621L25.2913 58.7929L24.3738 57.0158L20.8329 58.8439ZM26.1443 56.1017L27.0618 57.8789L30.6027 56.0507L29.6851 54.2736L26.1443 56.1017ZM31.4556 53.3595L32.3731 55.1367L35.914 53.3085L34.9965 51.5314L31.4556 53.3595ZM36.7669 50.6174L37.6844 52.3945L41.2253 50.5664L40.3078 48.7892L36.7669 50.6174ZM42.0782 47.8752L42.9958 49.6523L46.5366 47.8242L45.6191 46.047L42.0782 47.8752ZM47.3896 45.133L48.3071 46.9101L51.848 45.082L50.9305 43.3049L47.3896 45.133ZM52.7009 42.3908L53.6184 44.1679L57.1593 42.3398L56.2418 40.5627L52.7009 42.3908ZM58.0122 39.6486L58.9297 41.4257L62.4706 39.5976L61.5531 37.8205L58.0122 39.6486ZM63.3236 36.9064L64.2411 38.6835L65.0515 38.2651L65.8454 38.7133L66.8287 36.9717L65.094 35.9924L63.3236 36.9064ZM68.5633 37.951L67.5801 39.6926L71.0494 41.6512L72.0327 39.9096L68.5633 37.951ZM73.7673 40.8889L72.7841 42.6305L76.2534 44.5892L77.2366 42.8475L73.7673 40.8889ZM78.9713 43.8268L77.9881 45.5685L81.4574 47.5271L82.4406 45.7855L78.9713 43.8268ZM84.1753 46.7648L83.1921 48.5064L86.6614 50.465L87.6446 48.7234L84.1753 46.7648ZM89.3793 49.7027L88.3961 51.4443L91.8654 53.403L92.8486 51.6613L89.3793 49.7027ZM94.5833 52.6406L93.6001 54.3823L97.0694 56.3409L98.0526 54.5993L94.5833 52.6406ZM99.7873 55.5786L98.804 57.3202L102.273 59.2788L103.257 57.5372L99.7873 55.5786ZM104.991 58.5165L104.008 60.2581L107.477 62.2168L108.461 60.4751L104.991 58.5165ZM109.848 61.2581L109.242 61.5707L109.666 62.3919L109.212 63.1961L109.805 63.5309L111.93 62.4338L109.848 61.2581ZM108.389 64.2619L107.472 62.4848L103.931 64.3129L104.849 66.09L108.389 64.2619ZM103.078 67.0041L102.161 65.227L98.6202 67.0551L99.5377 68.8322L103.078 67.0041ZM97.7674 69.7463L96.8499 67.9692L93.3092 69.7973L94.2268 71.5744L97.7674 69.7463ZM92.4565 72.4884L91.5389 70.7113L87.9983 72.5395L88.9159 74.3166L92.4565 72.4884ZM87.1456 75.2306L86.228 73.4535L82.6874 75.2817L83.6049 77.0588L87.1456 75.2306ZM81.8346 77.9728L80.9171 76.1957L77.3764 78.0239L78.294 79.8009L81.8346 77.9728ZM76.5237 80.715L75.6061 78.9379L72.0655 80.766L72.9831 82.5431L76.5237 80.715ZM71.2127 83.4572L70.2952 81.6801L66.7546 83.5082L67.6721 85.2853L71.2127 83.4572ZM65.9018 86.1994L64.9842 84.4223L61.4436 86.2504L62.3612 88.0275L65.9018 86.1994ZM60.5909 88.9416L59.6733 87.1645L58.8629 87.5829L58.0689 87.1347L57.0857 88.8763L58.8206 89.8556L60.5909 88.9416ZM55.3509 87.897L56.3341 86.1554L52.8645 84.1967L51.8813 85.9384L55.3509 87.897ZM50.1465 84.9591L51.1297 83.2174L47.6601 81.2588L46.6769 83.0005L50.1465 84.9591ZM44.9421 82.0211L45.9253 80.2795L42.4556 78.3209L41.4725 80.0625L44.9421 82.0211ZM39.7377 79.0832L40.7208 77.3416L37.2512 75.3829L36.268 77.1246L39.7377 79.0832ZM34.5332 76.1453L35.5164 74.4036L32.0468 72.445L31.0636 74.1867L34.5332 76.1453ZM29.3288 73.2073L30.312 71.4657L26.8424 69.5071L25.8592 71.2487L29.3288 73.2073ZM24.1244 70.2694L25.1076 68.5278L21.6379 66.5691L20.6548 68.3108L24.1244 70.2694ZM18.9199 67.3315L19.9031 65.5898L16.4335 63.6312L15.4503 65.3729L18.9199 67.3315Z" fill="#406098"/>
<path fill-rule="evenodd" clip-rule="evenodd" d="M11.9807 30.1669L14.0633 31.3426L14.6687 31.03L14.2447 30.2088L14.6987 29.4046L14.1057 29.0698L11.9807 30.1669ZM15.5216 28.3388L16.4391 30.1159L19.98 28.2878L19.0625 26.5107L15.5216 28.3388ZM20.8329 25.5966L21.7504 27.3738L25.2913 25.5456L24.3738 23.7685L20.8329 25.5966ZM26.1443 22.8544L27.0618 24.6316L30.6027 22.8034L29.6851 21.0263L26.1443 22.8544ZM31.4556 20.1123L32.3731 21.8894L35.914 20.0613L34.9965 18.2841L31.4556 20.1123ZM36.7669 17.3701L37.6844 19.1472L41.2253 17.3191L40.3078 15.5419L36.7669 17.3701ZM42.0782 14.6279L42.9958 16.405L46.5366 14.5769L45.6191 12.7998L42.0782 14.6279ZM47.3896 11.8857L48.3071 13.6628L51.848 11.8347L50.9305 10.0576L47.3896 11.8857ZM52.7009 9.14351L53.6184 10.9206L57.1593 9.09251L56.2418 7.31538L52.7009 9.14351ZM58.0122 6.40132L58.9297 8.17845L62.4706 6.35032L61.5531 4.5732L58.0122 6.40132ZM63.3236 3.65913L64.2411 5.43626L65.0515 5.01782L65.8454 5.466L66.8287 3.72438L65.094 2.74507L63.3236 3.65913ZM68.5633 4.70369L67.5801 6.44532L71.0494 8.40394L72.0327 6.66232L68.5633 4.70369ZM73.7673 7.64163L72.7841 9.38325L76.2534 11.3419L77.2366 9.60025L73.7673 7.64163ZM78.9713 10.5796L77.9881 12.3212L81.4574 14.2798L82.4406 12.5382L78.9713 10.5796ZM84.1753 13.5175L83.1921 15.2591L86.6614 17.2177L87.6446 15.4761L84.1753 13.5175ZM89.3793 16.4554L88.3961 18.1971L91.8654 20.1557L92.8486 18.4141L89.3793 16.4554ZM94.5833 19.3934L93.6001 21.135L97.0694 23.0936L98.0526 21.352L94.5833 19.3934ZM99.7873 22.3313L98.804 24.0729L102.273 26.0315L103.257 24.2899L99.7873 22.3313ZM104.991 25.2692L104.008 27.0109L107.477 28.9695L108.461 27.2279L104.991 25.2692ZM109.848 28.0108L109.242 28.3234L109.666 29.1446L109.212 29.9488L109.805 30.2836L111.93 29.1865L109.848 28.0108ZM108.389 31.0146L107.472 29.2375L103.931 31.0656L104.849 32.8427L108.389 31.0146ZM103.078 33.7568L102.161 31.9797L98.6202 33.8078L99.5377 35.5849L103.078 33.7568ZM97.7674 36.499L96.8499 34.7219L93.3092 36.55L94.2268 38.3271L97.7674 36.499ZM92.4565 39.2412L91.5389 37.4641L87.9983 39.2922L88.9159 41.0693L92.4565 39.2412ZM87.1456 41.9834L86.228 40.2063L82.6874 42.0344L83.6049 43.8115L87.1456 41.9834ZM81.8346 44.7255L80.9171 42.9484L77.3764 44.7766L78.294 46.5537L81.8346 44.7255ZM76.5237 47.4677L75.6061 45.6906L72.0655 47.5188L72.9831 49.2959L76.5237 47.4677ZM71.2127 50.2099L70.2952 48.4328L66.7546 50.2609L67.6721 52.038L71.2127 50.2099ZM65.9018 52.9521L64.9842 51.175L61.4436 53.0031L62.3612 54.7802L65.9018 52.9521ZM60.5909 55.6943L59.6733 53.9172L58.8629 54.3356L58.0689 53.8874L57.0857 55.629L58.8206 56.6084L60.5909 55.6943ZM55.3509 54.6497L56.3341 52.9081L52.8645 50.9495L51.8813 52.6911L55.3509 54.6497ZM50.1465 51.7118L51.1297 49.9701L47.6601 48.0115L46.6769 49.7532L50.1465 51.7118ZM44.9421 48.7739L45.9253 47.0322L42.4556 45.0736L41.4725 46.8152L44.9421 48.7739ZM39.7377 45.8359L40.7208 44.0943L37.2512 42.1357L36.268 43.8773L39.7377 45.8359ZM34.5332 42.898L35.5164 41.1563L32.0468 39.1977L31.0636 40.9394L34.5332 42.898ZM29.3288 39.9601L30.312 38.2184L26.8424 36.2598L25.8592 38.0014L29.3288 39.9601ZM24.1244 37.0221L25.1076 35.2805L21.6379 33.3218L20.6548 35.0635L24.1244 37.0221ZM18.9199 34.0842L19.9031 32.3425L16.4335 30.3839L15.4503 32.1256L18.9199 34.0842Z" fill="#406098"/>
<path fill-rule="evenodd" clip-rule="evenodd" d="M110.93 31.0934L110.93 29.2228L112.93 29.2228L112.93 31.0934L110.93 31.0934ZM110.93 36.705L110.93 32.9639L112.93 32.9639L112.93 36.705L110.93 36.705ZM110.93 42.3167L110.93 38.5756L112.93 38.5756L112.93 42.3167L110.93 42.3167ZM110.93 47.9284L110.93 44.1873L112.93 44.1873L112.93 47.9284L110.93 47.9284ZM110.93 53.5401L110.93 49.7989L112.93 49.7989L112.93 53.5401L110.93 53.5401ZM110.93 59.1517L110.93 55.4106L112.93 55.4106L112.93 59.1517L110.93 59.1517ZM110.93 62.8928L110.93 61.0223L112.93 61.0223L112.93 62.8928L110.93 62.8928Z" fill="#406098"/>
<path d="M65.0916 36.2829L65.0916 3.34782" stroke="#406098" stroke-width="2" stroke-dasharray="4 2"/>
<circle cx="58.8167" cy="55.2712" r="1.5" fill="white" stroke="#406098" stroke-width="2"/>
<circle cx="111.93" cy="62.433" r="1.5" fill="white" stroke="#406098" stroke-width="2"/>
<circle cx="111.93" cy="29.2228" r="1.5" fill="white" stroke="#406098" stroke-width="2"/>
<circle cx="65.0916" cy="36.6275" r="1.5" fill="white" stroke="#406098" stroke-width="2"/>
<circle cx="65.0916" cy="2.69936" r="1.5" fill="white" stroke="#406098" stroke-width="2"/>
<path fill-rule="evenodd" clip-rule="evenodd" d="M10.9885 32.0112V30.1642H12.9885V32.0112H10.9885ZM10.9885 37.5523V33.8582H12.9885V37.5523H10.9885ZM10.9885 43.0933V39.3993H12.9885V43.0933H10.9885ZM10.9885 48.6343V44.9403H12.9885V48.6343H10.9885ZM10.9885 54.1753V50.4813H12.9885V54.1753H10.9885ZM10.9885 59.7163V56.0223H12.9885V59.7163H10.9885ZM10.9885 63.4103V61.5633H12.9885V63.4103H10.9885Z" fill="#406098"/>
<circle cx="11.9807" cy="63.4134" r="1.5" fill="white" stroke="#406098" stroke-width="2"/>
<circle cx="11.9807" cy="29.4852" r="1.5" fill="white" stroke="#406098" stroke-width="2"/>
<path fill-rule="evenodd" clip-rule="evenodd" d="M57.8167 57.7439V55.8478H59.8167V57.7439H57.8167ZM57.8167 63.432V59.6399H59.8167V63.432H57.8167ZM57.8167 69.1202V65.3281H59.8167V69.1202H57.8167ZM57.8167 74.8084V71.0163H59.8167V74.8084H57.8167ZM57.8167 80.4965V76.7044H59.8167V80.4965H57.8167ZM57.8167 86.1847V82.3926H59.8167V86.1847H57.8167ZM57.8167 89.9768V88.0808H59.8167V89.9768H57.8167Z" fill="#406098"/>
<circle cx="58.8167" cy="88.7619" r="1.5" fill="white" stroke="#406098" stroke-width="2"/>
<path fill-rule="evenodd" clip-rule="evenodd" d="M59.2737 67.328L4.26563 36.1384L4.26562 30.4621C4.26562 30.4621 25.0794 25.1676 29.0037 23.6746C33.729 21.8769 42.645 20.7114 49.5508 24.8221C49.8933 25.026 50.235 25.2269 50.5742 25.4263L50.5744 25.4264C54.8683 27.9504 58.7578 30.2368 58.6906 35.3486C59.8759 35.3642 61.5428 34.879 63.5315 34.3001C68.9045 32.7361 76.6264 30.4885 83.543 35.5864C90.1244 40.4372 88.5707 51.4135 83.3833 54.9813L59.2737 67.328ZM37.9836 41.5964L30.2055 37.1687L35.5728 34.2301C36.7705 33.7234 39.838 33.095 42.526 34.6348C45.214 36.1747 44.5719 37.9633 43.9149 38.6652L37.9836 41.5964ZM49.6842 48.0817L58.8313 53.2797C60.7875 52.3024 64.8136 50.2865 65.2682 50.0417C65.8364 49.7357 68.1794 47.9485 64.9547 45.2732C61.73 42.5978 57.2575 44.2317 56.879 44.4148C56.5762 44.5613 51.9563 46.9205 49.6842 48.0817Z" fill="#2F374A"/>
<path fill-rule="evenodd" clip-rule="evenodd" d="M59.2737 61.6409L4.26562 30.4514C4.26562 30.4514 24.2783 19.7853 29.0037 17.9875C33.729 16.1898 42.645 15.0244 49.5508 19.135C49.8934 19.3389 50.2352 19.5399 50.5744 19.7393C54.8683 22.2634 58.7578 24.5497 58.6906 29.6615C59.3785 29.6706 60.2077 29.633 61.1535 29.5902C66.2412 29.3599 74.7041 28.9768 82.6951 34.8666C89.2765 39.7174 88.5707 45.7264 83.3833 49.2942L59.2737 61.6409ZM37.9836 35.9093L30.2056 31.4816L35.5728 28.543C36.7705 28.0363 39.838 27.4079 42.526 28.9477C45.214 30.4876 44.572 32.2763 43.9149 32.9781L37.9836 35.9093ZM49.6842 42.3946L58.8314 47.5926C60.7876 46.6153 64.8136 44.5994 65.2682 44.3546C65.8365 44.0486 68.1794 42.2614 64.9547 39.5861C61.73 36.9108 57.2576 38.5447 56.879 38.7278C56.5762 38.8742 51.9563 41.2334 49.6842 42.3946Z" fill="#434E69"/>
</svg>
