<svg width="151" height="150" viewBox="0 0 151 150" fill="none" xmlns="http://www.w3.org/2000/svg">
<rect x="42.4847" y="33.6273" width="62.0467" height="9.19393" rx="4.59696" fill="#F0F0F0"/>
<rect x="112.625" y="33.6273" width="11.6899" height="9.19393" rx="4.59696" fill="#F0F0F0"/>
<rect x="49.6786" y="52.0152" width="83.6281" height="9.19393" rx="4.59696" fill="#F0F0F0"/>
<path fill-rule="evenodd" clip-rule="evenodd" d="M70.2606 52.0151H102.834C100.295 52.0151 98.2371 49.957 98.2371 47.4182C98.2371 44.8793 100.295 42.8212 102.834 42.8212H70.2606C72.7995 42.8212 74.8576 44.8793 74.8576 47.4182C74.8576 49.957 72.7995 52.0151 70.2606 52.0151Z" fill="#F0F0F0"/>
<rect x="116.222" y="79.5969" width="98.915" height="9.19392" rx="4.59696" transform="rotate(-180 116.222 79.5969)" fill="#F0F0F0"/>
<rect x="114.423" y="97.9848" width="89.9227" height="9.19392" rx="4.59696" transform="rotate(-180 114.423 97.9848)" fill="#F0F0F0"/>
<rect x="113.524" y="116.373" width="53.0544" height="9.19392" rx="4.59696" transform="rotate(-180 113.524 116.373)" fill="#F0F0F0"/>
<path fill-rule="evenodd" clip-rule="evenodd" d="M112.535 97.9848C112.531 97.9848 112.527 97.9848 112.523 97.9848L54.2753 97.9847L54.261 97.9848L66.6632 97.9848C69.202 97.9848 71.2602 100.043 71.2602 102.582C71.2602 105.116 69.2098 107.171 66.6775 107.179L99.2249 107.179C96.6916 107.172 94.6399 105.117 94.6399 102.582C94.6399 100.043 96.6981 97.9848 99.2369 97.9848L112.535 97.9848Z" fill="#F0F0F0"/>
<path fill-rule="evenodd" clip-rule="evenodd" d="M59.5701 65.8061C59.5701 68.3438 57.5138 70.4012 54.9765 70.403L104.43 70.403C104.464 70.403 104.498 70.4027 104.531 70.4019C102.039 70.3483 100.035 68.3112 100.035 65.8061C100.035 63.3009 102.039 61.2638 104.531 61.2102C104.498 61.2095 104.464 61.2091 104.43 61.2091L46.1823 61.2091L46.1771 61.2091L54.9732 61.2091C57.512 61.2091 59.5701 63.2672 59.5701 65.8061Z" fill="#F0F0F0"/>
<path fill-rule="evenodd" clip-rule="evenodd" d="M97.4383 79.5969L17.4072 79.5969L17.403 79.5969L38.7871 79.5969C41.3259 79.5969 43.384 81.655 43.384 84.1939C43.384 86.7327 41.3259 88.7908 38.7871 88.7908L97.4383 88.7908C94.8995 88.7908 92.8414 86.7327 92.8414 84.1939C92.8414 81.655 94.8995 79.5969 97.4383 79.5969Z" fill="#F0F0F0"/>
<path d="M81.4751 68.6502L127.27 94.5038L75.2228 121.377L29.4243 95.5235L81.4751 68.6502Z" stroke="#406098"/>
<path d="M81.4645 69.2184L126.218 94.4842L75.2334 120.809L30.4762 95.5432L81.4645 69.2184Z" stroke="#406098" stroke-width="2"/>
<path d="M128.322 94.9825L128.322 61.3125" stroke="#406098" stroke-width="2"/>
<path d="M81.4833 68.3726L81.4833 35.4375" stroke="#406098" stroke-width="2"/>
<circle cx="128.322" cy="94.5226" r="1.5" fill="white" stroke="#406098" stroke-width="2"/>
<circle cx="81.4833" cy="68.7172" r="1.5" fill="white" stroke="#406098" stroke-width="2"/>
<path d="M28.3802 95.5V62.2539" stroke="#406098" stroke-width="2"/>
<circle cx="28.3724" cy="95.5031" r="1.5" fill="white" stroke="#406098" stroke-width="2"/>
<circle cx="28.3724" cy="61.5749" r="1.5" fill="white" stroke="#406098" stroke-width="2"/>
<ellipse cx="68.1818" cy="99.3096" rx="4.72412" ry="3.0319" fill="#CEE0FA"/>
<ellipse cx="78.2178" cy="93.2458" rx="4.72412" ry="3.0319" fill="#CEE0FA"/>
<ellipse cx="88.512" cy="87.182" rx="4.72412" ry="3.0319" fill="#CEE0FA"/>
<ellipse cx="98.4773" cy="80.7976" rx="4.72412" ry="3.0319" fill="#CEE0FA"/>
<ellipse cx="77.9592" cy="104.997" rx="4.72412" ry="3.0319" fill="#CEE0FA"/>
<ellipse cx="87.9949" cy="98.9335" rx="4.72412" ry="3.0319" fill="#CEE0FA"/>
<ellipse cx="98.2895" cy="92.8697" rx="4.72412" ry="3.0319" fill="#CEE0FA"/>
<ellipse cx="108.255" cy="86.4853" rx="4.72412" ry="3.0319" fill="#CEE0FA"/>
<ellipse cx="58.4047" cy="93.6387" rx="4.72412" ry="3.0319" fill="#CEE0FA"/>
<ellipse cx="68.4402" cy="87.5749" rx="4.72412" ry="3.0319" fill="#CEE0FA"/>
<ellipse cx="78.7349" cy="81.5111" rx="4.72412" ry="3.0319" fill="#CEE0FA"/>
<ellipse cx="88.6999" cy="75.1267" rx="4.72412" ry="3.0319" fill="#CEE0FA"/>
<ellipse cx="48.4392" cy="87.8569" rx="4.72412" ry="3.0319" fill="#CEE0FA"/>
<ellipse cx="58.4752" cy="81.7931" rx="4.72412" ry="3.0319" fill="#CEE0FA"/>
<ellipse cx="68.7694" cy="75.7294" rx="4.72412" ry="3.0319" fill="#CEE0FA"/>
<ellipse cx="78.7349" cy="69.3449" rx="4.72412" ry="3.0319" fill="#CEE0FA"/>
<path d="M75.2084 122.066V87.9375" stroke="#406098" stroke-width="2"/>
<circle cx="75.2084" cy="120.914" r="1.5" fill="white" stroke="#406098" stroke-width="2"/>
<path d="M81.4645 35.9711L126.218 61.2369L75.2334 87.5617L30.4762 62.2959L81.4645 35.9711Z" stroke="#406098" stroke-width="2"/>
<circle cx="75.2084" cy="87.3609" r="1.5" fill="white" stroke="#406098" stroke-width="2"/>
<circle cx="81.4833" cy="34.789" r="1.5" fill="white" stroke="#406098" stroke-width="2"/>
<circle cx="128.322" cy="61.0656" r="1.5" fill="white" stroke="#406098" stroke-width="2"/>
<path d="M75.0954 99.422L20.0873 68.207L20.0873 61.7695L57.4455 49.3789L112.535 74.1133L112.535 80.582L75.0954 99.422Z" fill="#2F374A"/>
<path d="M75.0954 92.9533L20.0873 61.7637L51.7268 45.7856L57.0862 46.2543L62.5393 45.7973L112.535 74.1133L75.0954 92.9533Z" fill="#434E69"/>
<path d="M57.3683 90.7142L47.7186 85.2305L47.7186 78.7891L57.3683 84.2539L57.3683 90.7142Z" fill="#DAA340"/>
<path d="M57.3723 84.2553L47.7229 78.789L74.6409 65.2344L84.305 70.7082L57.3723 84.2553Z" fill="#FAD687"/>
<path d="M58.6487 90.0859L57.3713 90.7031V84.2578L58.6487 83.6094V90.0859Z" fill="#E3B155"/>
<path d="M58.4901 85.1275L57.3713 84.2553L84.2971 70.7109L84.2971 72.1445L58.4901 85.1275Z" fill="#E3B155"/>
<path d="M51.719 46.9688V45.7891L56.8206 50.3164V51.5312L51.719 46.9688Z" fill="#DAA340"/>
<path d="M62.5393 46.9688V45.7891L56.8206 50.3164V51.5312L62.5393 46.9688Z" fill="#E3B155"/>
<path d="M62.5354 45.7856H51.7229L56.8309 50.3343L62.5354 45.7856Z" fill="#FAD687"/>
</svg>
