<svg width="70" height="70" viewBox="0 0 70 70" fill="none" xmlns="http://www.w3.org/2000/svg">
<circle opacity="0.7" cx="41.5" cy="28.5" r="18.5" fill="url(#paint0_linear)"/>
<ellipse cx="27.138" cy="40.0118" rx="0.783554" ry="0.776316" fill="white"/>
<path d="M27.1383 29.4954L10.5 38.0062L25.173 46.2127L41.7512 37.7132L27.1383 29.4954Z" fill="#2F374A"/>
<path fill-rule="evenodd" clip-rule="evenodd" d="M26.9089 29.0552C27.059 28.9784 27.2381 28.9819 27.3851 29.0646L41.998 37.2824C42.1575 37.3721 42.2546 37.5411 42.2511 37.7228C42.2475 37.9044 42.1439 38.0696 41.981 38.1531L25.4028 46.6527C25.253 46.7295 25.0742 46.7263 24.9272 46.6441L10.2542 38.4376C10.0942 38.3481 9.99666 38.1789 10.0001 37.997C10.0035 37.815 10.1074 37.6495 10.2706 37.566L26.9089 29.0552ZM11.5519 38.0257L25.1834 45.6496L40.7025 37.693L27.127 30.0587L11.5519 38.0257Z" fill="#2F374A"/>
<path fill-rule="evenodd" clip-rule="evenodd" d="M27.8108 33.4947C27.9611 33.4174 28.1407 33.4207 28.288 33.5036L33.3032 36.3239C33.4626 36.4136 33.5597 36.5824 33.5563 36.7639C33.5529 36.9454 33.4496 37.1106 33.287 37.1943L19.5562 44.2643C19.4062 44.3416 19.227 44.3385 19.0799 44.2562L14.044 41.4397C13.8842 41.3503 13.7867 41.1814 13.7899 40.9996C13.7931 40.8178 13.8965 40.6524 14.0594 40.5686L27.8108 33.4947ZM15.3395 41.0265L19.3355 43.2614L32.0094 36.7356L28.0306 34.498L15.3395 41.0265Z" fill="#2F374A"/>
<path d="M25.1361 46.1212L41.7487 37.7219V51.1053L25.1361 59.5046V46.1212Z" fill="#2F374A"/>
<path fill-rule="evenodd" clip-rule="evenodd" d="M42.0098 37.2995C42.1582 37.3895 42.2487 37.5495 42.2487 37.7219V51.1054C42.2487 51.2915 42.1433 51.462 41.9759 51.5466L25.3634 59.9459C25.2084 60.0243 25.0234 60.0171 24.875 59.9271C24.7266 59.8371 24.6361 59.677 24.6361 59.5046V46.1212C24.6361 45.9351 24.7415 45.7646 24.9088 45.68L41.5214 37.2807C41.6764 37.2023 41.8614 37.2094 42.0098 37.2995ZM25.6361 46.4246V58.6957L41.2487 50.802V38.5309L25.6361 46.4246Z" fill="#2F374A"/>
<path d="M10.5096 38.0174L25.1936 46.1079V59.4961L10.5585 51.3102L10.5096 38.0174Z" fill="#2F374A"/>
<path fill-rule="evenodd" clip-rule="evenodd" d="M10.2554 37.5908C10.4082 37.5014 10.5975 37.499 10.7527 37.5844L25.4366 45.6749C25.5952 45.7623 25.6936 45.9281 25.6936 46.1079V59.4961C25.6936 59.6723 25.5992 59.8351 25.4457 59.9239C25.2922 60.0127 25.1026 60.0141 24.9478 59.9275L10.3127 51.7416C10.1562 51.6541 10.0592 51.4901 10.0585 51.312L10.0096 38.0192C10.009 37.8433 10.1025 37.6803 10.2554 37.5908ZM11.0127 38.8614L11.0574 51.0204L24.6936 58.6476V46.3992L11.0127 38.8614Z" fill="#2F374A"/>
<path d="M27.877 33.463L14.1256 40.5369L20.1256 43.5092L33.5564 36.7547L27.877 33.463Z" fill="white"/>
<path d="M14.1256 40.5369L20.1256 43.5092V52.2402L14.1575 49.2057L14.1256 40.5369Z" fill="white"/>
<path fill-rule="evenodd" clip-rule="evenodd" d="M26.6784 47.2631L10.6256 38.5554L11.0728 37.6692L27.1256 46.3769L26.6784 47.2631Z" fill="#2F374A"/>
<path fill-rule="evenodd" clip-rule="evenodd" d="M40.7234 49.2101C40.8473 49.4568 40.7478 49.7574 40.501 49.8813L33.6668 53.3148C33.4201 53.4388 33.1196 53.3392 32.9956 53.0925C32.8716 52.8457 32.9712 52.5452 33.2179 52.4212L40.0521 48.9878C40.2989 48.8638 40.5994 48.9633 40.7234 49.2101Z" fill="white"/>
<path fill-rule="evenodd" clip-rule="evenodd" d="M40.7233 46.8609C40.8473 47.1076 40.7478 47.4081 40.501 47.5321L35.8249 49.8813C35.5782 50.0053 35.2776 49.9058 35.1537 49.659C35.0297 49.4123 35.1292 49.1117 35.376 48.9878L40.0521 46.6385C40.2988 46.5146 40.5994 46.6141 40.7233 46.8609Z" fill="white"/>
<defs>
<linearGradient id="paint0_linear" x1="56.375" y1="17.3125" x2="27.5" y2="39.625" gradientUnits="userSpaceOnUse">
<stop stop-color="#B6D4FF"/>
<stop offset="1" stop-color="#B6D4FF" stop-opacity="0"/>
</linearGradient>
</defs>
</svg>
