<svg width="70" height="70" viewBox="0 0 70 70" fill="none" xmlns="http://www.w3.org/2000/svg">
<g clip-path="url(#clip0)">
<path opacity="0.7" d="M60 28.5C60 38.7173 51.7173 47 41.5 47C31.2827 47 23 38.7173 23 28.5C23 18.2827 31.2827 10 41.5 10C51.7173 10 60 18.2827 60 28.5Z" fill="url(#paint0_linear)"/>
<path d="M10.0079 26H44.0079V60H10.0079V26Z" fill="#F7F7F7"/>
<mask id="mask0" mask-type="alpha" maskUnits="userSpaceOnUse" x="-9" y="7" width="73" height="73">
<path fill-rule="evenodd" clip-rule="evenodd" d="M-8.8804 46.2756L30.2756 7.11954L30.9827 7.82664L-8.17329 46.9827L-8.8804 46.2756Z" fill="#2F374A"/>
<path fill-rule="evenodd" clip-rule="evenodd" d="M2.43332 57.5893L41.5894 18.4332L42.2965 19.1403L3.14043 58.2964L2.43332 57.5893Z" fill="#2F374A"/>
<path fill-rule="evenodd" clip-rule="evenodd" d="M13.747 68.903L52.9031 29.7469L53.6102 30.4541L14.4541 69.6101L13.747 68.903Z" fill="#2F374A"/>
<path fill-rule="evenodd" clip-rule="evenodd" d="M-3.22354 51.9324L35.9325 12.7764L36.6396 13.4835L-2.51643 52.6395L-3.22354 51.9324Z" fill="#2F374A"/>
<path fill-rule="evenodd" clip-rule="evenodd" d="M8.09018 63.2461L47.2462 24.0901L47.9533 24.7972L8.79729 63.9532L8.09018 63.2461Z" fill="#2F374A"/>
<path fill-rule="evenodd" clip-rule="evenodd" d="M19.4039 74.5598L58.5599 35.4038L59.267 36.1109L20.111 75.267L19.4039 74.5598Z" fill="#2F374A"/>
<path fill-rule="evenodd" clip-rule="evenodd" d="M-6.05203 49.104L33.104 9.94797L33.8111 10.6551L-5.34492 49.8111L-6.05203 49.104Z" fill="#2F374A"/>
<path fill-rule="evenodd" clip-rule="evenodd" d="M5.26169 60.4177L44.4177 21.2617L45.1248 21.9688L5.9688 61.1248L5.26169 60.4177Z" fill="#2F374A"/>
<path fill-rule="evenodd" clip-rule="evenodd" d="M16.5754 71.7314L55.7314 32.5754L56.4386 33.2825L17.2825 72.4385L16.5754 71.7314Z" fill="#2F374A"/>
<path fill-rule="evenodd" clip-rule="evenodd" d="M-0.39517 54.7609L38.7609 15.6048L39.468 16.3119L0.311937 55.468L-0.39517 54.7609Z" fill="#2F374A"/>
<path fill-rule="evenodd" clip-rule="evenodd" d="M10.9186 66.0746L50.0746 26.9185L50.7817 27.6256L11.6257 66.7817L10.9186 66.0746Z" fill="#2F374A"/>
<path fill-rule="evenodd" clip-rule="evenodd" d="M22.2323 77.3883L61.3883 38.2322L62.0954 38.9393L22.9394 78.0954L22.2323 77.3883Z" fill="#2F374A"/>
<path fill-rule="evenodd" clip-rule="evenodd" d="M-7.46621 47.6898L31.6898 8.53375L32.3969 9.24086L-6.75911 48.3969L-7.46621 47.6898Z" fill="#2F374A"/>
<path fill-rule="evenodd" clip-rule="evenodd" d="M3.84751 59.0035L43.0035 19.8475L43.7106 20.5546L4.55461 59.7106L3.84751 59.0035Z" fill="#2F374A"/>
<path fill-rule="evenodd" clip-rule="evenodd" d="M15.1612 70.3172L54.3173 31.1612L55.0244 31.8683L15.8683 71.0243L15.1612 70.3172Z" fill="#2F374A"/>
<path fill-rule="evenodd" clip-rule="evenodd" d="M-1.80935 53.3467L37.3467 14.1906L38.0538 14.8977L-1.10225 54.0538L-1.80935 53.3467Z" fill="#2F374A"/>
<path fill-rule="evenodd" clip-rule="evenodd" d="M9.50437 64.6604L48.6604 25.5043L49.3675 26.2114L10.2115 65.3675L9.50437 64.6604Z" fill="#2F374A"/>
<path fill-rule="evenodd" clip-rule="evenodd" d="M20.8181 75.974L59.9741 36.818L60.6812 37.5251L21.5252 76.6811L20.8181 75.974Z" fill="#2F374A"/>
<path fill-rule="evenodd" clip-rule="evenodd" d="M-4.63772 50.5182L34.5183 11.3622L35.2254 12.0693L-3.93062 51.2253L-4.63772 50.5182Z" fill="#2F374A"/>
<path fill-rule="evenodd" clip-rule="evenodd" d="M6.676 61.8319L45.832 22.6759L46.5391 23.383L7.3831 62.5391L6.676 61.8319Z" fill="#2F374A"/>
<path fill-rule="evenodd" clip-rule="evenodd" d="M17.9897 73.1457L57.1458 33.9896L57.8529 34.6967L18.6968 73.8528L17.9897 73.1457Z" fill="#2F374A"/>
<path fill-rule="evenodd" clip-rule="evenodd" d="M1.01914 56.1751L40.1752 17.019L40.8823 17.7261L1.72624 56.8822L1.01914 56.1751Z" fill="#2F374A"/>
<path fill-rule="evenodd" clip-rule="evenodd" d="M12.3329 67.4888L51.4889 28.3328L52.196 29.0399L13.04 68.1959L12.3329 67.4888Z" fill="#2F374A"/>
<path fill-rule="evenodd" clip-rule="evenodd" d="M23.6465 78.8025L62.8025 39.6464L63.5096 40.3535L24.3536 79.5096L23.6465 78.8025Z" fill="#2F374A"/>
</mask>
<g mask="url(#mask0)">
<path d="M10.0079 26.1339H44.0079V60H10.0079V26.1339Z" fill="#2F374A"/>
</g>
<path d="M10.0079 26H16.0079V32H10.0079V26Z" fill="#D8D8D8"/>
<path d="M10.0079 54H16.0079V60H10.0079V54Z" fill="#D8D8D8"/>
<path d="M38.0079 26H44.0079V32H38.0079V26Z" fill="#D8D8D8"/>
<path d="M38.0079 54H44.0079V60H38.0079V54Z" fill="#D8D8D8"/>
</g>
<defs>
<linearGradient id="paint0_linear" x1="56.375" y1="17.3125" x2="27.5" y2="39.625" gradientUnits="userSpaceOnUse">
<stop stop-color="#B6D4FF"/>
<stop offset="1" stop-color="#B6D4FF" stop-opacity="0"/>
</linearGradient>
<clipPath id="clip0">
<rect width="70" height="70" fill="white"/>
</clipPath>
</defs>
</svg>
