<svg width="70" height="70" viewBox="0 0 70 70" fill="none" xmlns="http://www.w3.org/2000/svg">
<path opacity="0.7" d="M60 28.5C60 38.7173 51.7173 47 41.5 47C31.2827 47 23 38.7173 23 28.5C23 18.2827 31.2827 10 41.5 10C51.7173 10 60 18.2827 60 28.5Z" fill="url(#paint0_linear_2813_635)"/>
<path d="M34.7553 30.0773L35.8487 37.6622L34.0595 37.9069L31.9223 32.4261C31.7235 32.3609 31.4585 32.3283 31.1271 32.3283C30.7958 32.2957 30.5141 32.2793 30.2822 32.2793H28.4433C28.1119 32.2793 27.6149 32.2793 26.9522 32.2793C26.2896 32.2793 25.6766 32.2957 25.1133 32.3283C25.1133 32.5893 25.0967 33.1928 25.0636 34.1389C25.0636 35.0849 25.0636 36.1615 25.0636 37.3686C25.0636 38.5756 25.0636 39.7175 25.0636 40.794V48.3789C25.0636 50.5647 25.0802 52.4242 25.1133 53.9575C25.1464 55.4908 25.163 56.4369 25.163 56.7957L29.2882 57.334L29.1888 58.9978H17.857L17.7576 57.334L21.8827 56.7957C21.8827 56.4369 21.8993 55.4908 21.9324 53.9575C21.9656 52.4242 21.9821 50.5647 21.9821 48.3789V40.794C21.9821 39.7175 21.9821 38.5756 21.9821 37.3686C21.9821 36.1615 21.9821 35.0849 21.9821 34.1389C21.9821 33.1928 21.9656 32.5893 21.9324 32.3283C21.4023 32.2957 20.8059 32.2793 20.1432 32.2793C19.4805 32.2793 18.967 32.2793 18.6025 32.2793H16.6144C16.3825 32.2793 16.1174 32.2957 15.8192 32.3283C15.5542 32.3283 15.3222 32.3609 15.1234 32.4261L12.9366 37.9558L11.1473 37.6622L12.2408 30.0773C12.6384 30.1099 12.9863 30.1425 13.2845 30.1751C13.6158 30.2078 13.914 30.2404 14.1791 30.273C14.4773 30.273 14.7589 30.273 15.024 30.273C15.3222 30.273 15.6536 30.273 16.018 30.273H30.978C31.3425 30.273 31.6573 30.273 31.9223 30.273C32.2205 30.273 32.5022 30.273 32.7672 30.273C33.0323 30.2404 33.314 30.2078 33.6122 30.1751C33.9435 30.1425 34.3245 30.1099 34.7553 30.0773Z" fill="#2F374A"/>
<path fill-rule="evenodd" clip-rule="evenodd" d="M11.368 29L12.3253 29.0785C12.727 29.1115 13.0828 29.1448 13.3914 29.1785C13.7012 29.209 13.9849 29.2398 14.2419 29.2708H32.7033C32.9548 29.2402 33.221 29.2096 33.4998 29.1791L33.5109 29.1779C33.8519 29.1443 34.2409 29.1111 34.6773 29.078L35.629 29.006L37 38.5166L33.399 39.009L31.1849 33.3309C31.1663 33.3306 31.1471 33.3305 31.1272 33.3305H31.0764L31.0259 33.3255C30.7151 33.2949 30.4693 33.2815 30.2823 33.2815H26.9523C26.6607 33.2815 26.38 33.2848 26.1101 33.2912C26.1025 33.54 26.093 33.8286 26.0815 34.1561V48.3789C26.0815 50.5603 26.0981 52.4123 26.131 53.9362C26.1489 54.7644 26.1621 55.4253 26.1704 55.9162L30.3599 56.4629L30.1486 60H16.8973L16.6859 56.4629L20.8755 55.9162C20.8838 55.4253 20.897 54.7644 20.9149 53.9362C20.9478 52.4123 20.9643 50.5603 20.9643 48.3789V34.1389C20.9643 33.8062 20.9622 33.5246 20.9584 33.2908C20.7006 33.2846 20.4289 33.2815 20.1433 33.2815H16.6145C16.4291 33.2815 16.2028 33.2947 15.9317 33.3243L15.8757 33.3305H15.8582L13.5851 39.0782L10 38.4899L11.368 29ZM33.719 31.1718C33.427 31.2038 33.1518 31.2357 32.8936 31.2675L32.8307 31.2752H14.1158L14.0529 31.2675C13.7979 31.2361 13.5082 31.2043 13.1833 31.1724L13.1721 31.1713C13.1524 31.1691 13.1324 31.1669 13.1121 31.1647L12.2988 36.8065L14.3483 31.6242L14.8016 31.4754C15.109 31.3745 15.4334 31.3311 15.7603 31.3265C16.0655 31.2945 16.3513 31.2772 16.6145 31.2772H20.1433C20.8222 31.2772 21.4403 31.2938 21.996 31.328L22.8379 31.3799L22.9425 32.204C22.9851 32.5397 23.0001 33.2116 23.0001 34.1389V48.3789C23.0001 50.5691 22.9835 52.4362 22.9501 53.9788C22.9169 55.5166 22.9007 56.4501 22.9007 56.7957V57.6739L20.4349 57.9956H26.611L24.1452 57.6739V56.7957C24.1452 56.4501 24.1289 55.5166 24.0957 53.9788C24.0624 52.4362 24.0458 50.5691 24.0458 48.3789V34.1216L24.0464 34.1043C24.0797 33.153 24.0955 32.5684 24.0955 32.3283V31.3833L25.0536 31.3278C25.6398 31.2939 26.273 31.2772 26.9523 31.2772H30.2823C30.5461 31.2772 30.8471 31.2947 31.1794 31.3263C31.547 31.3295 31.915 31.3673 32.2443 31.4754L32.7003 31.6251L34.6836 36.7111L33.8828 31.1561C33.8268 31.1614 33.7722 31.1666 33.719 31.1718Z" fill="#2F374A"/>
<defs>
<linearGradient id="paint0_linear_2813_635" x1="56.375" y1="17.3125" x2="27.5" y2="39.625" gradientUnits="userSpaceOnUse">
<stop stop-color="#F8C62C"/>
<stop offset="1" stop-color="#F8C62C" stop-opacity="0"/>
</linearGradient>
</defs>
</svg>
