<svg width="70" height="70" viewBox="0 0 70 70" fill="none" xmlns="http://www.w3.org/2000/svg">
<path opacity="0.7" d="M60 28.5C60 38.7173 51.7173 47 41.5 47C31.2827 47 23 38.7173 23 28.5C23 18.2827 31.2827 10 41.5 10C51.7173 10 60 18.2827 60 28.5Z" fill="url(#paint0_linear_2813_580)"/>
<path d="M10 35C10 32.2386 12.2386 30 15 30H35C37.7614 30 40 32.2386 40 35V55C40 57.7614 37.7614 60 35 60H15C12.2386 60 10 57.7614 10 55V35Z" fill="#2F374A"/>
<path fill-rule="evenodd" clip-rule="evenodd" d="M23.6638 38.9812C23.8435 38.9812 23.9333 38.8016 23.9333 38.7117V35.3879C23.9333 35.2082 23.7536 35.1184 23.6638 35.1184C23.574 35.1184 23.3045 35.2082 23.3045 35.3879V38.6219C23.3045 38.8914 23.4841 38.9812 23.6638 38.9812ZM33.5454 50.0307L28.4249 45.8983L23.3045 41.6762L23.3943 48.234V54.8816L27.2571 49.851L33.5454 50.0307ZM28.5148 37.5439L26.1791 39.8795C26.0893 39.9694 25.8198 39.9694 25.73 39.8795C25.6401 39.7897 25.6401 39.5202 25.73 39.4304L28.0656 37.0947C28.1555 37.0049 28.4249 37.0049 28.5148 37.0947C28.6046 37.1846 28.6046 37.4541 28.5148 37.5439ZM21.1485 44.0119L18.8129 46.3475C18.723 46.4374 18.723 46.7069 18.8129 46.7967C18.9027 46.8865 19.1722 46.8865 19.262 46.7967L21.5977 44.461C21.6875 44.3712 21.6875 44.1017 21.5977 44.0119C21.418 43.922 21.2384 43.922 21.1485 44.0119ZM26.8977 42.2152C26.8079 42.2152 26.6282 42.1254 26.6282 41.9457C26.6282 41.766 26.7181 41.5864 26.8977 41.6762H30.1317C30.2215 41.6762 30.4012 41.766 30.4012 41.9457C30.4012 42.0355 30.3114 42.2152 30.1317 42.2152H26.8977ZM20.6994 41.9457C20.6994 41.766 20.5197 41.6762 20.4299 41.6762H17.106C16.9264 41.5864 16.8365 41.766 16.8365 41.9457C16.8365 42.1254 17.0162 42.2152 17.106 42.2152H20.34C20.5197 42.2152 20.6994 42.1254 20.6994 41.9457ZM18.8129 37.0947C18.9027 37.0049 19.1722 37.0049 19.262 37.0947L21.5977 39.4304C21.6875 39.5202 21.6875 39.7897 21.5977 39.8795C21.418 39.9694 21.2384 39.9694 21.1485 39.8795L18.8129 37.5439C18.723 37.4541 18.723 37.2744 18.8129 37.0947Z" fill="white"/>
<defs>
<linearGradient id="paint0_linear_2813_580" x1="56.375" y1="17.3125" x2="27.5" y2="39.625" gradientUnits="userSpaceOnUse">
<stop stop-color="#F8C62C"/>
<stop offset="1" stop-color="#F8C62C" stop-opacity="0"/>
</linearGradient>
</defs>
</svg>
