<svg width="70" height="70" viewBox="0 0 70 70" fill="none" xmlns="http://www.w3.org/2000/svg">
<circle opacity="0.7" cx="41.5" cy="28.5" r="18.5" fill="url(#paint0_linear_2813_682)"/>
<path fill-rule="evenodd" clip-rule="evenodd" d="M10 34C10 30.6863 12.6863 28 16 28H51C54.3137 28 57 30.6863 57 34V54C57 57.3137 54.3137 60 51 60H16C12.6863 60 10 57.3137 10 54V34ZM16 30C13.7909 30 12 31.7909 12 34V54C12 56.2091 13.7909 58 16 58H51C53.2091 58 55 56.2091 55 54V34C55 31.7909 53.2091 30 51 30H16Z" fill="#2F374A"/>
<path fill-rule="evenodd" clip-rule="evenodd" d="M16 51.113V36.9082H18V51.113H16Z" fill="#2F374A"/>
<defs>
<linearGradient id="paint0_linear_2813_682" x1="56.375" y1="17.3125" x2="27.5" y2="39.625" gradientUnits="userSpaceOnUse">
<stop stop-color="#F8C62C"/>
<stop offset="1" stop-color="#F8C62C" stop-opacity="0"/>
</linearGradient>
</defs>
</svg>
