<svg width="70" height="70" viewBox="0 0 70 70" fill="none" xmlns="http://www.w3.org/2000/svg">
<circle opacity="0.7" cx="41.5" cy="28.5" r="18.5" fill="url(#paint0_linear_2813_702)"/>
<rect width="30.3594" height="5.82071" transform="matrix(1 0 0 -1 10 43.2817)" fill="#2F374A"/>
<rect width="30.3594" height="5.82071" transform="matrix(1 0 0 -1 10 54.9231)" fill="#2F374A"/>
<path fill-rule="evenodd" clip-rule="evenodd" d="M11.1953 33.9609C11.1953 33.4087 11.643 32.9609 12.1953 32.9609L18.1953 32.9609C18.7476 32.9609 19.1953 33.4087 19.1953 33.9609C19.1953 34.5132 18.7476 34.9609 18.1953 34.9609L12.1953 34.9609C11.643 34.9609 11.1953 34.5132 11.1953 33.9609Z" fill="#2F374A"/>
<path fill-rule="evenodd" clip-rule="evenodd" d="M21.1719 33.9609C21.1719 33.4087 21.6196 32.9609 22.1719 32.9609L28.1719 32.9609C28.7242 32.9609 29.1719 33.4087 29.1719 33.9609C29.1719 34.5132 28.7242 34.9609 28.1719 34.9609L22.1719 34.9609C21.6196 34.9609 21.1719 34.5132 21.1719 33.9609Z" fill="#2F374A"/>
<path fill-rule="evenodd" clip-rule="evenodd" d="M31.1484 33.9609C31.1484 33.4087 31.5962 32.9609 32.1484 32.9609L38.1484 32.9609C38.7007 32.9609 39.1484 33.4087 39.1484 33.9609C39.1484 34.5132 38.7007 34.9609 38.1484 34.9609L32.1484 34.9609C31.5962 34.9609 31.1484 34.5132 31.1484 33.9609Z" fill="#2F374A"/>
<path fill-rule="evenodd" clip-rule="evenodd" d="M11.6953 40.3713C11.6953 40.0951 11.9192 39.8713 12.1953 39.8713L18.1953 39.8713C18.4715 39.8713 18.6953 40.0951 18.6953 40.3713C18.6953 40.6474 18.4715 40.8713 18.1953 40.8713L12.1953 40.8713C11.9192 40.8713 11.6953 40.6474 11.6953 40.3713Z" fill="white"/>
<path fill-rule="evenodd" clip-rule="evenodd" d="M21.6719 40.3713C21.6719 40.0951 21.8957 39.8713 22.1719 39.8713L28.1719 39.8713C28.448 39.8713 28.6719 40.0951 28.6719 40.3713C28.6719 40.6474 28.448 40.8713 28.1719 40.8713L22.1719 40.8713C21.8957 40.8713 21.6719 40.6474 21.6719 40.3713Z" fill="white"/>
<path fill-rule="evenodd" clip-rule="evenodd" d="M31.6484 40.3713C31.6484 40.0951 31.8723 39.8713 32.1484 39.8713L38.1484 39.8713C38.4246 39.8713 38.6484 40.0951 38.6484 40.3713C38.6484 40.6474 38.4246 40.8713 38.1484 40.8713L32.1484 40.8713C31.8723 40.8713 31.6484 40.6474 31.6484 40.3713Z" fill="white"/>
<path fill-rule="evenodd" clip-rule="evenodd" d="M11.6953 52.0127C11.6953 51.7366 11.9192 51.5127 12.1953 51.5127L18.1953 51.5127C18.4715 51.5127 18.6953 51.7366 18.6953 52.0127C18.6953 52.2888 18.4715 52.5127 18.1953 52.5127L12.1953 52.5127C11.9192 52.5127 11.6953 52.2888 11.6953 52.0127Z" fill="white"/>
<path fill-rule="evenodd" clip-rule="evenodd" d="M21.6719 52.0127C21.6719 51.7366 21.8957 51.5127 22.1719 51.5127L28.1719 51.5127C28.448 51.5127 28.6719 51.7366 28.6719 52.0127C28.6719 52.2888 28.448 52.5127 28.1719 52.5127L22.1719 52.5127C21.8957 52.5127 21.6719 52.2888 21.6719 52.0127Z" fill="white"/>
<path fill-rule="evenodd" clip-rule="evenodd" d="M31.6484 52.0127C31.6484 51.7366 31.8723 51.5127 32.1484 51.5127L38.1484 51.5127C38.4246 51.5127 38.6484 51.7366 38.6484 52.0127C38.6484 52.2888 38.4246 52.5127 38.1484 52.5127L32.1484 52.5127C31.8723 52.5127 31.6484 52.2888 31.6484 52.0127Z" fill="white"/>
<path fill-rule="evenodd" clip-rule="evenodd" d="M11.6953 46.192C11.6953 45.9159 11.9192 45.692 12.1953 45.692L18.1953 45.692C18.4715 45.692 18.6953 45.9159 18.6953 46.192C18.6953 46.4682 18.4715 46.692 18.1953 46.692L12.1953 46.692C11.9192 46.692 11.6953 46.4682 11.6953 46.192Z" fill="#2F374A"/>
<path fill-rule="evenodd" clip-rule="evenodd" d="M21.6719 46.192C21.6719 45.9159 21.8957 45.692 22.1719 45.692L28.1719 45.692C28.448 45.692 28.6719 45.9159 28.6719 46.192C28.6719 46.4682 28.448 46.692 28.1719 46.692L22.1719 46.692C21.8957 46.692 21.6719 46.4682 21.6719 46.192Z" fill="#2F374A"/>
<path fill-rule="evenodd" clip-rule="evenodd" d="M31.6484 46.192C31.6484 45.9159 31.8723 45.692 32.1484 45.692L38.1484 45.692C38.4246 45.692 38.6484 45.9159 38.6484 46.192C38.6484 46.4682 38.4246 46.692 38.1484 46.692L32.1484 46.692C31.8723 46.692 31.6484 46.4682 31.6484 46.192Z" fill="#2F374A"/>
<path fill-rule="evenodd" clip-rule="evenodd" d="M11.6953 57.4609C11.6953 57.1848 11.9192 56.9609 12.1953 56.9609L18.1953 56.9609C18.4715 56.9609 18.6953 57.1848 18.6953 57.4609C18.6953 57.7371 18.4715 57.9609 18.1953 57.9609L12.1953 57.9609C11.9192 57.9609 11.6953 57.7371 11.6953 57.4609Z" fill="#2F374A"/>
<path fill-rule="evenodd" clip-rule="evenodd" d="M21.6719 57.4609C21.6719 57.1848 21.8957 56.9609 22.1719 56.9609L28.1719 56.9609C28.448 56.9609 28.6719 57.1848 28.6719 57.4609C28.6719 57.7371 28.448 57.9609 28.1719 57.9609L22.1719 57.9609C21.8957 57.9609 21.6719 57.7371 21.6719 57.4609Z" fill="#2F374A"/>
<path fill-rule="evenodd" clip-rule="evenodd" d="M31.6484 57.4609C31.6484 57.1848 31.8723 56.9609 32.1484 56.9609L38.1484 56.9609C38.4246 56.9609 38.6484 57.1848 38.6484 57.4609C38.6484 57.7371 38.4246 57.9609 38.1484 57.9609L32.1484 57.9609C31.8723 57.9609 31.6484 57.7371 31.6484 57.4609Z" fill="#2F374A"/>
<defs>
<linearGradient id="paint0_linear_2813_702" x1="56.375" y1="17.3125" x2="27.5" y2="39.625" gradientUnits="userSpaceOnUse">
<stop stop-color="#F8C62C"/>
<stop offset="1" stop-color="#F8C62C" stop-opacity="0"/>
</linearGradient>
</defs>
</svg>
