<svg width="70" height="70" viewBox="0 0 70 70" fill="none" xmlns="http://www.w3.org/2000/svg">
<path opacity="0.7" d="M60.0469 28.5C60.0469 38.7173 51.7641 47 41.5469 47C31.3296 47 23.0469 38.7173 23.0469 28.5C23.0469 18.2827 31.3296 10 41.5469 10C51.7641 10 60.0469 18.2827 60.0469 28.5Z" fill="url(#paint0_linear_3349_351)"/>
<path fill-rule="evenodd" clip-rule="evenodd" d="M29.4194 54.6756C37.2782 54.6756 43.6489 48.3048 43.6489 40.4461C43.6489 32.5873 37.2782 26.2166 29.4194 26.2166C21.5607 26.2166 15.1899 32.5873 15.1899 40.4461C15.1899 48.3048 21.5607 54.6756 29.4194 54.6756ZM48.6489 40.4461C48.6489 51.0662 40.0396 59.6756 29.4194 59.6756C18.7993 59.6756 10.1899 51.0662 10.1899 40.4461C10.1899 29.8259 18.7993 21.2166 29.4194 21.2166C40.0396 21.2166 48.6489 29.8259 48.6489 40.4461Z" fill="#D8D8D8"/>
<path fill-rule="evenodd" clip-rule="evenodd" d="M29.4203 54.6756C30.239 54.6756 31.0397 54.6067 31.8173 54.4749L32.6525 59.4047C31.6 59.583 30.52 59.6756 29.4203 59.6756C18.8002 59.6756 10.1909 51.0662 10.1909 40.4461L15.1909 40.4461C15.1909 48.3048 21.5616 54.6756 29.4203 54.6756Z" fill="#F8C62C"/>
<path fill-rule="evenodd" clip-rule="evenodd" d="M31.8164 54.4751C38.5334 53.3372 43.6489 47.4866 43.6489 40.4462C43.6489 32.5875 37.2782 26.2168 29.4194 26.2168L29.4194 21.2168C40.0396 21.2168 48.6489 29.8261 48.6489 40.4462C48.6489 49.9664 41.7332 57.8663 32.6516 59.4049L31.8164 54.4751Z" fill="#2F374A"/>
<defs>
<linearGradient id="paint0_linear_3349_351" x1="56.4219" y1="17.3125" x2="27.5469" y2="39.625" gradientUnits="userSpaceOnUse">
<stop stop-color="#F8C62C"/>
<stop offset="1" stop-color="#F8C62C" stop-opacity="0"/>
</linearGradient>
</defs>
</svg>
