<svg width="116" height="92" viewBox="0 0 116 92" fill="none" xmlns="http://www.w3.org/2000/svg">
<path fill-rule="evenodd" clip-rule="evenodd" d="M25.1778 6.17637C25.1778 3.63754 27.2359 1.57941 29.7747 1.57941H82.6275C85.1663 1.57941 87.2244 3.63754 87.2244 6.17637C87.2244 8.71297 85.1699 10.7697 82.6342 10.7733H85.5273C82.9885 10.7733 80.9304 12.8315 80.9304 15.3703C80.9304 17.9091 82.9885 19.9673 85.5273 19.9673H52.9539C55.4927 19.9673 57.5509 17.9091 57.5509 15.3703C57.5509 12.8337 55.4963 10.7769 52.9606 10.7733H29.7747C27.2359 10.7733 25.1778 8.7152 25.1778 6.17637ZM95.3179 6.17637C95.3179 3.63754 97.376 1.57941 99.9149 1.57941H102.411C104.95 1.57941 107.008 3.63754 107.008 6.17637C107.008 8.7152 104.95 10.7733 102.411 10.7733H99.9149C97.3761 10.7733 95.3179 8.7152 95.3179 6.17637ZM36.9688 19.9673C34.43 19.9673 32.3719 22.0254 32.3719 24.5642C32.3719 27.1011 34.4268 29.158 36.9628 29.1612L36.9646 29.1612L36.9688 29.1612L37.6664 29.1612L37.6706 29.1612C40.2075 29.1635 42.2633 31.2207 42.2633 33.7582C42.2633 36.2917 40.2137 38.3466 37.6821 38.3551H4.59684C2.05801 38.3551 -0.00012207 40.4132 -0.00012207 42.9521C-0.00012207 45.4881 2.0535 47.5445 4.58849 47.549L4.59085 47.549L4.59684 47.549L21.4801 47.549L21.4867 47.549C22.8439 47.5509 24.0634 48.141 24.9037 49.0781L64.4803 28.645L96.7422 46.8586C98.0465 46.0474 98.9148 44.6011 98.9148 42.9521C98.9148 40.4132 96.8567 38.3551 94.3179 38.3551H87.1383C87.1671 38.355 87.1958 38.3547 87.2244 38.354C84.7321 38.3004 82.7282 36.2633 82.7282 33.7582C82.7282 31.253 84.7321 29.2159 87.2244 29.1623C87.2026 29.1618 87.1808 29.1615 87.159 29.1613C87.1492 29.1613 87.1394 29.1612 87.1296 29.1612H111.403C113.942 29.1612 116 27.1031 116 24.5642C116 22.0254 113.942 19.9673 111.403 19.9673H36.9688ZM12.5647 56.743H11.7908C9.25194 56.743 7.19381 58.8011 7.19381 61.3399C7.19381 63.8787 9.25194 65.9369 11.7908 65.9369H28.8513L12.5647 56.743ZM45.862 75.5395L58.2069 82.5083L72.4952 75.1308H91.6201C94.159 75.1308 96.2171 77.189 96.2171 79.7278C96.2171 82.2666 94.159 84.3248 91.6201 84.3248L47.7597 84.3247C45.2208 84.3247 43.1627 82.2666 43.1627 79.7278C43.1627 77.8656 44.27 76.262 45.862 75.5395ZM72.4953 75.1308L77.7383 72.4237C78.4575 74.0165 80.0579 75.126 81.918 75.1308H72.4953ZM90.3017 65.9369L96.9706 62.4935C96.4597 64.4703 94.6667 65.9314 92.5316 65.9369L92.5234 65.9369L92.5195 65.9369H90.3017Z" fill="#F0F0F0"/>
<path fill-rule="evenodd" clip-rule="evenodd" d="M11.3673 63.456L58.2072 89.8974L111.317 62.4755L64.4806 36.0341L11.3673 63.456ZM13.4711 63.4952L58.2283 88.761L109.213 62.4362L64.4594 37.1705L13.4711 63.4952Z" fill="#406098"/>
<path fill-rule="evenodd" clip-rule="evenodd" d="M11.3673 63.456L58.2072 89.8974L111.317 62.4755L64.4806 36.0341L11.3673 63.456ZM15.5748 63.5345L58.2495 87.6246L107.109 62.397L64.4381 38.3068L15.5748 63.5345Z" fill="#406098"/>
<path opacity="0.4" d="M64.4806 29.0176L11.3673 56.4395L58.2072 82.8809L111.317 55.459L64.4806 29.0176Z" fill="#B6D4FF"/>
<path fill-rule="evenodd" clip-rule="evenodd" d="M11.3673 30.2087L58.2072 56.6501L111.317 29.2282L64.4806 2.7868L11.3673 30.2087ZM15.5748 30.2872L58.2495 54.3773L107.109 29.1497L64.4381 5.05955L15.5748 30.2872Z" fill="#406098"/>
<path fill-rule="evenodd" clip-rule="evenodd" d="M112.317 29.2646L112.317 62.9346L110.317 62.9346L110.317 29.2646L112.317 29.2646Z" fill="#406098"/>
<path fill-rule="evenodd" clip-rule="evenodd" d="M65.4782 3.38956L65.4782 36.3247L63.4782 36.3247L63.4782 3.38956L65.4782 3.38956Z" fill="#406098"/>
<path d="M60.7032 55.3129C60.7032 56.6936 59.584 57.8129 58.2032 57.8129C56.8225 57.8129 55.7032 56.6936 55.7032 55.3129C55.7032 53.9322 56.8225 52.8129 58.2032 52.8129C59.584 52.8129 60.7032 53.9322 60.7032 55.3129Z" fill="white"/>
<path fill-rule="evenodd" clip-rule="evenodd" d="M58.2032 55.8129C58.4794 55.8129 58.7032 55.5891 58.7032 55.3129C58.7032 55.0368 58.4794 54.8129 58.2032 54.8129C57.9271 54.8129 57.7032 55.0368 57.7032 55.3129C57.7032 55.5891 57.9271 55.8129 58.2032 55.8129ZM58.2032 57.8129C59.584 57.8129 60.7032 56.6936 60.7032 55.3129C60.7032 53.9322 59.584 52.8129 58.2032 52.8129C56.8225 52.8129 55.7032 53.9322 55.7032 55.3129C55.7032 56.6936 56.8225 57.8129 58.2032 57.8129Z" fill="#406098"/>
<path d="M113.817 62.4747C113.817 63.8554 112.697 64.9747 111.317 64.9747C109.936 64.9747 108.817 63.8554 108.817 62.4747C108.817 61.094 109.936 59.9747 111.317 59.9747C112.697 59.9747 113.817 61.094 113.817 62.4747Z" fill="white"/>
<path fill-rule="evenodd" clip-rule="evenodd" d="M111.317 62.9747C111.593 62.9747 111.817 62.7508 111.817 62.4747C111.817 62.1986 111.593 61.9747 111.317 61.9747C111.04 61.9747 110.817 62.1986 110.817 62.4747C110.817 62.7508 111.04 62.9747 111.317 62.9747ZM111.317 64.9747C112.697 64.9747 113.817 63.8554 113.817 62.4747C113.817 61.094 112.697 59.9747 111.317 59.9747C109.936 59.9747 108.817 61.094 108.817 62.4747C108.817 63.8554 109.936 64.9747 111.317 64.9747Z" fill="#406098"/>
<path d="M113.817 29.0176C113.817 30.3984 112.697 31.5176 111.317 31.5176C109.936 31.5176 108.817 30.3984 108.817 29.0176C108.817 27.6369 109.936 26.5176 111.317 26.5176C112.697 26.5176 113.817 27.6369 113.817 29.0176Z" fill="white"/>
<path fill-rule="evenodd" clip-rule="evenodd" d="M111.317 29.5176C111.593 29.5176 111.817 29.2938 111.817 29.0176C111.817 28.7415 111.593 28.5176 111.317 28.5176C111.04 28.5176 110.817 28.7415 110.817 29.0176C110.817 29.2938 111.04 29.5176 111.317 29.5176ZM111.317 31.5176C112.697 31.5176 113.817 30.3984 113.817 29.0176C113.817 27.6369 112.697 26.5176 111.317 26.5176C109.936 26.5176 108.817 27.6369 108.817 29.0176C108.817 30.3984 109.936 31.5176 111.317 31.5176Z" fill="#406098"/>
<path d="M66.9781 36.6693C66.9781 38.05 65.8589 39.1693 64.4781 39.1693C63.0974 39.1693 61.9781 38.05 61.9781 36.6693C61.9781 35.2886 63.0974 34.1693 64.4781 34.1693C65.8589 34.1693 66.9781 35.2886 66.9781 36.6693Z" fill="white"/>
<path fill-rule="evenodd" clip-rule="evenodd" d="M64.4781 37.1693C64.7543 37.1693 64.9781 36.9454 64.9781 36.6693C64.9781 36.3931 64.7543 36.1693 64.4781 36.1693C64.202 36.1693 63.9781 36.3931 63.9781 36.6693C63.9781 36.9454 64.202 37.1693 64.4781 37.1693ZM64.4781 39.1693C65.8589 39.1693 66.9781 38.05 66.9781 36.6693C66.9781 35.2886 65.8589 34.1693 64.4781 34.1693C63.0974 34.1693 61.9781 35.2886 61.9781 36.6693C61.9781 38.05 63.0974 39.1693 64.4781 39.1693Z" fill="#406098"/>
<path d="M66.9781 2.74109C66.9781 4.1218 65.8589 5.24109 64.4781 5.24109C63.0974 5.24109 61.9781 4.1218 61.9781 2.74109C61.9781 1.36038 63.0974 0.241089 64.4781 0.241089C65.8589 0.241089 66.9781 1.36038 66.9781 2.74109Z" fill="white"/>
<path fill-rule="evenodd" clip-rule="evenodd" d="M64.4781 3.24109C64.7543 3.24109 64.9781 3.01723 64.9781 2.74109C64.9781 2.46495 64.7543 2.24109 64.4781 2.24109C64.202 2.24109 63.9781 2.46495 63.9781 2.74109C63.9781 3.01723 64.202 3.24109 64.4781 3.24109ZM64.4781 5.24109C65.8589 5.24109 66.9781 4.1218 66.9781 2.74109C66.9781 1.36038 65.8589 0.241089 64.4781 0.241089C63.0974 0.241089 61.9781 1.36038 61.9781 2.74109C61.9781 4.1218 63.0974 5.24109 64.4781 5.24109Z" fill="#406098"/>
<path fill-rule="evenodd" clip-rule="evenodd" d="M12.3751 30.206V63.4521H10.3751V30.206H12.3751Z" fill="#406098"/>
<path d="M13.8673 63.4552C13.8673 64.8359 12.748 65.9552 11.3673 65.9552C9.9866 65.9552 8.86731 64.8359 8.86731 63.4552C8.86731 62.0745 9.9866 60.9552 11.3673 60.9552C12.748 60.9552 13.8673 62.0745 13.8673 63.4552Z" fill="white"/>
<path fill-rule="evenodd" clip-rule="evenodd" d="M11.3673 63.9552C11.6435 63.9552 11.8673 63.7313 11.8673 63.4552C11.8673 63.179 11.6435 62.9552 11.3673 62.9552C11.0912 62.9552 10.8673 63.179 10.8673 63.4552C10.8673 63.7313 11.0912 63.9552 11.3673 63.9552ZM11.3673 65.9552C12.748 65.9552 13.8673 64.8359 13.8673 63.4552C13.8673 62.0745 12.748 60.9552 11.3673 60.9552C9.9866 60.9552 8.86731 62.0745 8.86731 63.4552C8.86731 64.8359 9.9866 65.9552 11.3673 65.9552Z" fill="#406098"/>
<path d="M13.8673 29.527C13.8673 30.9077 12.748 32.027 11.3673 32.027C9.9866 32.027 8.86731 30.9077 8.86731 29.527C8.86731 28.1463 9.9866 27.027 11.3673 27.027C12.748 27.027 13.8673 28.1463 13.8673 29.527Z" fill="white"/>
<path fill-rule="evenodd" clip-rule="evenodd" d="M11.3673 30.027C11.6435 30.027 11.8673 29.8031 11.8673 29.527C11.8673 29.2508 11.6435 29.027 11.3673 29.027C11.0912 29.027 10.8673 29.2508 10.8673 29.527C10.8673 29.8031 11.0912 30.027 11.3673 30.027ZM11.3673 32.027C12.748 32.027 13.8673 30.9077 13.8673 29.527C13.8673 28.1463 12.748 27.027 11.3673 27.027C9.9866 27.027 8.86731 28.1463 8.86731 29.527C8.86731 30.9077 9.9866 32.027 11.3673 32.027Z" fill="#406098"/>
<path fill-rule="evenodd" clip-rule="evenodd" d="M59.2032 55.8896V90.0186H57.2032V55.8896H59.2032Z" fill="#406098"/>
<path fill-rule="evenodd" clip-rule="evenodd" d="M58.6603 67.3698L3.65222 36.1802L3.65222 30.5038C3.65222 30.5038 24.466 25.2093 28.3903 23.7164C33.1156 21.9186 42.0316 20.7532 48.9374 24.8638C49.2799 25.0677 49.6216 25.2686 49.9608 25.468L49.961 25.4681C54.2549 27.9922 58.1444 30.2785 58.0772 35.3904C59.2625 35.4059 60.9294 34.9207 62.9181 34.3419C68.2911 32.7779 76.013 30.5302 82.9296 35.6281C89.511 40.479 87.9573 51.4552 82.7699 55.0231L58.6603 67.3698ZM37.3702 41.6381L29.5921 37.2104L34.9594 34.2718C36.1571 33.7651 39.2246 33.1367 41.9126 34.6765C44.6006 36.2164 43.9585 38.0051 43.3015 38.7069L37.3702 41.6381ZM49.0708 48.1235L58.2179 53.3214C60.1741 52.3441 64.2002 50.3282 64.6548 50.0834C65.223 49.7774 67.566 47.9902 64.3413 45.3149C61.1166 42.6396 56.6441 44.2735 56.2656 44.4566C55.9628 44.603 51.3429 46.9622 49.0708 48.1235Z" fill="#2F374A"/>
<path fill-rule="evenodd" clip-rule="evenodd" d="M58.6604 61.6827L3.65234 30.4931C3.65234 30.4931 23.665 19.827 28.3904 18.0293C33.1157 16.2315 42.0317 15.0661 48.9375 19.1768C49.2801 19.3807 49.6219 19.5816 49.9612 19.781C54.255 22.3051 58.1445 24.5915 58.0774 29.7033C58.7652 29.7123 59.5944 29.6748 60.5402 29.632C65.6279 29.4016 74.0908 29.0185 82.0818 34.9083C88.6632 39.7592 87.9574 45.7681 82.77 49.336L58.6604 61.6827ZM37.3703 35.9511L29.5923 31.5233L34.9595 28.5847C36.1573 28.078 39.2248 27.4496 41.9127 28.9895C44.6007 30.5293 43.9587 32.318 43.3017 33.0199L37.3703 35.9511ZM49.071 42.4364L58.2181 47.6344C60.1743 46.657 64.2004 44.6411 64.6549 44.3964C65.2232 44.0904 67.5662 42.3031 64.3414 39.6278C61.1167 36.9525 56.6443 38.5864 56.2657 38.7695C55.9629 38.916 51.343 41.2751 49.071 42.4364Z" fill="#434E69"/>
<path d="M60.7032 88.8661C60.7032 90.2468 59.584 91.3661 58.2032 91.3661C56.8225 91.3661 55.7032 90.2468 55.7032 88.8661C55.7032 87.4854 56.8225 86.3661 58.2032 86.3661C59.584 86.3661 60.7032 87.4854 60.7032 88.8661Z" fill="white"/>
<path fill-rule="evenodd" clip-rule="evenodd" d="M58.2032 89.3661C58.4794 89.3661 58.7032 89.1423 58.7032 88.8661C58.7032 88.59 58.4794 88.3661 58.2032 88.3661C57.9271 88.3661 57.7032 88.59 57.7032 88.8661C57.7032 89.1423 57.9271 89.3661 58.2032 89.3661ZM58.2032 91.3661C59.584 91.3661 60.7032 90.2468 60.7032 88.8661C60.7032 87.4854 59.584 86.3661 58.2032 86.3661C56.8225 86.3661 55.7032 87.4854 55.7032 88.8661C55.7032 90.2468 56.8225 91.3661 58.2032 91.3661Z" fill="#406098"/>
<path fill-rule="evenodd" clip-rule="evenodd" d="M59.8144 22.5392L59.9332 18.6673L65.5281 15.6031C65.4058 15.3196 65.3393 15.0147 65.3394 14.697C65.3395 13.1913 66.8344 11.9708 68.6783 11.9709C70.5223 11.9711 72.017 13.1918 72.0169 14.6976C72.0167 16.2033 70.5218 17.4238 68.6779 17.4237C67.9699 17.4236 67.3134 17.2436 66.7732 16.9366L61.8159 19.6516L61.6971 23.5236L57.2969 26.0463C57.0899 25.5619 56.4766 24.644 56.3242 24.519L59.8144 22.5392Z" fill="#E3AC1D"/>
<path fill-rule="evenodd" clip-rule="evenodd" d="M75.5487 22.6049C75.9866 22.7773 76.4777 22.8739 76.9964 22.874C78.8404 22.8741 80.3353 21.6536 80.3354 20.1479C80.3355 18.6422 78.8408 17.4214 76.9969 17.4213C75.1529 17.4211 73.658 18.6416 73.6579 20.1474C73.6579 20.5461 73.7627 20.9248 73.951 21.2662L59.5394 28.4419L59.8717 29.6764L61.5254 29.6035L75.5487 22.6049Z" fill="#E3AC1D"/>
<path fill-rule="evenodd" clip-rule="evenodd" d="M72.2261 30.0729L77.7142 31.0981L84.0005 27.6553C84.4816 27.8747 85.036 27.9998 85.6261 27.9999C87.4701 28 88.965 26.7795 88.9651 25.2738C88.9652 23.768 87.4705 22.5473 85.6266 22.5471C83.7827 22.547 82.2877 23.7675 82.2876 25.2732C82.2876 25.6124 82.3634 25.9371 82.502 26.2366L77.4598 28.9981L72.2383 28.0508L68.9512 29.7617C69.1586 29.7617 69.9709 29.8768 70.752 30.0117C71.1919 30.0877 71.6114 30.168 71.9317 30.2344L72.2261 30.0729Z" fill="#E3AC1D"/>
<path fill-rule="evenodd" clip-rule="evenodd" d="M59.0924 22.0387L59.2112 18.1667L64.8061 15.1025C64.6838 14.819 64.6173 14.514 64.6174 14.1964C64.6175 12.6907 66.1124 11.4702 67.9563 11.4703C69.8003 11.4705 71.295 12.6912 71.2948 14.197C71.2947 15.7027 69.7998 16.9232 67.9559 16.9231C67.2479 16.923 66.5914 16.743 66.0512 16.436L61.0939 19.151L60.9751 23.023L56.9141 25.3354C56.6664 24.978 56.0916 24.189 55.7735 23.8915L59.0924 22.0387Z" fill="#F8C62C"/>
<path fill-rule="evenodd" clip-rule="evenodd" d="M75.1973 21.9257C75.6286 22.0918 76.1105 22.1846 76.6189 22.1847C78.4629 22.1848 79.9578 20.9643 79.9579 19.4586C79.958 17.9528 78.4633 16.7321 76.6194 16.7319C74.7755 16.7318 73.2806 17.9523 73.2804 19.458C73.2804 19.8593 73.3865 20.2403 73.5772 20.5834L58.0235 28.5918L58.0742 29.7129L59.4356 29.7129L60.3951 29.6529L75.1973 21.9257Z" fill="#F8C62C"/>
<path fill-rule="evenodd" clip-rule="evenodd" d="M71.849 29.3845L77.3371 30.4097L83.6235 26.9669C84.1045 27.1863 84.6589 27.3114 85.2491 27.3115C87.093 27.3116 88.5879 26.0911 88.5881 24.5854C88.5882 23.0796 87.0935 21.8589 85.2495 21.8587C83.4056 21.8586 81.9107 23.0791 81.9106 24.5848C81.9105 24.924 81.9863 25.2487 82.1249 25.5482L77.0827 28.3097L71.8613 27.3624L67.791 29.6484C67.8199 29.6514 67.8502 29.6545 67.882 29.6578C68.6018 29.7316 70.0524 29.8803 70.6621 30L71.849 29.3845Z" fill="#F8C62C"/>
</svg>
