<svg width="70" height="70" viewBox="0 0 70 70" fill="none" xmlns="http://www.w3.org/2000/svg">
<path opacity="0.7" d="M60 28.5C60 38.7173 51.7173 47 41.5 47C31.2827 47 23 38.7173 23 28.5C23 18.2827 31.2827 10 41.5 10C51.7173 10 60 18.2827 60 28.5Z" fill="url(#paint0_linear)"/>
<path fill-rule="evenodd" clip-rule="evenodd" d="M40 31C40 30.4477 39.5523 30 39 30H11C10.4477 30 10 30.4477 10 31V55.0045C10 55.5567 10.4477 56.0045 11 56.0045H20.6838C20.9774 56.0045 21.2562 56.1335 21.4462 56.3574L24.2376 59.6469C24.637 60.1176 25.3632 60.1176 25.7626 59.6469L28.554 56.3574C28.744 56.1335 29.0228 56.0045 29.3164 56.0045H39C39.5523 56.0045 40 55.5567 40 55.0045V31Z" fill="#2F374A"/>
<path fill-rule="evenodd" clip-rule="evenodd" d="M17.5 43C17.5 42.4477 17.9477 42 18.5 42L31.5 42C32.0523 42 32.5 42.4477 32.5 43C32.5 43.5523 32.0523 44 31.5 44L18.5 44C17.9477 44 17.5 43.5523 17.5 43Z" fill="white"/>
<defs>
<linearGradient id="paint0_linear" x1="56.375" y1="17.3125" x2="27.5" y2="39.625" gradientUnits="userSpaceOnUse">
<stop stop-color="#B6D4FF"/>
<stop offset="1" stop-color="#B6D4FF" stop-opacity="0"/>
</linearGradient>
</defs>
</svg>
