<svg width="70" height="70" viewBox="0 0 70 70" fill="none" xmlns="http://www.w3.org/2000/svg">
<path opacity="0.7" d="M60 28.5C60 38.7173 51.7173 47 41.5 47C31.2827 47 23 38.7173 23 28.5C23 18.2827 31.2827 10 41.5 10C51.7173 10 60 18.2827 60 28.5Z" fill="url(#paint0_linear_2813_504)"/>
<path d="M30.5676 23C30.5676 24.6569 29.2245 26 27.5676 26C25.9108 26 24.5676 24.6569 24.5676 23C24.5676 21.3431 25.9108 20 27.5676 20C29.2245 20 30.5676 21.3431 30.5676 23Z" fill="#2F374A"/>
<path opacity="0.91" d="M37.3419 24.3535C37.3419 25.8651 36.1165 27.0904 34.605 27.0904C33.0934 27.0904 31.868 25.8651 31.868 24.3535C31.868 22.8419 33.0934 21.6166 34.605 21.6166C36.1165 21.6166 37.3419 22.8419 37.3419 24.3535Z" fill="#2F374A"/>
<path opacity="0.84" d="M43.3006 28.1638C43.3006 29.6754 42.0753 30.9007 40.5637 30.9007C39.0521 30.9007 37.8268 29.6754 37.8268 28.1638C37.8268 26.6523 39.0521 25.4269 40.5637 25.4269C42.0753 25.4269 43.3006 26.6523 43.3006 28.1638Z" fill="#2F374A"/>
<path opacity="0.77" d="M47 34.0415C47 35.4022 45.8969 36.5053 44.5362 36.5053C43.1754 36.5053 42.0723 35.4022 42.0723 34.0415C42.0723 32.6807 43.1754 31.5776 44.5362 31.5776C45.8969 31.5776 47 32.6807 47 34.0415Z" fill="#2F374A"/>
<path opacity="0.7" d="M48.3988 40.4461C48.3988 41.6887 47.3914 42.6961 46.1488 42.6961C44.9062 42.6961 43.8988 41.6887 43.8988 40.4461C43.8988 39.2034 44.9062 38.1961 46.1488 38.1961C47.3914 38.1961 48.3988 39.2034 48.3988 40.4461Z" fill="#2F374A"/>
<path opacity="0.63" d="M47 47C47 48.164 46.0564 49.1076 44.8924 49.1076C43.7284 49.1076 42.7848 48.164 42.7848 47C42.7848 45.836 43.7284 44.8924 44.8924 44.8924C46.0564 44.8924 47 45.836 47 47Z" fill="#2F374A"/>
<path opacity="0.56" d="M42.9359 53.2762C42.9359 54.3732 42.0466 55.2625 40.9496 55.2625C39.8526 55.2625 38.9634 54.3732 38.9634 53.2762C38.9634 52.1793 39.8526 51.29 40.9496 51.29C42.0466 51.29 42.9359 52.1793 42.9359 53.2762Z" fill="#2F374A"/>
<path opacity="0.49" d="M36.9467 57.3196C36.9467 58.2991 36.1527 59.093 35.1733 59.093C34.1939 59.093 33.3999 58.2991 33.3999 57.3196C33.3999 56.3402 34.1939 55.5462 35.1733 55.5462C36.1527 55.5462 36.9467 56.3402 36.9467 57.3196Z" fill="#2F374A"/>
<path opacity="0.42" d="M30.2077 58.3962C30.2077 59.2819 29.4896 60 28.6039 60C27.7181 60 27 59.2819 27 58.3962C27 57.5104 27.7181 56.7923 28.6039 56.7923C29.4896 56.7923 30.2077 57.5104 30.2077 58.3962Z" fill="#2F374A"/>
<path opacity="0.35" d="M23.4079 57.5044C23.4079 58.2894 22.7715 58.9258 21.9865 58.9258C21.2015 58.9258 20.5651 58.2894 20.5651 57.5044C20.5651 56.7193 21.2015 56.0829 21.9865 56.0829C22.7715 56.0829 23.4079 56.7193 23.4079 57.5044Z" fill="#2F374A"/>
<path opacity="0.28" d="M17.1199 53.2862C17.1199 53.8684 16.648 54.3403 16.0658 54.3403C15.4837 54.3403 15.0117 53.8684 15.0117 53.2862C15.0117 52.704 15.4837 52.2321 16.0658 52.2321C16.648 52.2321 17.1199 52.704 17.1199 53.2862Z" fill="#2F374A"/>
<path opacity="0.21" d="M12.8638 47.9457C12.8638 48.4551 12.4508 48.868 11.9414 48.868C11.432 48.868 11.019 48.4551 11.019 47.9457C11.019 47.4362 11.432 47.0233 11.9414 47.0233C12.4508 47.0233 12.8638 47.4362 12.8638 47.9457Z" fill="#2F374A"/>
<path opacity="0.14" d="M11.0064 40.886C11.0064 41.1359 10.8038 41.3386 10.5538 41.3386C10.3038 41.3386 10.1012 41.1359 10.1012 40.886C10.1012 40.636 10.3038 40.4333 10.5538 40.4333C10.8038 40.4333 11.0064 40.636 11.0064 40.886Z" fill="#2F374A"/>
<path opacity="0.07" d="M11.9083 33.9139C11.9083 34.1638 11.7056 34.3665 11.4557 34.3665C11.2057 34.3665 11.0031 34.1638 11.0031 33.9139C11.0031 33.6639 11.2057 33.4612 11.4557 33.4612C11.7056 33.4612 11.9083 33.6639 11.9083 33.9139Z" fill="#2F374A"/>
<defs>
<linearGradient id="paint0_linear_2813_504" x1="56.375" y1="17.3125" x2="27.5" y2="39.625" gradientUnits="userSpaceOnUse">
<stop stop-color="#F8C62C"/>
<stop offset="1" stop-color="#F8C62C" stop-opacity="0"/>
</linearGradient>
</defs>
</svg>
