<svg width="70" height="70" viewBox="0 0 70 70" fill="none" xmlns="http://www.w3.org/2000/svg">
<g clip-path="url(#clip0)">
<path opacity="0.7" d="M60 28.5C60 38.7173 51.7173 47 41.5 47C31.2827 47 23 38.7173 23 28.5C23 18.2827 31.2827 10 41.5 10C51.7173 10 60 18.2827 60 28.5Z" fill="url(#paint0_linear)"/>
<path fill-rule="evenodd" clip-rule="evenodd" d="M10 58.958H59V60H10V58.958Z" fill="#2F374A"/>
<path fill-rule="evenodd" clip-rule="evenodd" d="M50.8321 56.9519L59.1997 48.2327L58.4926 47.4959L50.125 56.2151L50.8321 56.9519ZM55.016 56.7603L59.016 52.5923L58.3088 51.8555L54.3088 56.0235L55.016 56.7603Z" fill="#2F374A"/>
<path fill-rule="evenodd" clip-rule="evenodd" d="M12.875 46.4375C12.875 45.8852 13.3227 45.4375 13.875 45.4375H50.125C50.6773 45.4375 51.125 45.8852 51.125 46.4375C51.125 46.9898 50.6773 47.4375 50.125 47.4375H13.875C13.3227 47.4375 12.875 46.9898 12.875 46.4375Z" fill="#2F374A"/>
<path fill-rule="evenodd" clip-rule="evenodd" d="M12.875 50.4375C12.875 49.8852 13.3227 49.4375 13.875 49.4375H50.125C50.6773 49.4375 51.125 49.8852 51.125 50.4375C51.125 50.9898 50.6773 51.4375 50.125 51.4375H13.875C13.3227 51.4375 12.875 50.9898 12.875 50.4375Z" fill="#2F374A"/>
<path fill-rule="evenodd" clip-rule="evenodd" d="M12.875 54.4375C12.875 53.8852 13.3227 53.4375 13.875 53.4375H34.9375C35.4898 53.4375 35.9375 53.8852 35.9375 54.4375C35.9375 54.9898 35.4898 55.4375 34.9375 55.4375H13.875C13.3227 55.4375 12.875 54.9898 12.875 54.4375Z" fill="#2F374A"/>
<path fill-rule="evenodd" clip-rule="evenodd" d="M13.375 39.9375C13.375 39.6614 13.5989 39.4375 13.875 39.4375H24.4062C24.6824 39.4375 24.9062 39.6614 24.9062 39.9375C24.9062 40.2136 24.6824 40.4375 24.4062 40.4375H13.875C13.5989 40.4375 13.375 40.2136 13.375 39.9375Z" fill="#2F374A"/>
</g>
<defs>
<linearGradient id="paint0_linear" x1="56.375" y1="17.3125" x2="27.5" y2="39.625" gradientUnits="userSpaceOnUse">
<stop stop-color="#B6D4FF"/>
<stop offset="1" stop-color="#B6D4FF" stop-opacity="0"/>
</linearGradient>
<clipPath id="clip0">
<rect width="70" height="70" fill="white"/>
</clipPath>
</defs>
</svg>
