<svg width="70" height="70" viewBox="0 0 70 70" fill="none" xmlns="http://www.w3.org/2000/svg">
<path opacity="0.7" d="M60 28.5C60 38.7173 51.7173 47 41.5 47C31.2827 47 23 38.7173 23 28.5C23 18.2827 31.2827 10 41.5 10C51.7173 10 60 18.2827 60 28.5Z" fill="url(#paint0_linear_2813_484)"/>
<path fill-rule="evenodd" clip-rule="evenodd" d="M10 47C10 46.4477 10.4477 46 11 46H47.25C47.8023 46 48.25 46.4477 48.25 47C48.25 47.5523 47.8023 48 47.25 48H11C10.4477 48 10 47.5523 10 47Z" fill="#2F374A"/>
<path fill-rule="evenodd" clip-rule="evenodd" d="M10 43C10 42.4477 10.4477 42 11 42H47.25C47.8023 42 48.25 42.4477 48.25 43C48.25 43.5523 47.8023 44 47.25 44H11C10.4477 44 10 43.5523 10 43Z" fill="#2F374A"/>
<path fill-rule="evenodd" clip-rule="evenodd" d="M10 39C10 38.4477 10.4477 38 11 38H47.25C47.8023 38 48.25 38.4477 48.25 39C48.25 39.5523 47.8023 40 47.25 40H11C10.4477 40 10 39.5523 10 39Z" fill="#2F374A"/>
<path fill-rule="evenodd" clip-rule="evenodd" d="M10.0491 31C10.0491 29.8954 10.9445 29 12.0491 29H35.0736C36.1782 29 37.0736 29.8954 37.0736 31C37.0736 32.1046 36.1782 33 35.0736 33H12.0491C10.9445 33 10.0491 32.1046 10.0491 31Z" fill="#2F374A"/>
<path fill-rule="evenodd" clip-rule="evenodd" d="M10 51C10 50.4477 10.4477 50 11 50H47.25C47.8023 50 48.25 50.4477 48.25 51C48.25 51.5523 47.8023 52 47.25 52H11C10.4477 52 10 51.5523 10 51Z" fill="#2F374A"/>
<path fill-rule="evenodd" clip-rule="evenodd" d="M10 55C10 54.4477 10.4477 54 11 54H47.25C47.8023 54 48.25 54.4477 48.25 55C48.25 55.5523 47.8023 56 47.25 56H11C10.4477 56 10 55.5523 10 55Z" fill="#2F374A"/>
<path fill-rule="evenodd" clip-rule="evenodd" d="M10 59C10 58.4477 10.4477 58 11 58H32.0625C32.6148 58 33.0625 58.4477 33.0625 59C33.0625 59.5523 32.6148 60 32.0625 60H11C10.4477 60 10 59.5523 10 59Z" fill="#2F374A"/>
<defs>
<linearGradient id="paint0_linear_2813_484" x1="56.375" y1="17.3125" x2="27.5" y2="39.625" gradientUnits="userSpaceOnUse">
<stop stop-color="#F8C62C"/>
<stop offset="1" stop-color="#F8C62C" stop-opacity="0"/>
</linearGradient>
</defs>
</svg>
