<svg width="70" height="70" viewBox="0 0 70 70" fill="none" xmlns="http://www.w3.org/2000/svg">
<g clip-path="url(#clip0_2813_460)">
<path opacity="0.7" d="M60 28.5C60 38.7173 51.7173 47 41.5 47C31.2827 47 23 38.7173 23 28.5C23 18.2827 31.2827 10 41.5 10C51.7173 10 60 18.2827 60 28.5Z" fill="url(#paint0_linear_2813_460)"/>
<path fill-rule="evenodd" clip-rule="evenodd" d="M10 36.9059L59 36.9059L59 37.9059L10 37.9059L10 36.9059Z" fill="#2F374A"/>
<path fill-rule="evenodd" clip-rule="evenodd" d="M58.0449 29.8342C58.0121 29.8039 57.9585 29.8039 57.9256 29.8342L53.9916 33.4657L50.0743 29.8498C50.0416 29.8194 49.9879 29.8194 49.9551 29.8498L49.0247 30.7086C48.9918 30.7389 48.9918 30.7885 49.0247 30.8187L53.9274 35.3444C53.9597 35.3742 54.012 35.3745 54.0449 35.3458C54.055 35.342 54.0644 35.3363 54.0726 35.3288L58.9754 30.8031C59.0082 30.7729 59.0082 30.7233 58.9754 30.6931L58.0449 29.8342Z" fill="#2F374A"/>
<g filter="url(#filter0_d_2813_460)">
<path d="M10 37.8995H59V60H34.8033H10V37.8995Z" fill="white"/>
</g>
<path d="M10 38.8891H59V48.8891H10V38.8891Z" fill="#2F374A"/>
<path fill-rule="evenodd" clip-rule="evenodd" d="M12.5625 43.889C12.5625 43.3368 13.0102 42.889 13.5625 42.889H46.5625C47.1148 42.889 47.5625 43.3368 47.5625 43.889C47.5625 44.4413 47.1148 44.889 46.5625 44.889H13.5625C13.0102 44.889 12.5625 44.4413 12.5625 43.889Z" fill="white"/>
<path fill-rule="evenodd" clip-rule="evenodd" d="M12.5625 54.4445C12.5625 53.8922 13.0102 53.4445 13.5625 53.4445H46.5625C47.1148 53.4445 47.5625 53.8922 47.5625 54.4445C47.5625 54.9968 47.1148 55.4445 46.5625 55.4445H13.5625C13.0102 55.4445 12.5625 54.9968 12.5625 54.4445Z" fill="#2F374A"/>
<path fill-rule="evenodd" clip-rule="evenodd" d="M12.5625 32.2028C12.5625 31.6505 13.0102 31.2028 13.5625 31.2028H33.5625C34.1148 31.2028 34.5625 31.6505 34.5625 32.2028C34.5625 32.7551 34.1148 33.2028 33.5625 33.2028H13.5625C13.0102 33.2028 12.5625 32.7551 12.5625 32.2028Z" fill="#2F374A"/>
</g>
<defs>
<filter id="filter0_d_2813_460" x="0" y="29.8995" width="69" height="42.1005" filterUnits="userSpaceOnUse" color-interpolation-filters="sRGB">
<feFlood flood-opacity="0" result="BackgroundImageFix"/>
<feColorMatrix in="SourceAlpha" type="matrix" values="0 0 0 0 0 0 0 0 0 0 0 0 0 0 0 0 0 0 127 0" result="hardAlpha"/>
<feOffset dy="2"/>
<feGaussianBlur stdDeviation="5"/>
<feColorMatrix type="matrix" values="0 0 0 0 0 0 0 0 0 0 0 0 0 0 0 0 0 0 0.12 0"/>
<feBlend mode="normal" in2="BackgroundImageFix" result="effect1_dropShadow_2813_460"/>
<feBlend mode="normal" in="SourceGraphic" in2="effect1_dropShadow_2813_460" result="shape"/>
</filter>
<linearGradient id="paint0_linear_2813_460" x1="56.375" y1="17.3125" x2="27.5" y2="39.625" gradientUnits="userSpaceOnUse">
<stop stop-color="#F8C62C"/>
<stop offset="1" stop-color="#F8C62C" stop-opacity="0"/>
</linearGradient>
<clipPath id="clip0_2813_460">
<rect width="70" height="70" fill="white"/>
</clipPath>
</defs>
</svg>
