<svg width="70" height="70" viewBox="0 0 70 70" fill="none" xmlns="http://www.w3.org/2000/svg">
<g clip-path="url(#clip0_3303_351)">
<path opacity="0.7" d="M60.0469 28.5C60.0469 38.7173 51.7641 47 41.5469 47C31.3296 47 23.0469 38.7173 23.0469 28.5C23.0469 18.2827 31.3296 10 41.5469 10C51.7641 10 60.0469 18.2827 60.0469 28.5Z" fill="url(#paint0_linear_3303_351)"/>
<g opacity="0.8" filter="url(#filter0_d_3303_351)">
<path d="M10 20.0162H50.4463V60.0491H10V20.0162Z" fill="#2F374A"/>
</g>
<path d="M15.2231 27.5327H45.2231V42.5327H15.2231V27.5327Z" fill="white"/>
<path d="M15.2231 42.5327H45.2231V52.5327H15.2231V42.5327Z" fill="#F7F7F7"/>
<path fill-rule="evenodd" clip-rule="evenodd" d="M22.7538 47.5327C22.7538 46.9804 23.2015 46.5327 23.7538 46.5327L36.6925 46.5327C37.2448 46.5327 37.6925 46.9804 37.6925 47.5327C37.6925 48.0849 37.2448 48.5327 36.6925 48.5327L23.7538 48.5327C23.2015 48.5327 22.7538 48.0849 22.7538 47.5327Z" fill="#2F374A"/>
<path fill-rule="evenodd" clip-rule="evenodd" d="M45.2231 42.7827H15.2231V42.2827H45.2231V42.7827Z" fill="#D8D8D8"/>
<path fill-rule="evenodd" clip-rule="evenodd" d="M31.1175 30.9347C30.749 30.1977 29.6972 30.1977 29.3286 30.9347L25.6779 38.2362C25.3455 38.9011 25.829 39.6834 26.5723 39.6834H33.8738C34.6172 39.6834 35.1007 38.9011 34.7682 38.2362L31.1175 30.9347ZM29.8107 36.5149H30.6087L30.7003 32.834H29.7229L29.8107 36.5149ZM29.8374 37.3035C29.7433 37.3919 29.6962 37.5042 29.6962 37.6404C29.6962 37.7718 29.742 37.8817 29.8336 37.9701C29.9253 38.0585 30.0551 38.1027 30.223 38.1027C30.391 38.1027 30.5208 38.0585 30.6125 37.9701C30.7041 37.8817 30.7499 37.7718 30.7499 37.6404C30.7499 37.5042 30.7028 37.3919 30.6087 37.3035C30.5145 37.2127 30.3859 37.1673 30.223 37.1673C30.0602 37.1673 29.9316 37.2127 29.8374 37.3035Z" fill="#FF3D1E"/>
</g>
<defs>
<filter id="filter0_d_3303_351" x="0" y="12.0162" width="60.4463" height="60.0328" filterUnits="userSpaceOnUse" color-interpolation-filters="sRGB">
<feFlood flood-opacity="0" result="BackgroundImageFix"/>
<feColorMatrix in="SourceAlpha" type="matrix" values="0 0 0 0 0 0 0 0 0 0 0 0 0 0 0 0 0 0 127 0" result="hardAlpha"/>
<feOffset dy="2"/>
<feGaussianBlur stdDeviation="5"/>
<feComposite in2="hardAlpha" operator="out"/>
<feColorMatrix type="matrix" values="0 0 0 0 0 0 0 0 0 0 0 0 0 0 0 0 0 0 0.05 0"/>
<feBlend mode="normal" in2="BackgroundImageFix" result="effect1_dropShadow_3303_351"/>
<feBlend mode="normal" in="SourceGraphic" in2="effect1_dropShadow_3303_351" result="shape"/>
</filter>
<linearGradient id="paint0_linear_3303_351" x1="56.4219" y1="17.3125" x2="27.5469" y2="39.625" gradientUnits="userSpaceOnUse">
<stop stop-color="#F8C62C"/>
<stop offset="1" stop-color="#F8C62C" stop-opacity="0"/>
</linearGradient>
<clipPath id="clip0_3303_351">
<rect width="70" height="70" fill="white"/>
</clipPath>
</defs>
</svg>
