<svg width="70" height="70" viewBox="0 0 70 70" fill="none" xmlns="http://www.w3.org/2000/svg">
<g clip-path="url(#clip0_2813_495)">
<path opacity="0.7" d="M60 28.5C60 38.7173 51.7173 47 41.5 47C31.2827 47 23 38.7173 23 28.5C23 18.2827 31.2827 10 41.5 10C51.7173 10 60 18.2827 60 28.5Z" fill="url(#paint0_linear_2813_495)"/>
<g filter="url(#filter0_d_2813_495)">
<path d="M10 44H60V60H10V44Z" fill="white"/>
<path fill-rule="evenodd" clip-rule="evenodd" d="M21.6666 52C21.6666 50.8954 22.5621 50 23.6666 50H31.6666C32.7712 50 33.6666 50.8954 33.6666 52C33.6666 53.1046 32.7712 54 31.6666 54H23.6666C22.5621 54 21.6666 53.1046 21.6666 52Z" fill="#2F374A"/>
<path fill-rule="evenodd" clip-rule="evenodd" d="M37.3333 52C37.3333 51.4477 37.781 51 38.3333 51H46.3333C46.8855 51 47.3333 51.4477 47.3333 52C47.3333 52.5523 46.8855 53 46.3333 53H38.3333C37.781 53 37.3333 52.5523 37.3333 52Z" fill="#2F374A"/>
<path fill-rule="evenodd" clip-rule="evenodd" d="M52.6312 47.9551C52.601 47.9879 52.601 48.0415 52.6312 48.0744L56.2627 52.0084L52.6468 55.9257C52.6165 55.9584 52.6165 56.0121 52.6468 56.0449L53.5057 56.9753C53.5359 57.0082 53.5855 57.0082 53.6157 56.9753L58.1414 52.0726C58.1712 52.0403 58.1715 51.988 58.1428 51.9551C58.1391 51.945 58.1334 51.9356 58.1259 51.9274L53.6002 47.0246C53.5699 46.9918 53.5203 46.9918 53.4901 47.0246L52.6312 47.9551Z" fill="#2F374A"/>
<g opacity="0.5">
<path fill-rule="evenodd" clip-rule="evenodd" d="M17.3687 56.0449C17.3989 56.0121 17.3989 55.9585 17.3687 55.9256L13.7372 51.9916L17.3531 48.0743C17.3834 48.0416 17.3834 47.9879 17.3531 47.9551L16.4942 47.0247C16.464 46.9918 16.4144 46.9918 16.3841 47.0247L11.8584 51.9274C11.8287 51.9597 11.8283 52.012 11.857 52.0449C11.8608 52.055 11.8665 52.0644 11.874 52.0726L16.3997 56.9754C16.43 57.0082 16.4795 57.0082 16.5098 56.9754L17.3687 56.0449Z" fill="#2F374A"/>
</g>
</g>
</g>
<defs>
<filter id="filter0_d_2813_495" x="0" y="36" width="70" height="36" filterUnits="userSpaceOnUse" color-interpolation-filters="sRGB">
<feFlood flood-opacity="0" result="BackgroundImageFix"/>
<feColorMatrix in="SourceAlpha" type="matrix" values="0 0 0 0 0 0 0 0 0 0 0 0 0 0 0 0 0 0 127 0" result="hardAlpha"/>
<feOffset dy="2"/>
<feGaussianBlur stdDeviation="5"/>
<feColorMatrix type="matrix" values="0 0 0 0 0 0 0 0 0 0 0 0 0 0 0 0 0 0 0.1 0"/>
<feBlend mode="normal" in2="BackgroundImageFix" result="effect1_dropShadow_2813_495"/>
<feBlend mode="normal" in="SourceGraphic" in2="effect1_dropShadow_2813_495" result="shape"/>
</filter>
<linearGradient id="paint0_linear_2813_495" x1="56.375" y1="17.3125" x2="27.5" y2="39.625" gradientUnits="userSpaceOnUse">
<stop stop-color="#F8C62C"/>
<stop offset="1" stop-color="#F8C62C" stop-opacity="0"/>
</linearGradient>
<clipPath id="clip0_2813_495">
<rect width="70" height="70" fill="white"/>
</clipPath>
</defs>
</svg>
