<svg width="70" height="70" viewBox="0 0 70 70" fill="none" xmlns="http://www.w3.org/2000/svg">
<path opacity="0.7" d="M66.5 22.0938C66.5 32.311 58.2173 40.5938 48 40.5938C37.7827 40.5938 29.5 32.311 29.5 22.0938C29.5 11.8765 37.7827 3.59375 48 3.59375C58.2173 3.59375 66.5 11.8765 66.5 22.0938Z" fill="url(#paint0_linear)"/>
<path fill-rule="evenodd" clip-rule="evenodd" d="M59.7992 21.5H13.7992V48.5H59.7992V21.5ZM11.7992 19.5V50.5H61.7992V19.5H11.7992Z" fill="#2F374A"/>
<path d="M20.2582 38.3066C20.779 38.3066 21.212 38.4629 21.557 38.7754C21.9021 39.0814 22.0746 39.4753 22.0746 39.957C22.0746 40.4388 21.9021 40.8359 21.557 41.1484C21.212 41.4544 20.779 41.6074 20.2582 41.6074C19.7308 41.6074 19.2946 41.4512 18.9496 41.1387C18.611 40.8262 18.4418 40.4323 18.4418 39.957C18.4418 39.4818 18.611 39.0879 18.9496 38.7754C19.2946 38.4629 19.7308 38.3066 20.2582 38.3066Z" fill="#2F374A"/>
<path d="M26.8969 39.7422C27.2435 39.7422 27.5121 39.6494 27.7025 39.4639C27.8929 39.2734 27.9857 39.0098 27.9808 38.6729H30.2953C30.2953 39.542 29.9828 40.2549 29.3578 40.8115C28.7377 41.3682 27.9369 41.6465 26.9554 41.6465C25.8031 41.6465 24.8949 41.2852 24.2308 40.5625C23.5668 39.8398 23.2347 38.8389 23.2347 37.5596V37.457C23.2347 36.6562 23.3812 35.9507 23.6742 35.3403C23.972 34.7251 24.3993 34.2539 24.9559 33.9268C25.5126 33.5947 26.1718 33.4287 26.9335 33.4287C27.9637 33.4287 28.7816 33.7144 29.3871 34.2856C29.9926 34.8569 30.2953 35.6309 30.2953 36.6074H27.9808C27.9808 36.1973 27.8807 35.8823 27.6805 35.6626C27.4803 35.4429 27.2118 35.333 26.8749 35.333C26.2352 35.333 25.8617 35.7407 25.7543 36.5562C25.7201 36.8149 25.703 37.1714 25.703 37.6255C25.703 38.4214 25.7982 38.9731 25.9886 39.2808C26.1791 39.5884 26.4818 39.7422 26.8969 39.7422Z" fill="#2F374A"/>
<path d="M33.4427 41.5H30.9672V30.25H33.4427V41.5Z" fill="#2F374A"/>
<path d="M38.934 41.5C38.8461 41.3389 38.7679 41.1021 38.6996 40.7896C38.2455 41.3608 37.6107 41.6465 36.7953 41.6465C36.0482 41.6465 35.4135 41.4219 34.891 40.9727C34.3685 40.5186 34.1073 39.9497 34.1073 39.2661C34.1073 38.4067 34.4247 37.7573 35.0594 37.3179C35.6942 36.8784 36.6171 36.6587 37.828 36.6587H38.5897V36.2412C38.5897 35.5137 38.2748 35.1499 37.6449 35.1499C37.059 35.1499 36.766 35.438 36.766 36.0142H34.2977C34.2977 35.2476 34.6224 34.625 35.2719 34.1465C35.9261 33.668 36.7587 33.4287 37.7694 33.4287C38.7802 33.4287 39.5785 33.6753 40.1644 34.1685C40.7504 34.6616 41.0507 35.3379 41.0653 36.1973V39.7056C41.0751 40.4331 41.1874 40.9897 41.4022 41.3755V41.5H38.934ZM37.3885 39.8887C37.6962 39.8887 37.9501 39.8228 38.1503 39.6909C38.3553 39.5591 38.5018 39.4102 38.5897 39.2441V37.9771H37.8719C37.0126 37.9771 36.5829 38.3628 36.5829 39.1343C36.5829 39.3589 36.6586 39.542 36.8099 39.6836C36.9613 39.8203 37.1542 39.8887 37.3885 39.8887Z" fill="#2F374A"/>
<path d="M46.0878 39.2734C46.0878 39.0635 45.9779 38.895 45.7582 38.7681C45.5385 38.6411 45.121 38.5093 44.5057 38.3726C43.8905 38.2358 43.3827 38.0576 42.9823 37.8379C42.5819 37.6133 42.2767 37.3423 42.0668 37.0249C41.8568 36.7075 41.7518 36.3438 41.7518 35.9336C41.7518 35.2061 42.0521 34.6079 42.6527 34.1392C43.2533 33.6655 44.0394 33.4287 45.0111 33.4287C46.056 33.4287 46.8959 33.6655 47.5306 34.1392C48.1654 34.6128 48.4828 35.2354 48.4828 36.0068H46.0072C46.0072 35.3721 45.6727 35.0547 45.0038 35.0547C44.745 35.0547 44.5277 35.1279 44.3519 35.2744C44.1761 35.416 44.0883 35.5942 44.0883 35.8091C44.0883 36.0288 44.1957 36.207 44.4105 36.3438C44.6254 36.4805 44.9672 36.5928 45.4359 36.6807C45.9095 36.7686 46.3246 36.8735 46.681 36.9956C47.8724 37.4058 48.4681 38.1406 48.4681 39.2002C48.4681 39.9229 48.1459 40.5112 47.5013 40.9653C46.8617 41.4194 46.0316 41.6465 45.0111 41.6465C44.3324 41.6465 43.7269 41.5244 43.1947 41.2803C42.6625 41.0361 42.2474 40.7041 41.9496 40.2842C41.6517 39.8643 41.5028 39.4224 41.5028 38.9585H43.8099C43.8197 39.3247 43.9418 39.5933 44.1761 39.7642C44.4105 39.9302 44.7108 40.0132 45.077 40.0132C45.4139 40.0132 45.6654 39.9448 45.8314 39.8081C46.0023 39.6714 46.0878 39.4932 46.0878 39.2734Z" fill="#2F374A"/>
<path d="M53.2782 39.2734C53.2782 39.0635 53.1683 38.895 52.9486 38.7681C52.7289 38.6411 52.3114 38.5093 51.6962 38.3726C51.0809 38.2358 50.5731 38.0576 50.1727 37.8379C49.7723 37.6133 49.4672 37.3423 49.2572 37.0249C49.0472 36.7075 48.9423 36.3438 48.9423 35.9336C48.9423 35.2061 49.2426 34.6079 49.8431 34.1392C50.4437 33.6655 51.2299 33.4287 52.2015 33.4287C53.2465 33.4287 54.0863 33.6655 54.7211 34.1392C55.3558 34.6128 55.6732 35.2354 55.6732 36.0068H53.1976C53.1976 35.3721 52.8632 35.0547 52.1942 35.0547C51.9354 35.0547 51.7181 35.1279 51.5424 35.2744C51.3666 35.416 51.2787 35.5942 51.2787 35.8091C51.2787 36.0288 51.3861 36.207 51.601 36.3438C51.8158 36.4805 52.1576 36.5928 52.6263 36.6807C53.1 36.7686 53.515 36.8735 53.8715 36.9956C55.0629 37.4058 55.6586 38.1406 55.6586 39.2002C55.6586 39.9229 55.3363 40.5112 54.6918 40.9653C54.0521 41.4194 53.222 41.6465 52.2015 41.6465C51.5228 41.6465 50.9174 41.5244 50.3851 41.2803C49.8529 41.0361 49.4379 40.7041 49.14 40.2842C48.8422 39.8643 48.6932 39.4224 48.6932 38.9585H51.0004C51.0101 39.3247 51.1322 39.5933 51.3666 39.7642C51.601 39.9302 51.9012 40.0132 52.2675 40.0132C52.6044 40.0132 52.8558 39.9448 53.0219 39.8081C53.1927 39.6714 53.2782 39.4932 53.2782 39.2734Z" fill="#2F374A"/>
<defs>
<linearGradient id="paint0_linear" x1="62.875" y1="10.9063" x2="34" y2="33.2188" gradientUnits="userSpaceOnUse">
<stop stop-color="#B6D4FF"/>
<stop offset="1" stop-color="#B6D4FF" stop-opacity="0"/>
</linearGradient>
</defs>
</svg>
