<svg width="70" height="70" viewBox="0 0 70 70" fill="none" xmlns="http://www.w3.org/2000/svg">
<path opacity="0.7" d="M60 28.4827C60 38.7 51.7173 46.9827 41.5 46.9827C31.2827 46.9827 23 38.7 23 28.4827C23 18.2655 31.2827 9.98273 41.5 9.98273C51.7173 9.98273 60 18.2655 60 28.4827Z" fill="url(#paint0_linear_2833_482)"/>
<path fill-rule="evenodd" clip-rule="evenodd" d="M58 30.9804H12V57.9804H58V30.9804ZM10 28.9804V59.9804H60V28.9804H10Z" fill="#2F374A"/>
<path d="M18.459 47.787C18.9798 47.787 19.4128 47.9433 19.7578 48.2558C20.1029 48.5618 20.2754 48.9557 20.2754 49.4374C20.2754 49.9192 20.1029 50.3163 19.7578 50.6288C19.4128 50.9348 18.9798 51.0878 18.459 51.0878C17.9316 51.0878 17.4954 50.9316 17.1504 50.6191C16.8118 50.3066 16.6426 49.9127 16.6426 49.4374C16.6426 48.9622 16.8118 48.5683 17.1504 48.2558C17.4954 47.9433 17.9316 47.787 18.459 47.787Z" fill="#2F374A"/>
<path d="M25.0977 49.2226C25.4443 49.2226 25.7129 49.1298 25.9033 48.9443C26.0938 48.7538 26.1865 48.4902 26.1816 48.1533H28.4961C28.4961 49.0224 28.1836 49.7353 27.5586 50.2919C26.9385 50.8486 26.1377 51.1269 25.1562 51.1269C24.0039 51.1269 23.0957 50.7656 22.4316 50.0429C21.7676 49.3203 21.4355 48.3193 21.4355 47.04V46.9374C21.4355 46.1367 21.582 45.4311 21.875 44.8207C22.1729 44.2055 22.6001 43.7343 23.1567 43.4072C23.7134 43.0751 24.3726 42.9091 25.1343 42.9091C26.1646 42.9091 26.9824 43.1948 27.5879 43.7661C28.1934 44.3373 28.4961 45.1113 28.4961 46.0878H26.1816C26.1816 45.6777 26.0815 45.3627 25.8813 45.143C25.6812 44.9233 25.4126 44.8134 25.0757 44.8134C24.436 44.8134 24.0625 45.2211 23.9551 46.0366C23.9209 46.2953 23.9038 46.6518 23.9038 47.1059C23.9038 47.9018 23.999 48.4536 24.1895 48.7612C24.3799 49.0688 24.6826 49.2226 25.0977 49.2226Z" fill="#2F374A"/>
<path d="M31.6436 50.9804H29.168V39.7304H31.6436V50.9804Z" fill="#2F374A"/>
<path d="M37.1348 50.9804C37.0469 50.8193 36.9688 50.5825 36.9004 50.27C36.4463 50.8412 35.8115 51.1269 34.9961 51.1269C34.249 51.1269 33.6143 50.9023 33.0918 50.4531C32.5693 49.999 32.3081 49.4301 32.3081 48.7465C32.3081 47.8871 32.6255 47.2377 33.2603 46.7983C33.895 46.3588 34.8179 46.1391 36.0288 46.1391H36.7905V45.7216C36.7905 44.9941 36.4756 44.6303 35.8457 44.6303C35.2598 44.6303 34.9668 44.9184 34.9668 45.4946H32.4985C32.4985 44.728 32.8232 44.1054 33.4727 43.6269C34.127 43.1484 34.9595 42.9091 35.9702 42.9091C36.981 42.9091 37.7793 43.1557 38.3652 43.6489C38.9512 44.142 39.2515 44.8183 39.2661 45.6777V49.186C39.2759 49.9135 39.3882 50.4702 39.603 50.8559V50.9804H37.1348ZM35.5894 49.3691C35.897 49.3691 36.1509 49.3032 36.3511 49.1713C36.5562 49.0395 36.7026 48.8906 36.7905 48.7245V47.4575H36.0728C35.2134 47.4575 34.7837 47.8432 34.7837 48.6147C34.7837 48.8393 34.8594 49.0224 35.0107 49.164C35.1621 49.3007 35.355 49.3691 35.5894 49.3691Z" fill="#2F374A"/>
<path d="M44.2886 48.7538C44.2886 48.5439 44.1787 48.3754 43.959 48.2485C43.7393 48.1215 43.3218 47.9897 42.7065 47.853C42.0913 47.7162 41.5835 47.538 41.1831 47.3183C40.7827 47.0937 40.4775 46.8227 40.2676 46.5053C40.0576 46.1879 39.9526 45.8242 39.9526 45.414C39.9526 44.6865 40.2529 44.0883 40.8535 43.6196C41.4541 43.1459 42.2402 42.9091 43.2119 42.9091C44.2568 42.9091 45.0967 43.1459 45.7314 43.6196C46.3662 44.0932 46.6836 44.7158 46.6836 45.4872H44.208C44.208 44.8525 43.8735 44.5351 43.2046 44.5351C42.9458 44.5351 42.7285 44.6083 42.5527 44.7548C42.377 44.8964 42.2891 45.0746 42.2891 45.2895C42.2891 45.5092 42.3965 45.6874 42.6113 45.8242C42.8262 45.9609 43.168 46.0732 43.6367 46.1611C44.1104 46.249 44.5254 46.3539 44.8818 46.476C46.0732 46.8862 46.6689 47.621 46.6689 48.6806C46.6689 49.4033 46.3467 49.9916 45.7021 50.4457C45.0625 50.8998 44.2324 51.1269 43.2119 51.1269C42.5332 51.1269 41.9277 51.0048 41.3955 50.7607C40.8633 50.5165 40.4482 50.1845 40.1504 49.7646C39.8525 49.3447 39.7036 48.9028 39.7036 48.4389H42.0107C42.0205 48.8051 42.1426 49.0737 42.377 49.2446C42.6113 49.4106 42.9116 49.4936 43.2778 49.4936C43.6147 49.4936 43.8662 49.4252 44.0322 49.2885C44.2031 49.1518 44.2886 48.9736 44.2886 48.7538Z" fill="#2F374A"/>
<path d="M51.479 48.7538C51.479 48.5439 51.3691 48.3754 51.1494 48.2485C50.9297 48.1215 50.5122 47.9897 49.897 47.853C49.2817 47.7162 48.7739 47.538 48.3735 47.3183C47.9731 47.0937 47.668 46.8227 47.458 46.5053C47.248 46.1879 47.1431 45.8242 47.1431 45.414C47.1431 44.6865 47.4434 44.0883 48.0439 43.6196C48.6445 43.1459 49.4307 42.9091 50.4023 42.9091C51.4473 42.9091 52.2871 43.1459 52.9219 43.6196C53.5566 44.0932 53.874 44.7158 53.874 45.4872H51.3984C51.3984 44.8525 51.064 44.5351 50.395 44.5351C50.1362 44.5351 49.9189 44.6083 49.7432 44.7548C49.5674 44.8964 49.4795 45.0746 49.4795 45.2895C49.4795 45.5092 49.5869 45.6874 49.8018 45.8242C50.0166 45.9609 50.3584 46.0732 50.8271 46.1611C51.3008 46.249 51.7158 46.3539 52.0723 46.476C53.2637 46.8862 53.8594 47.621 53.8594 48.6806C53.8594 49.4033 53.5371 49.9916 52.8926 50.4457C52.2529 50.8998 51.4229 51.1269 50.4023 51.1269C49.7236 51.1269 49.1182 51.0048 48.5859 50.7607C48.0537 50.5165 47.6387 50.1845 47.3408 49.7646C47.043 49.3447 46.894 48.9028 46.894 48.4389H49.2012C49.2109 48.8051 49.333 49.0737 49.5674 49.2446C49.8018 49.4106 50.1021 49.4936 50.4683 49.4936C50.8052 49.4936 51.0566 49.4252 51.2227 49.2885C51.3936 49.1518 51.479 48.9736 51.479 48.7538Z" fill="#2F374A"/>
<defs>
<linearGradient id="paint0_linear_2833_482" x1="56.375" y1="17.2952" x2="27.5" y2="39.6077" gradientUnits="userSpaceOnUse">
<stop stop-color="#F8C62C"/>
<stop offset="1" stop-color="#F8C62C" stop-opacity="0"/>
</linearGradient>
</defs>
</svg>
