<svg width="70" height="70" viewBox="0 0 70 70" fill="none" xmlns="http://www.w3.org/2000/svg">
<g clip-path="url(#clip0_2833_491)">
<circle opacity="0.7" cx="41.5" cy="28.5" r="18.5" fill="url(#paint0_linear_2833_491)"/>
<g filter="url(#filter0_d_2833_491)">
<rect x="10" y="29.6406" width="30.36" height="30.3594" rx="5" fill="white"/>
</g>
<path fill-rule="evenodd" clip-rule="evenodd" d="M33.6744 39.0346C33.6056 38.9711 33.493 38.9711 33.424 39.0346L25.1626 46.6607L16.9363 39.0673C16.8675 39.0036 16.7547 39.0036 16.6859 39.0673L14.7319 40.8709C14.6629 40.9345 14.6629 41.0386 14.7319 41.1021L25.0277 50.6061C25.0955 50.6686 25.2054 50.6693 25.2744 50.609C25.2956 50.6011 25.3155 50.5891 25.3326 50.5734L35.6285 41.0694C35.6974 41.0058 35.6974 40.9018 35.6285 40.8382L33.6744 39.0346Z" fill="#2F374A"/>
</g>
<defs>
<filter id="filter0_d_2833_491" x="0" y="21.6406" width="50.3601" height="50.3594" filterUnits="userSpaceOnUse" color-interpolation-filters="sRGB">
<feFlood flood-opacity="0" result="BackgroundImageFix"/>
<feColorMatrix in="SourceAlpha" type="matrix" values="0 0 0 0 0 0 0 0 0 0 0 0 0 0 0 0 0 0 127 0" result="hardAlpha"/>
<feOffset dy="2"/>
<feGaussianBlur stdDeviation="5"/>
<feColorMatrix type="matrix" values="0 0 0 0 0 0 0 0 0 0 0 0 0 0 0 0 0 0 0.2 0"/>
<feBlend mode="normal" in2="BackgroundImageFix" result="effect1_dropShadow_2833_491"/>
<feBlend mode="normal" in="SourceGraphic" in2="effect1_dropShadow_2833_491" result="shape"/>
</filter>
<linearGradient id="paint0_linear_2833_491" x1="56.375" y1="17.3125" x2="27.5" y2="39.625" gradientUnits="userSpaceOnUse">
<stop stop-color="#F8C62C"/>
<stop offset="1" stop-color="#F8C62C" stop-opacity="0"/>
</linearGradient>
<clipPath id="clip0_2833_491">
<rect width="70" height="70" fill="white"/>
</clipPath>
</defs>
</svg>
