<svg width="70" height="70" viewBox="0 0 70 70" fill="none" xmlns="http://www.w3.org/2000/svg">
<path opacity="0.7" d="M60 28.5C60 38.7173 51.7173 47 41.5 47C31.2827 47 23 38.7173 23 28.5C23 18.2827 31.2827 10 41.5 10C51.7173 10 60 18.2827 60 28.5Z" fill="url(#paint0_linear_2813_748)"/>
<path fill-rule="evenodd" clip-rule="evenodd" d="M30.4393 42.256L21.367 29L12.2994 42.2491C10.8562 44.1056 10 46.4191 10 48.9274C10 55.0426 15.089 60 21.3667 60C27.6443 60 32.7333 55.0426 32.7333 48.9274C32.7333 46.8947 32.171 44.9899 31.1897 43.3526H31.1898L31.1891 43.3516C30.9612 42.9714 30.7106 42.6056 30.4393 42.256Z" fill="#2F374A"/>
<defs>
<linearGradient id="paint0_linear_2813_748" x1="56.375" y1="17.3125" x2="27.5" y2="39.625" gradientUnits="userSpaceOnUse">
<stop stop-color="#F8C62C"/>
<stop offset="1" stop-color="#F8C62C" stop-opacity="0"/>
</linearGradient>
</defs>
</svg>
