<svg width="70" height="70" viewBox="0 0 70 70" fill="none" xmlns="http://www.w3.org/2000/svg">
<path opacity="0.7" d="M60 28.5C60 38.7173 51.7173 47 41.5 47C31.2827 47 23 38.7173 23 28.5C23 18.2827 31.2827 10 41.5 10C51.7173 10 60 18.2827 60 28.5Z" fill="url(#paint0_linear)"/>
<path fill-rule="evenodd" clip-rule="evenodd" d="M12.875 47C12.875 46.4477 13.3227 46 13.875 46H50.125C50.6773 46 51.125 46.4477 51.125 47C51.125 47.5523 50.6773 48 50.125 48H13.875C13.3227 48 12.875 47.5523 12.875 47Z" fill="#2F374A"/>
<path fill-rule="evenodd" clip-rule="evenodd" d="M12.875 43C12.875 42.4477 13.3227 42 13.875 42H50.125C50.6773 42 51.125 42.4477 51.125 43C51.125 43.5523 50.6773 44 50.125 44H13.875C13.3227 44 12.875 43.5523 12.875 43Z" fill="#2F374A"/>
<path fill-rule="evenodd" clip-rule="evenodd" d="M12.875 39C12.875 38.4477 13.3227 38 13.875 38H50.125C50.6773 38 51.125 38.4477 51.125 39C51.125 39.5523 50.6773 40 50.125 40H13.875C13.3227 40 12.875 39.5523 12.875 39Z" fill="#2F374A"/>
<path fill-rule="evenodd" clip-rule="evenodd" d="M12.9241 31C12.9241 29.8954 13.8195 29 14.9241 29H37.9486C39.0532 29 39.9486 29.8954 39.9486 31C39.9486 32.1046 39.0532 33 37.9486 33H14.9241C13.8195 33 12.9241 32.1046 12.9241 31Z" fill="#2F374A"/>
<path fill-rule="evenodd" clip-rule="evenodd" d="M12.875 51C12.875 50.4477 13.3227 50 13.875 50H50.125C50.6773 50 51.125 50.4477 51.125 51C51.125 51.5523 50.6773 52 50.125 52H13.875C13.3227 52 12.875 51.5523 12.875 51Z" fill="#2F374A"/>
<path fill-rule="evenodd" clip-rule="evenodd" d="M12.875 55C12.875 54.4477 13.3227 54 13.875 54H50.125C50.6773 54 51.125 54.4477 51.125 55C51.125 55.5523 50.6773 56 50.125 56H13.875C13.3227 56 12.875 55.5523 12.875 55Z" fill="#2F374A"/>
<path fill-rule="evenodd" clip-rule="evenodd" d="M12.875 59C12.875 58.4477 13.3227 58 13.875 58H34.9375C35.4898 58 35.9375 58.4477 35.9375 59C35.9375 59.5523 35.4898 60 34.9375 60H13.875C13.3227 60 12.875 59.5523 12.875 59Z" fill="#2F374A"/>
<defs>
<linearGradient id="paint0_linear" x1="56.375" y1="17.3125" x2="27.5" y2="39.625" gradientUnits="userSpaceOnUse">
<stop stop-color="#B6D4FF"/>
<stop offset="1" stop-color="#B6D4FF" stop-opacity="0"/>
</linearGradient>
</defs>
</svg>
