<svg width="70" height="70" viewBox="0 0 70 70" fill="none" xmlns="http://www.w3.org/2000/svg">
<path opacity="0.7" d="M60 28.4766C60 38.6938 51.7173 46.9766 41.5 46.9766C31.2827 46.9766 23 38.6938 23 28.4766C23 18.2593 31.2827 9.97656 41.5 9.97656C51.7173 9.97656 60 18.2593 60 28.4766Z" fill="url(#paint0_linear_3761_381)"/>
<path d="M38.6364 28.1974H37.0455V25.0156H33.8636V28.1974H17.9545V25.0156H14.7727V28.1974H13.1818C11.4318 28.1974 10 29.6293 10 31.3793V56.8338C10 58.5838 11.4318 60.0156 13.1818 60.0156H38.6364C40.3864 60.0156 41.8182 58.5838 41.8182 56.8338V31.3793C41.8182 29.6293 40.3864 28.1974 38.6364 28.1974ZM38.6364 56.8338H13.1818V35.152H38.6364V56.8338Z" fill="#2F374A"/>
<path d="M23.2334 37.0312H28.2334V42.0312H23.2334V37.0312Z" fill="#2F374A"/>
<path d="M30.4209 37.0312H35.4209V42.0312H30.4209V37.0312Z" fill="#2F374A"/>
<path d="M16.0459 43.5156H21.0459V48.5156H16.0459V43.5156Z" fill="#2F374A"/>
<path d="M23.2334 43.5156H28.2334V48.5156H23.2334V43.5156Z" fill="#2F374A"/>
<path d="M30.4209 43.5156H35.4209V48.5156H30.4209V43.5156Z" fill="#2F374A"/>
<path d="M16.0459 50H21.0459V55H16.0459V50Z" fill="#2F374A"/>
<path d="M23.2334 50H28.2334V55H23.2334V50Z" fill="#2F374A"/>
<path d="M30.4209 50H35.4209V55H30.4209V50Z" fill="#F8C62C"/>
<defs>
<linearGradient id="paint0_linear_3761_381" x1="56.375" y1="17.2891" x2="27.5" y2="39.6016" gradientUnits="userSpaceOnUse">
<stop stop-color="#F8C62C"/>
<stop offset="1" stop-color="#F8C62C" stop-opacity="0"/>
</linearGradient>
</defs>
</svg>
