<svg width="70" height="70" viewBox="0 0 70 70" fill="none" xmlns="http://www.w3.org/2000/svg">
<circle opacity="0.7" cx="47.9688" cy="22.0312" r="18.5" fill="url(#paint0_linear_4888_142)"/>
<rect width="48.3004" height="5" transform="matrix(1 1.74846e-07 1.74846e-07 -1 10.8497 37.5)" fill="#D8D8D8"/>
<rect width="21.4761" height="5" transform="matrix(1 1.74846e-07 1.74846e-07 -1 10.8497 37.5)" fill="#2F374A"/>
<g filter="url(#filter0_d_4888_142)">
<path d="M31.7856 27.5C35.9278 27.5 39.2856 30.8579 39.2856 35C39.2856 39.1421 35.9278 42.5 31.7856 42.5C27.6435 42.5 24.2856 39.1421 24.2856 35C24.2856 30.8579 27.6435 27.5 31.7856 27.5Z" fill="#2F374A"/>
<path d="M31.7856 27.5C35.9278 27.5 39.2856 30.8579 39.2856 35C39.2856 39.1421 35.9278 42.5 31.7856 42.5C27.6435 42.5 24.2856 39.1421 24.2856 35C24.2856 30.8579 27.6435 27.5 31.7856 27.5Z" stroke="#D8D8D8"/>
</g>
<defs>
<filter id="filter0_d_4888_142" x="13.7856" y="18" width="36" height="36" filterUnits="userSpaceOnUse" color-interpolation-filters="sRGB">
<feFlood flood-opacity="0" result="BackgroundImageFix"/>
<feColorMatrix in="SourceAlpha" type="matrix" values="0 0 0 0 0 0 0 0 0 0 0 0 0 0 0 0 0 0 127 0" result="hardAlpha"/>
<feOffset dy="1"/>
<feGaussianBlur stdDeviation="5"/>
<feColorMatrix type="matrix" values="0 0 0 0 0 0 0 0 0 0 0 0 0 0 0 0 0 0 0.15 0"/>
<feBlend mode="normal" in2="BackgroundImageFix" result="effect1_dropShadow_4888_142"/>
<feBlend mode="normal" in="SourceGraphic" in2="effect1_dropShadow_4888_142" result="shape"/>
</filter>
<linearGradient id="paint0_linear_4888_142" x1="62.8437" y1="10.8438" x2="33.9688" y2="33.1563" gradientUnits="userSpaceOnUse">
<stop stop-color="#F8C62C"/>
<stop offset="1" stop-color="#F8C62C" stop-opacity="0"/>
</linearGradient>
</defs>
</svg>
