<svg width="117" height="99" viewBox="0 0 117 99" fill="none" xmlns="http://www.w3.org/2000/svg">
<path fill-rule="evenodd" clip-rule="evenodd" d="M30.5249 8.62732C27.986 8.62732 25.9279 10.6855 25.9279 13.2243C25.9279 15.7631 27.986 17.8212 30.5249 17.8212H53.7171C56.2499 17.8283 58.301 19.8837 58.301 22.4182C58.301 23.3629 58.016 24.2411 57.5273 24.9714L60.128 23.4702C61.6869 22.5704 63.6091 22.5779 65.161 23.4898L71.1596 27.0152H84.2775C81.7387 27.0152 79.6806 24.957 79.6806 22.4182C79.6806 19.8794 81.7387 17.8212 84.2775 17.8212H83.3906C85.9235 17.8142 87.9746 15.7588 87.9746 13.2243C87.9746 10.6855 85.9164 8.62732 83.3776 8.62732H30.5249ZM53.9867 27.0152L54.0034 27.0056C53.9044 27.0119 53.8046 27.0152 53.704 27.0152H53.9867ZM53.9867 27.0152L38.0591 36.2091H37.719L37.7116 36.2091L37.7105 36.2091C35.1755 36.2045 33.122 34.1482 33.122 31.6122C33.122 29.0733 35.1801 27.0152 37.719 27.0152H53.9867ZM87.0137 36.3323L71.1597 27.0152H112.153C114.692 27.0152 116.75 29.0733 116.75 31.6122C116.75 34.151 114.692 36.2091 112.153 36.2091H87.8822C87.8929 36.2091 87.9037 36.2092 87.9144 36.2093C87.9246 36.2094 87.9348 36.2095 87.945 36.2097L87.9745 36.2102C87.6445 36.2173 87.323 36.2592 87.0137 36.3323ZM22.1317 45.403L15.8977 49.0015C13.8079 50.2077 13.0297 52.5459 13.5571 54.5969L5.34696 54.5969C2.80813 54.5969 0.75 52.5388 0.75 50C0.75 47.4611 2.80813 45.403 5.34696 45.403H22.1317ZM100.665 8.62732C98.1262 8.62732 96.068 10.6855 96.068 13.2243C96.068 15.7631 98.1262 17.8212 100.665 17.8212H103.161C105.7 17.8212 107.758 15.7631 107.758 13.2243C107.758 10.6855 105.7 8.62732 103.161 8.62732H100.665ZM15.9335 64.6273C15.5148 64.3901 15.1479 64.1076 14.8328 63.7909H12.5409C10.0021 63.7909 7.94393 65.849 7.94393 68.3878C7.94393 70.9267 10.0021 72.9848 12.5409 72.9848H30.6914L15.9335 64.6273ZM60.2052 89.6987L47.24 82.3564C45.3187 82.9074 43.9128 84.6774 43.9128 86.7757C43.9128 89.3145 45.971 91.3727 48.5098 91.3727L92.3702 91.3727C94.9091 91.3727 96.9672 89.3145 96.9672 86.7757C96.9672 84.2369 94.9091 82.1787 92.3703 82.1787H78.1552L65.1695 89.6777C63.6353 90.5637 61.7468 90.5717 60.2052 89.6987ZM94.2618 72.8775L96.6596 71.4927C96.0325 72.177 95.201 72.6709 94.2618 72.8775ZM79.8467 81.2019L78.1552 82.1787H82.6681C81.6038 82.176 80.6246 81.8116 79.8467 81.2019Z" fill="#F0F0F0"/>
<path d="M61.0298 40.2324L108.953 68.3963L61.0698 96.0483L12.24 68.3956L61.0298 40.2324Z" stroke="#406098" stroke-width="2"/>
<path opacity="0.4" d="M59.8673 30.4149L15.637 55.9461C12.2873 57.8797 12.3072 62.7213 15.6727 64.6273L59.9445 89.6987C61.4861 90.5717 63.3746 90.5637 64.9088 89.6778L108.317 64.61C111.636 62.6939 111.654 57.9108 108.35 55.9694L64.9002 30.4345C63.3484 29.5225 61.4262 29.515 59.8673 30.4149Z" fill="#B6D4FF"/>
<line x1="11.251" y1="68.4084" x2="11.251" y2="31.645" stroke="#406098" stroke-width="2"/>
<path d="M62.0349 37.6545L62.0349 2.56977" stroke="#406098" stroke-width="2"/>
<path d="M110.94 69.5595V31.4688" stroke="#406098" stroke-width="2"/>
<circle cx="11.4028" cy="68.4085" r="1.5" fill="white" stroke="#406098" stroke-width="2"/>
<circle cx="61.6909" cy="95.5312" r="1.5" fill="white" stroke="#406098" stroke-width="2"/>
<circle cx="110.94" cy="68.1377" r="1.5" fill="white" stroke="#406098" stroke-width="2"/>
<circle cx="62.16" cy="61.0394" r="1.65873" fill="white"/>
<ellipse cx="51.7412" cy="66.9653" rx="4.72412" ry="3.0319" fill="#F8C62C"/>
<ellipse cx="61.7773" cy="60.9015" rx="4.72412" ry="3.0319" fill="#F8C62C"/>
<ellipse cx="72.0715" cy="54.8377" rx="4.72412" ry="3.0319" fill="#F8C62C"/>
<ellipse cx="82.0366" cy="48.4533" rx="4.72412" ry="3.0319" fill="#F8C62C"/>
<ellipse cx="61.5186" cy="72.653" rx="4.72412" ry="3.0319" fill="#F8C62C"/>
<ellipse cx="71.5544" cy="66.5892" rx="4.72412" ry="3.0319" fill="#F8C62C"/>
<ellipse cx="81.8491" cy="60.5254" rx="4.72412" ry="3.0319" fill="#F8C62C"/>
<ellipse cx="91.814" cy="54.141" rx="4.72412" ry="3.0319" fill="#F8C62C"/>
<ellipse cx="41.9641" cy="61.2944" rx="4.72412" ry="3.0319" fill="#F8C62C"/>
<ellipse cx="51.9998" cy="55.2306" rx="4.72412" ry="3.0319" fill="#F8C62C"/>
<ellipse cx="62.2944" cy="49.1668" rx="4.72412" ry="3.0319" fill="#F8C62C"/>
<ellipse cx="72.2595" cy="42.7824" rx="4.72412" ry="3.0319" fill="#F8C62C"/>
<ellipse cx="31.9988" cy="55.5126" rx="4.72412" ry="3.0319" fill="#F8C62C"/>
<ellipse cx="42.0347" cy="49.4488" rx="4.72412" ry="3.0319" fill="#F8C62C"/>
<ellipse cx="52.3289" cy="43.3851" rx="4.72412" ry="3.0319" fill="#F8C62C"/>
<ellipse cx="62.2944" cy="37.0006" rx="4.72412" ry="3.0319" fill="#F8C62C"/>
<path d="M61.2766 95.5312V61.0394" stroke="#406098" stroke-width="2"/>
<path d="M62.0834 2.70299L111.042 31.475L62.1242 59.7241L12.24 31.4743L62.0834 2.70299Z" stroke="#406098" stroke-width="2"/>
<circle cx="110.94" cy="31.4688" r="1.5" fill="white" stroke="#406098" stroke-width="2"/>
<circle cx="62.0349" cy="2.56976" r="1.5" fill="white" stroke="#406098" stroke-width="2"/>
<path fill-rule="evenodd" clip-rule="evenodd" d="M56.2368 68.5934L1.22876 37.4038L1.22876 31.7275C1.22876 31.7275 22.0425 26.433 25.9668 24.94C30.6921 23.1422 39.6081 21.9768 46.5139 26.0875C46.8564 26.2913 47.1981 26.4922 47.5373 26.6916L47.5376 26.6917C51.8314 29.2158 55.7209 31.5022 55.6538 36.614C56.839 36.6296 58.5059 36.1443 60.4946 35.5655C65.8677 34.0015 73.5895 31.7538 80.5062 36.8517C87.0876 41.7026 85.5338 52.6788 80.3464 56.2467L56.2368 68.5934ZM34.9467 42.8618L27.1687 38.434L32.5359 35.4954C33.7337 34.9887 36.8012 34.3603 39.4891 35.9002C42.1771 37.44 41.5351 39.2287 40.8781 39.9306L34.9467 42.8618ZM46.6474 49.3471L55.7945 54.5451C57.7507 53.5677 61.7768 51.5518 62.2313 51.3071C62.7996 51.0011 65.1426 49.2138 61.9178 46.5385C58.6931 43.8632 54.2207 45.4971 53.8421 45.6802C53.5393 45.8267 48.9194 48.1858 46.6474 49.3471Z" fill="#2F374A"/>
<path fill-rule="evenodd" clip-rule="evenodd" d="M56.2371 62.9063L1.229 31.7167C1.229 31.7167 21.2417 21.0506 25.967 19.2529C30.6924 17.4552 39.6084 16.2897 46.5142 20.4004C46.8568 20.6043 47.1986 20.8052 47.5378 21.0047C51.8317 23.5287 55.7212 25.8151 55.654 30.9269C56.3418 30.9359 57.171 30.8984 58.1169 30.8556C63.2046 30.6253 71.6675 30.2422 79.6585 36.132C86.2399 40.9828 85.5341 46.9917 80.3467 50.5596L56.2371 62.9063ZM34.947 37.1747L27.1689 32.747L32.5362 29.8083C33.7339 29.3017 36.8014 28.6733 39.4894 30.2131C42.1774 31.753 41.5353 33.5416 40.8783 34.2435L34.947 37.1747ZM46.6476 43.66L55.7947 48.858C57.7509 47.8807 61.777 45.8648 62.2316 45.62C62.7998 45.314 65.1428 43.5268 61.9181 40.8515C58.6934 38.1761 54.2209 39.81 53.8424 39.9931C53.5396 40.1396 48.9197 42.4987 46.6476 43.66Z" fill="#434E69"/>
<path fill-rule="evenodd" clip-rule="evenodd" d="M29.1238 12.7018L30.2212 12.0127L45.0764 21.375L43.535 22.0543V23.2776L48.9855 26.8634L51.7178 25.1477L66.4755 34.472L66.2719 34.5349V35.7648L69.5749 37.9378L73.3125 35.591V34.3628L69.9805 33.389L68.0586 33.9828L52.7854 24.4774L55.1531 22.9907V21.777L49.6548 19.3571L46.4532 20.7681L31.3323 11.315L32.8613 10.3549V9.16733L29.5294 8.15295L25.8208 9.33941V10.5288L29.1238 12.7018Z" fill="#2F374A"/>
<path fill-rule="evenodd" clip-rule="evenodd" d="M29.5294 6.92929L25.8208 9.30511L29.1238 11.4781L30.2211 10.7891L45.7965 20.6052L43.535 22.054L48.9855 25.6398L51.7178 23.9241L67.389 33.8256L66.2719 34.5412L69.5749 36.7142L73.3125 34.3674L69.9805 32.1654L68.5633 33.0733L52.7854 23.2538L55.1531 21.7671L49.6548 18.1335L46.9588 19.8606L31.3323 10.0914L32.8613 9.13127L29.5294 6.92929Z" fill="#406098"/>
</svg>
