<svg width="70" height="70" viewBox="0 0 70 70" fill="none" xmlns="http://www.w3.org/2000/svg">
<g clip-path="url(#clip0_3648_378)">
<path opacity="0.7" d="M60 28.4766C60 38.6938 51.7173 46.9766 41.5 46.9766C31.2827 46.9766 23 38.6938 23 28.4766C23 18.2593 31.2827 9.97656 41.5 9.97656C51.7173 9.97656 60 18.2593 60 28.4766Z" fill="url(#paint0_linear_3648_378)"/>
<path fill-rule="evenodd" clip-rule="evenodd" d="M26 29V21H27V29H26Z" fill="#2F374A"/>
<path fill-rule="evenodd" clip-rule="evenodd" d="M16.7164 26.2892C15.2927 26.2892 14.1435 25.14 14.1435 23.7163C14.1435 22.2926 15.2927 21.1434 16.7164 21.1434C18.1401 21.1434 19.2893 22.2926 19.2893 23.7163C19.2893 25.14 18.1401 26.2892 16.7164 26.2892V26.2892ZM20.1469 26.2893H19.6953L19.5352 26.1349C20.0955 25.4831 20.4328 24.6369 20.4328 23.7164C20.4328 21.6638 18.769 20 16.7164 20C14.6638 20 13 21.6638 13 23.7164C13 25.769 14.6638 27.4328 16.7164 27.4328C17.6369 27.4328 18.4831 27.0955 19.1349 26.5352L19.2893 26.6953V27.1469L22.1481 30L23 29.1481L20.1469 26.2893Z" fill="#2F374A"/>
<g filter="url(#filter0_d_3648_378)">
<path d="M10 33.5H59V60H34.8033H10V33.5Z" fill="white"/>
</g>
<path d="M10 34.4896H59V44.4896H10V34.4896Z" fill="#2F374A"/>
<path fill-rule="evenodd" clip-rule="evenodd" d="M13 39.4896C13 38.9373 13.5309 38.4896 14.1857 38.4896H53.3143C53.9691 38.4896 54.5 38.9373 54.5 39.4896C54.5 40.0418 53.9691 40.4896 53.3143 40.4896H14.1857C13.5309 40.4896 13 40.0418 13 39.4896Z" fill="white"/>
<path fill-rule="evenodd" clip-rule="evenodd" d="M13 49.4896C13 48.9373 13.4621 48.4896 14.0321 48.4896H48.0929C48.6629 48.4896 49.125 48.9373 49.125 49.4896C49.125 50.0419 48.6629 50.4896 48.0929 50.4896H14.0321C13.4621 50.4896 13 50.0419 13 49.4896Z" fill="#2F374A"/>
<path fill-rule="evenodd" clip-rule="evenodd" d="M13 55.4896C13 54.9373 13.5309 54.4896 14.1857 54.4896H53.3143C53.9691 54.4896 54.5 54.9373 54.5 55.4896C54.5 56.0419 53.9691 56.4896 53.3143 56.4896H14.1857C13.5309 56.4896 13 56.0419 13 55.4896Z" fill="#2F374A"/>
</g>
<defs>
<filter id="filter0_d_3648_378" x="0" y="25.5" width="69" height="46.5" filterUnits="userSpaceOnUse" color-interpolation-filters="sRGB">
<feFlood flood-opacity="0" result="BackgroundImageFix"/>
<feColorMatrix in="SourceAlpha" type="matrix" values="0 0 0 0 0 0 0 0 0 0 0 0 0 0 0 0 0 0 127 0" result="hardAlpha"/>
<feOffset dy="2"/>
<feGaussianBlur stdDeviation="5"/>
<feColorMatrix type="matrix" values="0 0 0 0 0 0 0 0 0 0 0 0 0 0 0 0 0 0 0.12 0"/>
<feBlend mode="normal" in2="BackgroundImageFix" result="effect1_dropShadow_3648_378"/>
<feBlend mode="normal" in="SourceGraphic" in2="effect1_dropShadow_3648_378" result="shape"/>
</filter>
<linearGradient id="paint0_linear_3648_378" x1="56.375" y1="17.2891" x2="27.5" y2="39.6016" gradientUnits="userSpaceOnUse">
<stop stop-color="#F8C62C"/>
<stop offset="1" stop-color="#F8C62C" stop-opacity="0"/>
</linearGradient>
<clipPath id="clip0_3648_378">
<rect width="70" height="70" fill="white"/>
</clipPath>
</defs>
</svg>
