<svg width="70" height="70" viewBox="0 0 70 70" fill="none" xmlns="http://www.w3.org/2000/svg">
<path opacity="0.7" d="M60 28.5C60 38.7173 51.7173 47 41.5 47C31.2827 47 23 38.7173 23 28.5C23 18.2827 31.2827 10 41.5 10C51.7173 10 60 18.2827 60 28.5Z" fill="url(#paint0_linear)"/>
<path d="M10 31C10 30.4477 10.4477 30 11 30H39C39.5523 30 40 30.4477 40 31V59C40 59.5523 39.5523 60 39 60H11C10.4477 60 10 59.5523 10 59V31Z" fill="#2F374A"/>
<path fill-rule="evenodd" clip-rule="evenodd" d="M12 32V58H38V32H12ZM11 30C10.4477 30 10 30.4477 10 31V59C10 59.5523 10.4477 60 11 60H39C39.5523 60 40 59.5523 40 59V31C40 30.4477 39.5523 30 39 30H11Z" fill="#2F374A"/>
<path d="M14.1304 53.9241V55.8387H36.0548V50.0025L29.9715 40.121L21.2944 52.0405L19.0749 47.9644L14.1304 53.9241Z" fill="white"/>
<path d="M21.9738 40.399C21.9738 42.5648 20.218 44.3206 18.0521 44.3206C15.8862 44.3206 14.1304 42.5648 14.1304 40.399C14.1304 38.2331 15.8862 36.4773 18.0521 36.4773C20.218 36.4773 21.9738 38.2331 21.9738 40.399Z" fill="white"/>
<defs>
<linearGradient id="paint0_linear" x1="56.375" y1="17.3125" x2="27.5" y2="39.625" gradientUnits="userSpaceOnUse">
<stop stop-color="#B6D4FF"/>
<stop offset="1" stop-color="#B6D4FF" stop-opacity="0"/>
</linearGradient>
</defs>
</svg>
