<svg width="70" height="70" viewBox="0 0 70 70" fill="none" xmlns="http://www.w3.org/2000/svg">
<circle opacity="0.7" cx="41.5" cy="28.5" r="18.5" fill="url(#paint0_linear)"/>
<rect width="30.3594" height="5.82071" transform="matrix(1 0 0 -1 10 45.3207)" fill="#2F374A"/>
<rect width="30.3594" height="5.82071" transform="matrix(1 0 0 -1 10 56.9622)" fill="#2F374A"/>
<path fill-rule="evenodd" clip-rule="evenodd" d="M11.1953 36C11.1953 35.4477 11.643 35 12.1953 35L18.1953 35C18.7476 35 19.1953 35.4477 19.1953 36C19.1953 36.5523 18.7476 37 18.1953 37L12.1953 37C11.643 37 11.1953 36.5523 11.1953 36Z" fill="#2F374A"/>
<path fill-rule="evenodd" clip-rule="evenodd" d="M21.1719 36C21.1719 35.4477 21.6196 35 22.1719 35L28.1719 35C28.7242 35 29.1719 35.4477 29.1719 36C29.1719 36.5523 28.7242 37 28.1719 37L22.1719 37C21.6196 37 21.1719 36.5523 21.1719 36Z" fill="#2F374A"/>
<path fill-rule="evenodd" clip-rule="evenodd" d="M31.1484 36C31.1484 35.4477 31.5962 35 32.1484 35L38.1484 35C38.7007 35 39.1484 35.4477 39.1484 36C39.1484 36.5523 38.7007 37 38.1484 37L32.1484 37C31.5962 37 31.1484 36.5523 31.1484 36Z" fill="#2F374A"/>
<path fill-rule="evenodd" clip-rule="evenodd" d="M11.6953 42.4103C11.6953 42.1342 11.9192 41.9103 12.1953 41.9103L18.1953 41.9103C18.4715 41.9103 18.6953 42.1342 18.6953 42.4103C18.6953 42.6865 18.4715 42.9103 18.1953 42.9103L12.1953 42.9103C11.9192 42.9103 11.6953 42.6865 11.6953 42.4103Z" fill="white"/>
<path fill-rule="evenodd" clip-rule="evenodd" d="M21.6719 42.4103C21.6719 42.1342 21.8957 41.9103 22.1719 41.9103L28.1719 41.9103C28.448 41.9103 28.6719 42.1342 28.6719 42.4103C28.6719 42.6865 28.448 42.9103 28.1719 42.9103L22.1719 42.9103C21.8957 42.9103 21.6719 42.6865 21.6719 42.4103Z" fill="white"/>
<path fill-rule="evenodd" clip-rule="evenodd" d="M31.6484 42.4103C31.6484 42.1342 31.8723 41.9103 32.1484 41.9103L38.1484 41.9103C38.4246 41.9103 38.6484 42.1342 38.6484 42.4103C38.6484 42.6865 38.4246 42.9103 38.1484 42.9103L32.1484 42.9103C31.8723 42.9103 31.6484 42.6865 31.6484 42.4103Z" fill="white"/>
<path fill-rule="evenodd" clip-rule="evenodd" d="M11.6953 54.0518C11.6953 53.7756 11.9192 53.5518 12.1953 53.5518L18.1953 53.5518C18.4715 53.5518 18.6953 53.7756 18.6953 54.0518C18.6953 54.3279 18.4715 54.5518 18.1953 54.5518L12.1953 54.5518C11.9192 54.5518 11.6953 54.3279 11.6953 54.0518Z" fill="white"/>
<path fill-rule="evenodd" clip-rule="evenodd" d="M21.6719 54.0518C21.6719 53.7756 21.8957 53.5518 22.1719 53.5518L28.1719 53.5518C28.448 53.5518 28.6719 53.7756 28.6719 54.0518C28.6719 54.3279 28.448 54.5518 28.1719 54.5518L22.1719 54.5518C21.8957 54.5518 21.6719 54.3279 21.6719 54.0518Z" fill="white"/>
<path fill-rule="evenodd" clip-rule="evenodd" d="M31.6484 54.0518C31.6484 53.7756 31.8723 53.5518 32.1484 53.5518L38.1484 53.5518C38.4246 53.5518 38.6484 53.7756 38.6484 54.0518C38.6484 54.3279 38.4246 54.5518 38.1484 54.5518L32.1484 54.5518C31.8723 54.5518 31.6484 54.3279 31.6484 54.0518Z" fill="white"/>
<path fill-rule="evenodd" clip-rule="evenodd" d="M11.6953 48.2311C11.6953 47.9549 11.9192 47.7311 12.1953 47.7311L18.1953 47.7311C18.4715 47.7311 18.6953 47.9549 18.6953 48.2311C18.6953 48.5072 18.4715 48.7311 18.1953 48.7311L12.1953 48.7311C11.9192 48.7311 11.6953 48.5072 11.6953 48.2311Z" fill="#2F374A"/>
<path fill-rule="evenodd" clip-rule="evenodd" d="M21.6719 48.2311C21.6719 47.9549 21.8957 47.7311 22.1719 47.7311L28.1719 47.7311C28.448 47.7311 28.6719 47.9549 28.6719 48.2311C28.6719 48.5072 28.448 48.7311 28.1719 48.7311L22.1719 48.7311C21.8957 48.7311 21.6719 48.5072 21.6719 48.2311Z" fill="#2F374A"/>
<path fill-rule="evenodd" clip-rule="evenodd" d="M31.6484 48.2311C31.6484 47.9549 31.8723 47.7311 32.1484 47.7311L38.1484 47.7311C38.4246 47.7311 38.6484 47.9549 38.6484 48.2311C38.6484 48.5072 38.4246 48.7311 38.1484 48.7311L32.1484 48.7311C31.8723 48.7311 31.6484 48.5072 31.6484 48.2311Z" fill="#2F374A"/>
<path fill-rule="evenodd" clip-rule="evenodd" d="M11.6953 59.5C11.6953 59.2239 11.9192 59 12.1953 59L18.1953 59C18.4715 59 18.6953 59.2239 18.6953 59.5C18.6953 59.7761 18.4715 60 18.1953 60L12.1953 60C11.9192 60 11.6953 59.7761 11.6953 59.5Z" fill="#2F374A"/>
<path fill-rule="evenodd" clip-rule="evenodd" d="M21.6719 59.5C21.6719 59.2239 21.8957 59 22.1719 59L28.1719 59C28.448 59 28.6719 59.2239 28.6719 59.5C28.6719 59.7761 28.448 60 28.1719 60L22.1719 60C21.8957 60 21.6719 59.7761 21.6719 59.5Z" fill="#2F374A"/>
<path fill-rule="evenodd" clip-rule="evenodd" d="M31.6484 59.5C31.6484 59.2239 31.8723 59 32.1484 59L38.1484 59C38.4246 59 38.6484 59.2239 38.6484 59.5C38.6484 59.7761 38.4246 60 38.1484 60L32.1484 60C31.8723 60 31.6484 59.7761 31.6484 59.5Z" fill="#2F374A"/>
<defs>
<linearGradient id="paint0_linear" x1="56.375" y1="17.3125" x2="27.5" y2="39.625" gradientUnits="userSpaceOnUse">
<stop stop-color="#B6D4FF"/>
<stop offset="1" stop-color="#B6D4FF" stop-opacity="0"/>
</linearGradient>
</defs>
</svg>
