<svg width="117" height="87" viewBox="0 0 117 87" fill="none" xmlns="http://www.w3.org/2000/svg">
<rect x="25.7915" y="1.62729" width="62.0467" height="9.19393" rx="4.59696" fill="#F0F0F0"/>
<rect x="95.9316" y="1.62729" width="11.6899" height="9.19393" rx="4.59696" fill="#F0F0F0"/>
<rect x="32.9856" y="20.0152" width="83.6281" height="9.19393" rx="4.59696" fill="#F0F0F0"/>
<path fill-rule="evenodd" clip-rule="evenodd" d="M53.5676 20.0152H86.141C83.6022 20.0152 81.5441 17.957 81.5441 15.4182C81.5441 12.8794 83.6022 10.8212 86.141 10.8212H53.5676C56.1065 10.8212 58.1646 12.8794 58.1646 15.4182C58.1646 17.957 56.1065 20.0152 53.5676 20.0152Z" fill="#F0F0F0"/>
<rect x="99.5286" y="47.5969" width="98.915" height="9.19392" rx="4.59696" transform="rotate(-180 99.5286 47.5969)" fill="#F0F0F0"/>
<rect x="97.7302" y="65.9848" width="89.9227" height="9.19392" rx="4.59696" transform="rotate(-180 97.7302 65.9848)" fill="#F0F0F0"/>
<rect x="96.8308" y="84.3726" width="53.0544" height="9.19392" rx="4.59696" transform="rotate(-180 96.8308 84.3726)" fill="#F0F0F0"/>
<path fill-rule="evenodd" clip-rule="evenodd" d="M95.8423 65.9848C95.8383 65.9848 95.8343 65.9848 95.8303 65.9848L37.5822 65.9847L37.5679 65.9848L49.9701 65.9848C52.5089 65.9848 54.567 68.0429 54.567 70.5817C54.567 73.1158 52.5167 75.1709 49.9844 75.1787L82.5317 75.1787C79.9984 75.1722 77.9468 73.1165 77.9468 70.5817C77.9468 68.0429 80.0049 65.9848 82.5438 65.9848L95.8423 65.9848Z" fill="#F0F0F0"/>
<path fill-rule="evenodd" clip-rule="evenodd" d="M42.877 33.8061C42.877 36.3438 40.8207 38.4012 38.2834 38.403L87.7373 38.403C87.771 38.403 87.8046 38.4027 87.8381 38.4019C85.3458 38.3483 83.3419 36.3112 83.3419 33.8061C83.3419 31.3009 85.3458 29.2638 87.8381 29.2102C87.8046 29.2095 87.771 29.2091 87.7373 29.2091L29.4892 29.2091L29.484 29.2091L38.2801 29.2091C40.8189 29.2091 42.877 31.2672 42.877 33.8061Z" fill="#F0F0F0"/>
<path fill-rule="evenodd" clip-rule="evenodd" d="M80.7451 47.5969L0.714043 47.5969L0.709809 47.5969L22.0939 47.5969C24.6327 47.5969 26.6908 49.655 26.6908 52.1939C26.6908 54.7327 24.6327 56.7908 22.0939 56.7908L80.7451 56.7908C78.2063 56.7908 76.1482 54.7327 76.1482 52.1939C76.1482 49.655 78.2063 47.5969 80.7451 47.5969Z" fill="#F0F0F0"/>
<path d="M64.3574 33.5523L64.3574 0.617218" stroke="#406098" stroke-width="2"/>
<circle cx="64.3574" cy="33.8969" r="1.5" fill="white" stroke="#406098" stroke-width="2"/>
<circle cx="11.2466" cy="26.7546" r="1.5" fill="white" stroke="#406098" stroke-width="2"/>
<path d="M64.3599 0.0144653L11.2466 27.4363L58.0864 53.8777L111.008 26.4922L64.3599 0.0144653Z" fill="#FAD687"/>
<circle cx="58.0825" cy="52.5406" r="1.5" fill="white" stroke="#406098" stroke-width="2"/>
<path d="M57.9688 53.5547L111 26.4922V59.7344L57.9688 86.7969V53.5547Z" fill="#F4C061"/>
<path d="M11.4336 27.1367L58.1523 53.5117V86.7696L11.4336 60.3946V27.1367Z" fill="#E9B048"/>
<g style="mix-blend-mode:darken" opacity="0.15">
<path d="M58.1296 64.2539L11.2578 37.793V45.0078L58.1296 71V64.2539Z" fill="#845B10"/>
</g>
<g style="mix-blend-mode:darken" opacity="0.15">
<path d="M58.1328 53.2695L86.24 39.1431V57.3423L58.1328 71V53.2695Z" fill="#845B10"/>
</g>
<path fill-rule="evenodd" clip-rule="evenodd" d="M58.0081 64.2953L3 33.1057L3 27.4294C3 27.4294 23.8138 22.1349 27.738 20.6419C32.4634 18.8442 41.3794 17.6787 48.2852 21.7894C48.6277 21.9933 48.9694 22.1942 49.3086 22.3935L49.3088 22.3937C53.6027 24.9177 57.4921 27.2041 57.425 32.3159C58.6102 32.3315 60.2772 31.8463 62.2659 31.2674C67.6389 29.7034 75.3608 27.4558 82.2774 32.5537C88.8588 37.4045 87.3051 48.3808 82.1177 51.9486L58.0081 64.2953ZM36.718 38.5637L28.9399 34.136L34.3071 31.1973C35.5049 30.6907 38.5724 30.0623 41.2604 31.6021C43.9483 33.142 43.3063 34.9306 42.6493 35.6325L36.718 38.5637ZM48.4186 45.049L57.5657 50.247C59.5219 49.2697 63.548 47.2538 64.0026 47.009C64.5708 46.703 66.9138 44.9158 63.6891 42.2405C60.4643 39.5651 55.9919 41.199 55.6134 41.3821C55.3105 41.5286 50.6907 43.8878 48.4186 45.049Z" fill="#2F374A"/>
<path fill-rule="evenodd" clip-rule="evenodd" d="M58.0081 58.5978L3 27.4082C3 27.4082 23.0127 16.7421 27.738 14.9444C32.4634 13.1467 41.3794 11.9812 48.2852 16.0919C48.6278 16.2958 48.9695 16.4967 49.3088 16.6962C53.6027 19.2202 57.4921 21.5066 57.425 26.6184C58.1128 26.6274 58.942 26.5899 59.8879 26.5471C64.9756 26.3168 73.4385 25.9337 81.4295 31.8235C88.0109 36.6743 87.3051 42.6832 82.1177 46.2511L58.0081 58.5978ZM36.718 32.8662L28.9399 28.4385L34.3072 25.4998C35.5049 24.9932 38.5724 24.3648 41.2604 25.9046C43.9484 27.4445 43.3063 29.2331 42.6493 29.935L36.718 32.8662ZM48.4186 39.3515L57.5657 44.5495C59.5219 43.5722 63.548 41.5563 64.0026 41.3115C64.5708 41.0055 66.9138 39.2183 63.6891 36.543C60.4644 33.8676 55.9919 35.5015 55.6134 35.6846C55.3106 35.8311 50.6907 38.1902 48.4186 39.3515Z" fill="#434E69"/>
</svg>
