<svg width="70" height="70" viewBox="0 0 70 70" fill="none" xmlns="http://www.w3.org/2000/svg">
<path opacity="0.7" d="M60 28.5C60 38.7173 51.7173 47 41.5 47C31.2827 47 23 38.7173 23 28.5C23 18.2827 31.2827 10 41.5 10C51.7173 10 60 18.2827 60 28.5Z" fill="url(#paint0_linear_1085_0)"/>
<path fill-rule="evenodd" clip-rule="evenodd" d="M10.9523 26.9444V28H10.0078V26H12.0078V26.9444H10.9523ZM14.73 26H12.8411V28H14.73V26ZM10.0078 58V60H12.0078V59.0556H10.9523V58H10.0078ZM42.0078 60H44.0078V58H43.0634V59.0556H42.0078V60ZM44.0078 28V26H42.0078V26.9444H43.0634V28H44.0078ZM16.6189 26V28H18.5078V26H16.6189ZM20.3967 26V28H22.2856V26H20.3967ZM24.1745 26V28H26.0634V26H24.1745ZM27.9523 26V28H29.8411V26H27.9523ZM31.73 26V28H33.6189V26H31.73ZM35.5078 26V28H37.3967V26H35.5078ZM39.2856 26V28H41.1745V26H39.2856ZM44.0078 28.8333H42.0078V30.7222H44.0078V28.8333ZM44.0078 32.6111H42.0078V34.5H44.0078V32.6111ZM44.0078 36.3889H42.0078V38.2778H44.0078V36.3889ZM44.0078 40.1667H42.0078V42.0556H44.0078V40.1667ZM44.0078 43.9444H42.0078V45.8333H44.0078V43.9444ZM44.0078 47.7222H42.0078V49.6111H44.0078V47.7222ZM44.0078 51.5H42.0078V53.3889H44.0078V51.5ZM44.0078 55.2778H42.0078V57.1667H44.0078V55.2778ZM41.1745 60V58H39.2856V60H41.1745ZM37.3967 60V58H35.5078V60H37.3967ZM33.6189 60V58H31.73V60H33.6189ZM29.8411 60V58H27.9523V60H29.8411ZM26.0634 60V58H24.1745V60H26.0634ZM22.2856 60V58H20.3967V60H22.2856ZM18.5078 60V58H16.6189V60H18.5078ZM14.73 60V58H12.8411V60H14.73ZM10.0078 57.1667H12.0078V55.2778H10.0078V57.1667ZM10.0078 53.3889H12.0078V51.5H10.0078V53.3889ZM10.0078 49.6111H12.0078V47.7222H10.0078V49.6111ZM10.0078 45.8333H12.0078V43.9444H10.0078V45.8333ZM10.0078 42.0556H12.0078V40.1667H10.0078V42.0556ZM10.0078 38.2778H12.0078V36.3889H10.0078V38.2778ZM10.0078 34.5H12.0078V32.6111H10.0078V34.5ZM10.0078 30.7222H12.0078V28.8333H10.0078V30.7222Z" fill="#2F374A"/>
<path d="M12.005 28.0039H18.005V34.0039H12.005V28.0039Z" fill="#D8D8D8"/>
<path d="M11.9972 52H17.9972V58H11.9972V52Z" fill="#D8D8D8"/>
<path d="M35.994 28.0078H41.994V34.0078H35.994V28.0078Z" fill="#D8D8D8"/>
<path d="M36.0078 52H42.0078V58H36.0078V52Z" fill="#D8D8D8"/>
<rect x="18" y="34.003" width="17.994" height="17.994" fill="#2F374A"/>
<defs>
<linearGradient id="paint0_linear_1085_0" x1="56.375" y1="17.3125" x2="27.5" y2="39.625" gradientUnits="userSpaceOnUse">
<stop stop-color="#F8C62C"/>
<stop offset="1" stop-color="#F8C62C" stop-opacity="0"/>
</linearGradient>
</defs>
</svg>
