<svg width="70" height="70" viewBox="0 0 70 70" fill="none" xmlns="http://www.w3.org/2000/svg">
<path opacity="0.7" d="M60 28.5104C60 38.7277 51.7173 47.0104 41.5 47.0104C31.2827 47.0104 23 38.7277 23 28.5104C23 18.2931 31.2827 10.0104 41.5 10.0104C51.7173 10.0104 60 18.2931 60 28.5104Z" fill="url(#paint0_linear_2833_486)"/>
<path fill-rule="evenodd" clip-rule="evenodd" d="M58 31.0706H12V58.0706H58V31.0706ZM10 29.0706V60.0706H60V29.0706H10Z" fill="#2F374A"/>
<path d="M23.7639 47.9742C23.7639 47.4599 23.637 47.0563 23.3831 46.7633C23.1292 46.4703 22.6832 46.1936 22.0452 45.9332C21.4071 45.6728 20.818 45.4091 20.2776 45.1422C19.7372 44.8753 19.2717 44.566 18.8811 44.2145C18.4905 43.8629 18.191 43.456 17.9827 42.9938C17.7743 42.5315 17.6702 41.9716 17.6702 41.3141C17.6702 40.2138 18.0413 39.3089 18.7834 38.5992C19.5256 37.8831 20.5152 37.4664 21.7522 37.3492V35.2887H23.3049V37.3883C24.4963 37.5641 25.4306 38.0556 26.1077 38.8629C26.7913 39.6637 27.1331 40.6826 27.1331 41.9196H23.8323C23.8323 41.2425 23.7021 40.7216 23.4417 40.3571C23.1812 39.9925 22.8101 39.8102 22.3284 39.8102C21.8987 39.8102 21.5634 39.9469 21.3225 40.2203C21.0881 40.4873 20.9709 40.8584 20.9709 41.3336C20.9709 41.8154 21.1077 42.1995 21.3811 42.486C21.6545 42.7659 22.094 43.0361 22.6995 43.2965C23.3049 43.5504 23.8746 43.8173 24.4084 44.0973C24.9488 44.3707 25.4143 44.6832 25.8049 45.0348C26.1956 45.3864 26.5015 45.7965 26.7229 46.2653C26.9443 46.734 27.0549 47.2972 27.0549 47.9547C27.0549 49.068 26.7001 49.9762 25.9905 50.6793C25.2874 51.3824 24.3271 51.7926 23.1096 51.9098V53.8727H21.5569V51.9C20.1376 51.7503 19.0471 51.2653 18.2854 50.4449C17.5302 49.6181 17.1526 48.5309 17.1526 47.1832H20.4436C20.4436 47.9254 20.6064 48.4918 20.9319 48.8824C21.2639 49.2666 21.7327 49.4586 22.3381 49.4586C22.7808 49.4586 23.1292 49.3284 23.3831 49.068C23.637 48.8011 23.7639 48.4365 23.7639 47.9742Z" fill="#2F374A"/>
<path d="M43.5076 46.217H37.6384V43.6682H43.5076V46.217Z" fill="#2F374A"/>
<path d="M51.5115 46.217H45.6423V43.6682H51.5115V46.217Z" fill="#2F374A"/>
<defs>
<linearGradient id="paint0_linear_2833_486" x1="56.375" y1="17.3229" x2="27.5" y2="39.6354" gradientUnits="userSpaceOnUse">
<stop stop-color="#F8C62C"/>
<stop offset="1" stop-color="#F8C62C" stop-opacity="0"/>
</linearGradient>
</defs>
</svg>
