<svg width="70" height="70" viewBox="0 0 70 70" fill="none" xmlns="http://www.w3.org/2000/svg">
<path opacity="0.7" d="M66.4688 22.0312C66.4688 32.2485 58.186 40.5312 47.9688 40.5312C37.7515 40.5312 29.4688 32.2485 29.4688 22.0312C29.4688 11.814 37.7515 3.53125 47.9688 3.53125C58.186 3.53125 66.4688 11.814 66.4688 22.0312Z" fill="url(#paint0_linear)"/>
<path fill-rule="evenodd" clip-rule="evenodd" d="M58 21.5H12V48.5H58V21.5ZM10 19.5V50.5H60V19.5H10Z" fill="#2F374A"/>
<path d="M23.7639 38.4037C23.7639 37.8893 23.637 37.4857 23.3831 37.1927C23.1292 36.8997 22.6832 36.6231 22.0452 36.3626C21.4071 36.1022 20.818 35.8386 20.2776 35.5716C19.7372 35.3047 19.2717 34.9955 18.8811 34.6439C18.4905 34.2923 18.191 33.8854 17.9827 33.4232C17.7743 32.9609 17.6702 32.4011 17.6702 31.7435C17.6702 30.6432 18.0413 29.7383 18.7834 29.0287C19.5256 28.3125 20.5152 27.8958 21.7522 27.7787V25.7181H23.3049V27.8177C24.4963 27.9935 25.4306 28.485 26.1077 29.2923C26.7913 30.0931 27.1331 31.112 27.1331 32.349H23.8323C23.8323 31.6719 23.7021 31.1511 23.4417 30.7865C23.1812 30.4219 22.8101 30.2396 22.3284 30.2396C21.8987 30.2396 21.5634 30.3763 21.3225 30.6497C21.0881 30.9167 20.9709 31.2878 20.9709 31.763C20.9709 32.2448 21.1077 32.6289 21.3811 32.9154C21.6545 33.1953 22.094 33.4655 22.6995 33.7259C23.3049 33.9798 23.8746 34.2468 24.4084 34.5267C24.9488 34.8001 25.4143 35.1126 25.8049 35.4642C26.1956 35.8158 26.5015 36.2259 26.7229 36.6947C26.9443 37.1634 27.0549 37.7266 27.0549 38.3841C27.0549 39.4974 26.7001 40.4056 25.9905 41.1087C25.2874 41.8119 24.3271 42.222 23.1096 42.3392V44.3021H21.5569V42.3294C20.1376 42.1797 19.0471 41.6947 18.2854 40.8744C17.5302 40.0475 17.1526 38.9603 17.1526 37.6126H20.4436C20.4436 38.3548 20.6064 38.9212 20.9319 39.3119C21.2639 39.696 21.7327 39.888 22.3381 39.888C22.7808 39.888 23.1292 39.7578 23.3831 39.4974C23.637 39.2305 23.7639 38.8659 23.7639 38.4037Z" fill="#2F374A"/>
<path d="M43.5076 36.6465H37.6384V34.0977H43.5076V36.6465Z" fill="#2F374A"/>
<path d="M51.5115 36.6465H45.6423V34.0977H51.5115V36.6465Z" fill="#2F374A"/>
<defs>
<linearGradient id="paint0_linear" x1="62.8437" y1="10.8438" x2="33.9688" y2="33.1563" gradientUnits="userSpaceOnUse">
<stop stop-color="#B6D4FF"/>
<stop offset="1" stop-color="#B6D4FF" stop-opacity="0"/>
</linearGradient>
</defs>
</svg>
