<svg width="70" height="70" viewBox="0 0 70 70" fill="none" xmlns="http://www.w3.org/2000/svg">
<circle opacity="0.7" cx="41.5" cy="28.5" r="18.5" fill="url(#paint0_linear_2813_911)"/>
<rect x="10.0847" y="35.0057" width="12.2132" height="6.54787" fill="#D8D8D8"/>
<rect x="10.0847" y="40.8987" width="12.21" height="0.654787" fill="#2F374A"/>
<path fill-rule="evenodd" clip-rule="evenodd" d="M13.7205 38.2796C13.7205 38.0035 13.867 37.7796 14.0479 37.7796L18.3347 37.7796C18.5155 37.7796 18.6621 38.0035 18.6621 38.2796C18.6621 38.5558 18.5155 38.7796 18.3347 38.7796L14.0479 38.7796C13.867 38.7796 13.7205 38.5558 13.7205 38.2796Z" fill="#2F374A"/>
<path fill-rule="evenodd" clip-rule="evenodd" d="M10.0847 47.1014C10.0847 46.5491 10.6574 46.1014 11.3639 46.1014H57.734C58.4405 46.1014 59.0132 46.5491 59.0132 47.1014C59.0132 47.6537 58.4405 48.1014 57.734 48.1014H11.3639C10.6574 48.1014 10.0847 47.6537 10.0847 47.1014Z" fill="#2F374A"/>
<path fill-rule="evenodd" clip-rule="evenodd" d="M10.0847 53.0507C10.0847 52.4984 10.6574 52.0507 11.3639 52.0507H57.734C58.4405 52.0507 59.0132 52.4984 59.0132 53.0507C59.0132 53.603 58.4405 54.0507 57.734 54.0507H11.3639C10.6574 54.0507 10.0847 53.603 10.0847 53.0507Z" fill="#2F374A"/>
<path fill-rule="evenodd" clip-rule="evenodd" d="M10.0847 59C10.0847 58.4477 10.5594 58 11.1449 58H33.4746C34.0601 58 34.5347 58.4477 34.5347 59C34.5347 59.5523 34.0601 60 33.4746 60H11.1449C10.5594 60 10.0847 59.5523 10.0847 59Z" fill="#2F374A"/>
<path fill-rule="evenodd" clip-rule="evenodd" d="M25.9336 38.2796C25.9336 38.0035 26.0802 37.7796 26.261 37.7796L30.5478 37.7796C30.7286 37.7796 30.8752 38.0035 30.8752 38.2796C30.8752 38.5557 30.7286 38.7796 30.5478 38.7796L26.261 38.7796C26.0802 38.7796 25.9336 38.5557 25.9336 38.2796Z" fill="#2F374A"/>
<path fill-rule="evenodd" clip-rule="evenodd" d="M38.147 38.2796C38.147 38.0035 38.2936 37.7796 38.4744 37.7796L42.7612 37.7796C42.942 37.7796 43.0886 38.0035 43.0886 38.2796C43.0886 38.5557 42.942 38.7796 42.7612 38.7796L38.4744 38.7796C38.2936 38.7796 38.147 38.5557 38.147 38.2796Z" fill="#2F374A"/>
<path fill-rule="evenodd" clip-rule="evenodd" d="M50.3601 38.2796C50.3601 38.0035 50.5067 37.7796 50.6875 37.7796L54.9743 37.7796C55.1551 37.7796 55.3017 38.0035 55.3017 38.2796C55.3017 38.5557 55.1551 38.7796 54.9743 38.7796L50.6875 38.7796C50.5067 38.7796 50.3601 38.5557 50.3601 38.2796Z" fill="#2F374A"/>
<defs>
<linearGradient id="paint0_linear_2813_911" x1="56.375" y1="17.3125" x2="27.5" y2="39.625" gradientUnits="userSpaceOnUse">
<stop stop-color="#F8C62C"/>
<stop offset="1" stop-color="#F8C62C" stop-opacity="0"/>
</linearGradient>
</defs>
</svg>
