<svg width="70" height="70" viewBox="0 0 70 70" fill="none" xmlns="http://www.w3.org/2000/svg">
<path opacity="0.7" d="M60 28.5C60 38.7173 51.7173 47 41.5 47C31.2827 47 23 38.7173 23 28.5C23 18.2827 31.2827 10 41.5 10C51.7173 10 60 18.2827 60 28.5Z" fill="url(#paint0_linear)"/>
<path fill-rule="evenodd" clip-rule="evenodd" d="M10.9444 26.9444V28H10V26H12V26.9444H10.9444ZM14.7222 26H12.8333V28H14.7222V26ZM10 58V60H12V59.0556H10.9444V58H10ZM42 60H44V58H43.0556V59.0556H42V60ZM44 28V26H42V26.9444H43.0556V28H44ZM16.6111 26V28H18.5V26H16.6111ZM20.3889 26V28H22.2778V26H20.3889ZM24.1667 26V28H26.0556V26H24.1667ZM27.9444 26V28H29.8333V26H27.9444ZM31.7222 26V28H33.6111V26H31.7222ZM35.5 26V28H37.3889V26H35.5ZM39.2778 26V28H41.1667V26H39.2778ZM44 28.8333H42V30.7222H44V28.8333ZM44 32.6111H42V34.5H44V32.6111ZM44 36.3889H42V38.2778H44V36.3889ZM44 40.1667H42V42.0556H44V40.1667ZM44 43.9444H42V45.8333H44V43.9444ZM44 47.7222H42V49.6111H44V47.7222ZM44 51.5H42V53.3889H44V51.5ZM44 55.2778H42V57.1667H44V55.2778ZM41.1667 60V58H39.2778V60H41.1667ZM37.3889 60V58H35.5V60H37.3889ZM33.6111 60V58H31.7222V60H33.6111ZM29.8333 60V58H27.9444V60H29.8333ZM26.0556 60V58H24.1667V60H26.0556ZM22.2778 60V58H20.3889V60H22.2778ZM18.5 60V58H16.6111V60H18.5ZM14.7222 60V58H12.8333V60H14.7222ZM10 57.1667H12V55.2778H10V57.1667ZM10 53.3889H12V51.5H10V53.3889ZM10 49.6111H12V47.7222H10V49.6111ZM10 45.8333H12V43.9444H10V45.8333ZM10 42.0556H12V40.1667H10V42.0556ZM10 38.2778H12V36.3889H10V38.2778ZM10 34.5H12V32.6111H10V34.5ZM10 30.7222H12V28.8333H10V30.7222Z" fill="#2F374A"/>
<path d="M18.0078 34H36.0078V52H18.0078V34Z" fill="#2F374A"/>
<path d="M12.005 28.0039H18.005V34.0039H12.005V28.0039Z" fill="#D8D8D8"/>
<path d="M11.9972 52H17.9972V58H11.9972V52Z" fill="#D8D8D8"/>
<path d="M35.994 28.0078H41.994V34.0078H35.994V28.0078Z" fill="#D8D8D8"/>
<path d="M36.0078 52H42.0078V58H36.0078V52Z" fill="#D8D8D8"/>
<defs>
<linearGradient id="paint0_linear" x1="56.375" y1="17.3125" x2="27.5" y2="39.625" gradientUnits="userSpaceOnUse">
<stop stop-color="#B6D4FF"/>
<stop offset="1" stop-color="#B6D4FF" stop-opacity="0"/>
</linearGradient>
</defs>
</svg>
