<svg width="70" height="70" viewBox="0 0 70 70" fill="none" xmlns="http://www.w3.org/2000/svg">
<path opacity="0.7" d="M60 28.5C60 38.7173 51.7173 47 41.5 47C31.2827 47 23 38.7173 23 28.5C23 18.2827 31.2827 10 41.5 10C51.7173 10 60 18.2827 60 28.5Z" fill="url(#paint0_linear_2813_622)"/>
<path d="M10 29H19.1958V38.2172H10V29Z" fill="#2F374A"/>
<path d="M10 50.7828H19.1958V60H10V50.7828Z" fill="#2F374A"/>
<path d="M10 39.8914H19.1958V49.1086H10V39.8914Z" fill="#2F374A"/>
<path d="M31.8042 29H41V38.2172H31.8042V29Z" fill="#2F374A"/>
<path d="M31.8042 50.7828H41V60H31.8042V50.7828Z" fill="#2F374A"/>
<path d="M31.8042 39.8914H41V49.1086H31.8042V39.8914Z" fill="#2F374A"/>
<path d="M20.9021 29H30.0979V38.2172H20.9021V29Z" fill="#2F374A"/>
<path d="M20.9021 50.7828H30.0979V60H20.9021V50.7828Z" fill="#2F374A"/>
<path d="M20.9021 39.8914H30.0979V49.1086H20.9021V39.8914Z" fill="#2F374A"/>
<defs>
<linearGradient id="paint0_linear_2813_622" x1="56.375" y1="17.3125" x2="27.5" y2="39.625" gradientUnits="userSpaceOnUse">
<stop stop-color="#F8C62C"/>
<stop offset="1" stop-color="#F8C62C" stop-opacity="0"/>
</linearGradient>
</defs>
</svg>
