<svg width="24" height="24" viewBox="0 0 24 24" fill="none" xmlns="http://www.w3.org/2000/svg">
<g clip-path="url(#clip0)">
<path d="M12.0001 23.9999L0.247559 16.3917V7.60821L12.0001 0L23.7526 7.60821V16.3917L12.0001 23.9999ZM2.72177 15.0309L12.0001 21.0308L21.2784 15.0309V8.96903L12.0001 2.96906L2.72177 8.96903V15.0309Z" fill="#2F374A"/>
<path d="M12.0001 17.1956L0.742432 9.27808L2.22696 7.29871L12.0001 14.2265L21.7733 7.29871L23.2578 9.27808L12.0001 17.1956Z" fill="#2F374A"/>
<path d="M21.835 16.7009L12 9.89679L2.16502 16.7009L0.804199 14.7215L12 6.92773L23.1958 14.7215L21.835 16.7009Z" fill="#2F374A"/>
<path d="M10.7632 2.10315H13.2374V8.35054H10.7632V2.10315ZM10.7632 15.6495H13.2374V21.8969H10.7632V15.6495Z" fill="#2F374A"/>
</g>
<defs>
<clipPath id="clip0">
<rect width="24" height="24" fill="white"/>
</clipPath>
</defs>
</svg>
