<svg width="72" height="96" viewBox="0 0 72 96" fill="none" xmlns="http://www.w3.org/2000/svg">
<g clip-path="url(#clip0_5145_916)">
<path d="M0 2V94C0 95.1 0.9 96 2 96H70C71.1 96 72 95.1 72 94V28H50C48.9 28 48 27.1 48 26V0H2C0.9 0 0 0.9 0 2Z" fill="#6DDCB4"/>
<path d="M71.9 24C71.8 23.6 71.7 23.3 71.5 23L52 1.2V24H71.9Z" fill="#6DDCB4"/>
<path d="M66 41H6V90H66V41Z" fill="white"/>
<path fill-rule="evenodd" clip-rule="evenodd" d="M34.807 52.8772C36.1383 52.8772 37.3328 52.2911 38.1463 51.3628L48.1228 55.0085C48.123 55.0978 48.1258 55.1865 48.1312 55.2745L38.327 58.8572C37.5156 57.8025 36.2407 57.1228 34.807 57.1228C33.3712 57.1228 32.0945 57.8046 31.2832 58.8621L21.8578 55.4178C21.8706 55.2802 21.8772 55.1409 21.8772 55C21.8772 54.9538 21.8765 54.9078 21.8751 54.862L31.4636 51.358C32.2772 52.2891 33.4734 52.8772 34.807 52.8772ZM30.3895 48.874C30.3756 48.7308 30.3684 48.5855 30.3684 48.4386C30.3684 45.9872 32.3557 44 34.807 44C37.2584 44 39.2456 45.9872 39.2456 48.4386C39.2456 48.5876 39.2383 48.7349 39.2239 48.8801L48.9413 52.4311C49.7457 51.2996 51.0674 50.5614 52.5614 50.5614C55.0128 50.5614 57 52.5486 57 55C57 56.9803 55.7031 58.6578 53.9123 59.2293V72.7707C55.7031 73.3422 57 75.0197 57 77C57 79.4514 55.0128 81.4386 52.5614 81.4386C51.0821 81.4386 49.7718 80.7149 48.9653 79.6023L39.2278 83.1607C39.2396 83.2927 39.2456 83.4263 39.2456 83.5614C39.2456 86.0128 37.2584 88 34.807 88C32.3557 88 30.3684 86.0128 30.3684 83.5614C30.3684 83.4284 30.3743 83.2968 30.3857 83.1668L20.948 79.7179C20.136 80.7648 18.866 81.4386 17.4386 81.4386C14.9872 81.4386 13 79.4514 13 77C13 75.0197 14.2969 73.3422 16.0877 72.7707V59.2293C14.2969 58.6578 13 56.9803 13 55C13 52.5486 14.9872 50.5614 17.4386 50.5614C18.8809 50.5614 20.1626 51.2493 20.9733 52.315L30.3895 48.874ZM31.4358 80.674C31.9656 80.0561 32.6624 79.5855 33.4561 79.3321V65.7907C31.6653 65.2192 30.3684 63.5417 30.3684 61.5614C30.3684 61.5092 30.3693 61.4571 30.3711 61.4053L20.7941 57.9056C20.2663 58.5146 19.5755 58.9784 18.7895 59.2293V72.7707C20.5803 73.3422 21.8772 75.0197 21.8772 77C21.8772 77.0602 21.876 77.1201 21.8736 77.1797L31.4358 80.674ZM48.1229 77.0336L38.1741 80.6692C37.6448 80.0536 36.9496 79.5848 36.1579 79.3321V65.7907C37.9487 65.2192 39.2456 63.5417 39.2456 61.5614C39.2456 61.5071 39.2446 61.453 39.2427 61.3991L49.1114 57.7928C49.65 58.4573 50.3767 58.9632 51.2105 59.2293V72.7707C49.4197 73.3422 48.1228 75.0197 48.1228 77L48.1229 77.0336Z" fill="#6DDCB4"/>
<path d="M32.3786 21L38.2451 9.38068V9.28835H31.3843V6.45454H41.8815V9.30966L35.9937 21H32.3786Z" fill="white"/>
<path d="M24.5844 21.1989C23.5238 21.1989 22.5815 21.0071 21.7577 20.6236C20.9338 20.2401 20.2828 19.7121 19.8045 19.0398C19.3311 18.3674 19.0848 17.5956 19.0659 16.7244H22.475C22.5034 17.2595 22.7212 17.6903 23.1284 18.017C23.5356 18.339 24.0209 18.5 24.5844 18.5C25.0247 18.5 25.4153 18.4029 25.7563 18.2088C26.0972 18.0147 26.3647 17.7424 26.5588 17.392C26.7529 17.0369 26.8476 16.6297 26.8429 16.1705C26.8476 15.7017 26.7506 15.2921 26.5517 14.9418C26.3576 14.5914 26.0877 14.3191 25.742 14.125C25.4011 13.9261 25.0081 13.8267 24.5631 13.8267C24.1417 13.822 23.7416 13.9143 23.3628 14.1037C22.9887 14.2931 22.7046 14.5511 22.5105 14.8778L19.4068 14.2955L20.0389 6.45454H29.3713V9.28835H22.9295L22.5957 12.7187H22.681C22.9224 12.3163 23.3107 11.9848 23.8457 11.7244C24.3855 11.4593 24.9987 11.3267 25.6852 11.3267C26.5564 11.3267 27.333 11.5303 28.0148 11.9375C28.7013 12.34 29.2411 12.8987 29.6341 13.6136C30.0318 14.3286 30.2307 15.1477 30.2307 16.071C30.2307 17.0701 29.9939 17.9555 29.5205 18.7273C29.0517 19.4991 28.3936 20.1051 27.546 20.5455C26.7032 20.9811 25.716 21.1989 24.5844 21.1989Z" fill="white"/>
<path d="M7.10085 21V6.45454H17.2429V9.30966H10.6165V12.2926H16.7244V15.1548H10.6165V18.1449H17.2429V21H7.10085Z" fill="white"/>
</g>
<defs>
<clipPath id="clip0_5145_916">
<rect width="72" height="96" fill="white"/>
</clipPath>
</defs>
</svg>
