<svg width="72" height="96" viewBox="0 0 72 96" fill="none" xmlns="http://www.w3.org/2000/svg">
<g clip-path="url(#clip0_5147_921)">
<path d="M0 2V94C0 95.1 0.9 96 2 96H70C71.1 96 72 95.1 72 94V28H50C48.9 28 48 27.1 48 26V0H2C0.9 0 0 0.9 0 2Z" fill="#A9CE59"/>
<path d="M71.9 24C71.8 23.6 71.7 23.3 71.5 23L52 1.2V24H71.9Z" fill="#A9CE59"/>
<path d="M66 41H6V90H66V41Z" fill="white"/>
<path fill-rule="evenodd" clip-rule="evenodd" d="M34.807 52.8772C36.1383 52.8772 37.3328 52.2911 38.1463 51.3628L48.1228 55.0085C48.123 55.0978 48.1258 55.1865 48.1312 55.2745L38.327 58.8572C37.5156 57.8025 36.2407 57.1228 34.807 57.1228C33.3712 57.1228 32.0945 57.8046 31.2832 58.8621L21.8578 55.4178C21.8706 55.2802 21.8772 55.1409 21.8772 55C21.8772 54.9538 21.8765 54.9078 21.8751 54.862L31.4636 51.358C32.2772 52.2891 33.4734 52.8772 34.807 52.8772ZM30.3895 48.874C30.3756 48.7308 30.3684 48.5855 30.3684 48.4386C30.3684 45.9872 32.3557 44 34.807 44C37.2584 44 39.2456 45.9872 39.2456 48.4386C39.2456 48.5876 39.2383 48.7349 39.2239 48.8801L48.9413 52.4311C49.7457 51.2996 51.0674 50.5614 52.5614 50.5614C55.0128 50.5614 57 52.5486 57 55C57 56.9803 55.7031 58.6578 53.9123 59.2293V72.7707C55.7031 73.3422 57 75.0197 57 77C57 79.4514 55.0128 81.4386 52.5614 81.4386C51.0821 81.4386 49.7718 80.7149 48.9653 79.6023L39.2278 83.1607C39.2396 83.2927 39.2456 83.4263 39.2456 83.5614C39.2456 86.0128 37.2584 88 34.807 88C32.3557 88 30.3684 86.0128 30.3684 83.5614C30.3684 83.4284 30.3743 83.2968 30.3857 83.1668L20.948 79.7179C20.136 80.7648 18.866 81.4386 17.4386 81.4386C14.9872 81.4386 13 79.4514 13 77C13 75.0197 14.2969 73.3422 16.0877 72.7707V59.2293C14.2969 58.6578 13 56.9803 13 55C13 52.5486 14.9872 50.5614 17.4386 50.5614C18.8809 50.5614 20.1626 51.2493 20.9733 52.315L30.3895 48.874ZM31.4358 80.674C31.9656 80.0561 32.6624 79.5855 33.4561 79.3321V65.7907C31.6653 65.2192 30.3684 63.5417 30.3684 61.5614C30.3684 61.5092 30.3693 61.4571 30.3711 61.4053L20.7941 57.9056C20.2663 58.5146 19.5755 58.9784 18.7895 59.2293V72.7707C20.5803 73.3422 21.8772 75.0197 21.8772 77C21.8772 77.0602 21.876 77.1201 21.8736 77.1797L31.4358 80.674ZM48.1229 77.0336L38.1741 80.6692C37.6448 80.0536 36.9496 79.5848 36.1579 79.3321V65.7907C37.9487 65.2192 39.2456 63.5417 39.2456 61.5614C39.2456 61.5071 39.2446 61.453 39.2427 61.3991L49.1114 57.7928C49.65 58.4573 50.3767 58.9632 51.2105 59.2293V72.7707C49.4197 73.3422 48.1228 75.0197 48.1228 77L48.1229 77.0336Z" fill="#A9CE59"/>
<path d="M40.7256 10.8153C40.6782 10.2945 40.4675 9.88968 40.0935 9.60086C39.7242 9.30729 39.1962 9.16051 38.5097 9.16051C38.0551 9.16051 37.6763 9.2197 37.3733 9.33807C37.0703 9.45644 36.843 9.61979 36.6915 9.82813C36.54 10.0317 36.4618 10.2661 36.4571 10.5313C36.4476 10.7491 36.4902 10.9408 36.5849 11.1065C36.6844 11.2723 36.8264 11.419 37.0111 11.5469C37.2005 11.67 37.4277 11.7789 37.6929 11.8736C37.9581 11.9683 38.2563 12.0511 38.5878 12.1222L39.8378 12.4063C40.5575 12.5625 41.192 12.7708 41.7412 13.0313C42.2952 13.2917 42.7592 13.6018 43.1332 13.9616C43.512 14.3215 43.7985 14.7358 43.9926 15.2045C44.1867 15.6733 44.2862 16.1989 44.2909 16.7813C44.2862 17.6998 44.0542 18.4882 43.5949 19.1463C43.1356 19.8045 42.4751 20.3087 41.6134 20.6591C40.7563 21.0095 39.7218 21.1847 38.5097 21.1847C37.2928 21.1847 36.2322 21.0024 35.3278 20.6378C34.4235 20.2732 33.7204 19.7192 33.2185 18.9759C32.7166 18.2325 32.4585 17.2926 32.4443 16.1563H35.8108C35.8392 16.625 35.9647 17.0156 36.1872 17.3281C36.4098 17.6406 36.7152 17.8774 37.1034 18.0384C37.4964 18.1993 37.9509 18.2798 38.467 18.2798C38.9405 18.2798 39.343 18.2159 39.6744 18.0881C40.0106 17.9602 40.2687 17.7827 40.4486 17.5554C40.6285 17.3281 40.7208 17.0677 40.7256 16.7741C40.7208 16.4995 40.6356 16.2652 40.4699 16.071C40.3042 15.8722 40.0485 15.7017 39.7028 15.5597C39.3619 15.4129 38.9263 15.2779 38.396 15.1548L36.8761 14.7997C35.6167 14.5109 34.6247 14.0445 33.9003 13.4006C33.1759 12.7519 32.816 11.8759 32.8207 10.7727C32.816 9.87311 33.0575 9.08476 33.5452 8.40767C34.0329 7.73059 34.7076 7.20265 35.5693 6.82387C36.4311 6.44508 37.4135 6.25568 38.5168 6.25568C39.6437 6.25568 40.6214 6.44745 41.45 6.83097C42.2833 7.20976 42.9296 7.74243 43.3889 8.42898C43.8482 9.11553 44.0826 9.91099 44.0921 10.8153H40.7256Z" fill="white"/>
<path d="M21.4292 21H17.6508L22.5585 6.45454H27.2389L32.1465 21H28.3681L24.9519 10.1193H24.8383L21.4292 21ZM20.9249 15.2756H28.8227V17.946H20.9249V15.2756Z" fill="white"/>
<path d="M7.10085 21V6.45454H10.6165V18.1449H16.6676V21H7.10085Z" fill="white"/>
</g>
<defs>
<clipPath id="clip0_5147_921">
<rect width="72" height="96" fill="white"/>
</clipPath>
</defs>
</svg>
