<svg width="72" height="96" viewBox="0 0 72 96" fill="none" xmlns="http://www.w3.org/2000/svg">
<g clip-path="url(#clip0_5147_954)">
<path d="M0 2V94C0 95.1 0.9 96 2 96H70C71.1 96 72 95.1 72 94V28H50C48.9 28 48 27.1 48 26V0H2C0.9 0 0 0.9 0 2Z" fill="#D2A122"/>
<path d="M71.9 24C71.8 23.6 71.7 23.3 71.5 23L52 1.2V24H71.9Z" fill="#D2A122"/>
<path d="M66 41H6V90H66V41Z" fill="white"/>
<path fill-rule="evenodd" clip-rule="evenodd" d="M34.807 52.8772C36.1383 52.8772 37.3328 52.2911 38.1463 51.3628L48.1228 55.0085C48.123 55.0978 48.1258 55.1865 48.1312 55.2745L38.327 58.8572C37.5156 57.8025 36.2407 57.1228 34.807 57.1228C33.3712 57.1228 32.0945 57.8046 31.2832 58.8621L21.8578 55.4178C21.8706 55.2802 21.8772 55.1409 21.8772 55C21.8772 54.9538 21.8765 54.9078 21.8751 54.862L31.4636 51.358C32.2772 52.2891 33.4734 52.8772 34.807 52.8772ZM30.3895 48.874C30.3756 48.7308 30.3684 48.5855 30.3684 48.4386C30.3684 45.9872 32.3557 44 34.807 44C37.2584 44 39.2456 45.9872 39.2456 48.4386C39.2456 48.5876 39.2383 48.7349 39.2239 48.8801L48.9413 52.4311C49.7457 51.2996 51.0674 50.5614 52.5614 50.5614C55.0128 50.5614 57 52.5486 57 55C57 56.9803 55.7031 58.6578 53.9123 59.2293V72.7707C55.7031 73.3422 57 75.0197 57 77C57 79.4514 55.0128 81.4386 52.5614 81.4386C51.0821 81.4386 49.7718 80.7149 48.9653 79.6023L39.2278 83.1607C39.2396 83.2927 39.2456 83.4263 39.2456 83.5614C39.2456 86.0128 37.2584 88 34.807 88C32.3557 88 30.3684 86.0128 30.3684 83.5614C30.3684 83.4284 30.3743 83.2968 30.3857 83.1668L20.948 79.7179C20.136 80.7648 18.866 81.4386 17.4386 81.4386C14.9872 81.4386 13 79.4514 13 77C13 75.0197 14.2969 73.3422 16.0877 72.7707V59.2293C14.2969 58.6578 13 56.9803 13 55C13 52.5486 14.9872 50.5614 17.4386 50.5614C18.8809 50.5614 20.1626 51.2493 20.9733 52.315L30.3895 48.874ZM31.4358 80.674C31.9656 80.0561 32.6624 79.5855 33.4561 79.3321V65.7907C31.6653 65.2192 30.3684 63.5417 30.3684 61.5614C30.3684 61.5092 30.3693 61.4571 30.3711 61.4053L20.7941 57.9056C20.2663 58.5146 19.5755 58.9784 18.7895 59.2293V72.7707C20.5803 73.3422 21.8772 75.0197 21.8772 77C21.8772 77.0602 21.876 77.1201 21.8736 77.1797L31.4358 80.674ZM48.1229 77.0336L38.1741 80.6692C37.6448 80.0536 36.9496 79.5848 36.1579 79.3321V65.7907C37.9487 65.2192 39.2456 63.5417 39.2456 61.5614C39.2456 61.5071 39.2446 61.453 39.2427 61.3991L49.1114 57.7928C49.65 58.4573 50.3767 58.9632 51.2105 59.2293V72.7707C49.4197 73.3422 48.1228 75.0197 48.1228 77L48.1229 77.0336Z" fill="#D2A122"/>
<path d="M33.2628 21V18.9972L40.3296 9.30966H33.27V6.45454H44.7756V8.45739L37.7089 18.1449H44.7685V21H33.2628Z" fill="white"/>
<path d="M21.4292 21H17.6508L22.5584 6.45454H27.2388L32.1465 21H28.3681L24.9519 10.1193H24.8383L21.4292 21ZM20.9249 15.2756H28.8226V17.946H20.9249V15.2756Z" fill="white"/>
<path d="M7.10085 21V6.45454H10.6165V18.1449H16.6676V21H7.10085Z" fill="white"/>
</g>
<defs>
<clipPath id="clip0_5147_954">
<rect width="72" height="96" fill="white"/>
</clipPath>
</defs>
</svg>
